<svg id="Capa_1" data-name="Capa 1" xmlns="http://www.w3.org/2000/svg" viewBox="0 0 200 200"><defs><style>.cls-1,.cls-2{fill:none;}.cls-1{stroke:#f60;stroke-miterlimit:10;stroke-width:4px;}.cls-3{fill:#f60;}</style></defs><title>vector</title><circle class="cls-1" cx="100.00025" cy="100.61091" r="95.49775" transform="translate(-0.12858 0.12796) rotate(-0.07327)"/><rect class="cls-2" y="0.61092" width="200" height="200"/><path class="cls-3" d="M26.39018,94.63077a15.84434,15.84434,0,0,1,3.90657-1.96506c3.86643-.98584,7.62007-.84324,10.9983,1.50543a10.66493,10.66493,0,0,1,1.54,15.71484c-2.57394,2.76729-5.861,3.48332-9.4645,3.29712a11.48536,11.48536,0,0,1-6.73463-2.536c-.47394-.3785-.68119-.32009-.85741.26671a2.58211,2.58211,0,0,1-3.51041,1.645c-.32517-.132-.34963-.38345-.32751-.66226.67546-8.51341.14318-17.04153.313-25.561.0018-.09036.00839-.18122.00184-.27106-.04263-.58415.25-.8288.80993-.80776.06012.00226.12049-.00126.18072-.00313,2.64976-.08235,3.0308.28936,3.03342,2.9439q.003,3.07287.01715,6.14571A1.47043,1.47043,0,0,0,26.39018,94.63077Zm-.13887,7.77467h.00313c0,.933.00718,1.86615-.003,2.79908a1.47741,1.47741,0,0,0,.48785,1.2068c2.66548,2.373,5.64467,3.74139,9.32077,3.02834a6.7802,6.7802,0,0,0,5.51312-6.01864c.17239-3.40609-1.14558-6.172-4.44291-7.24478a10.03333,10.03333,0,0,0-9.55667,1.61506,2.75937,2.75937,0,0,0-1.3373,2.8105A12.36387,12.36387,0,0,1,26.25131,102.40544Z"/><path class="cls-3" d="M60.55837,103.72147q-4.022.00087-8.044.002c-1.13727.00181-1.19882.09852-.82547,1.20353.96858,2.86674,3.48631,4.56285,7.03336,4.681a8.00576,8.00576,0,0,0,7.127-3.16075c.468-.62549.82888-.61373,1.38025-.15087a18.39747,18.39747,0,0,0,1.7609,1.26359c.45756.2999.50273.54954.14223,1.0023a11.69912,11.69912,0,0,1-8.61175,4.536,15.22984,15.22984,0,0,1-6.32778-.67827c-7.68494-2.72071-9.08851-12.71317-3.547-17.65648,2.735-2.43977,6.03209-3.01093,9.54761-2.59956a10.84333,10.84333,0,0,1,7.46817,3.7741,10.6476,10.6476,0,0,1,2.23224,6.9988c.00333.7542-.46382.78829-1.02063.787Q64.716,103.71424,60.55837,103.72147Zm-1.99752-3.50867c2.0154,0,4.03113-.02083,6.046.01071.75861.01187.92312-.23963.58208-.8926A6.18115,6.18115,0,0,0,62.744,96.62677a8.94862,8.94862,0,0,0-5.59155-.95858,6.29448,6.29448,0,0,0-5.12506,3.3794c-.54586,1.03656-.47576,1.16255.6677,1.16458Q55.628,100.21739,58.56085,100.2128Z"/><path class="cls-3" d="M99.14412,113.13877a13.43616,13.43616,0,0,1-10.59256-4.02732c-.90123-.93737-.90643-.9516.03592-1.82611.6172-.57278,1.202-1.43347,1.919-1.57684.767-.15338,1.14266.98144,1.75177,1.48839,3.10438,2.58366,6.60739,2.97145,10.374,1.94165a3.2652,3.2652,0,0,0,1.0327-.54733,1.78327,1.78327,0,0,0-.26381-3.20731,11.90243,11.90243,0,0,0-3.84015-.95257,39.19637,39.19637,0,0,1-6.84014-1.22262c-3.19686-1.00945-4.62367-3.70576-3.60045-6.78943A5.04609,5.04609,0,0,1,92.05067,93.262a14.35308,14.35308,0,0,1,13.74015,1.01252c.92506.57525,2.032,1.39764,2.01166,2.40217-.01939.95731-1.33,1.51031-2.0877,2.22632-.42169.3985-.63591.013-.86989-.24555-2.73568-3.02255-6.16993-3.47652-9.93531-2.69943a3.09733,3.09733,0,0,0-1.23819.52926,1.9172,1.9172,0,0,0-.82972,1.88355c.08973.74624.63576,1.06329,1.24168,1.29124a22.6942,22.6942,0,0,0,4.96148.92314,25.96216,25.96216,0,0,1,5.74043,1.1691,5.24485,5.24485,0,0,1,3.78947,4.97952,5.69205,5.69205,0,0,1-3.56118,5.31045A12.96952,12.96952,0,0,1,99.14412,113.13877Z"/><path class="cls-3" d="M121.75072,113.13557c-4.28989.10081-7.897-1.08211-10.7588-4.16066-.79922-.85976-.79632-.85695.05358-1.61026.51832-.45941,1.032-.927,1.51384-1.42372.40413-.41659.70468-.43685,1.09488.03779,2.82269,3.4335,6.53238,4.14533,10.686,3.41365a3.94739,3.94739,0,0,0,2.16019-1.061,1.70071,1.70071,0,0,0-.14787-2.66844,8.33758,8.33758,0,0,0-4.01748-1.20528c-1.96595-.2804-3.94806-.45342-5.885-.91875a12.68342,12.68342,0,0,1-2.53808-.92088c-3.42168-1.64273-3.24817-6.79474-.30631-8.78146a9.884,9.884,0,0,1,4.72018-1.6673c3.35759-.30074,6.62258-.045,9.58481,1.80667a9.99715,9.99715,0,0,1,2.33868,2.23529.61741.61741,0,0,1-.0909,1c-.593.51083-1.17833,1.03281-1.73652,1.581-.40832.401-.69174.30516-1.03934-.087-2.78724-3.14452-6.30464-3.56853-10.15491-2.67024a3.05979,3.05979,0,0,0-1.04882.50482,1.8018,1.8018,0,0,0-.855,1.77686,1.69039,1.69039,0,0,0,1.29531,1.36368,26.42457,26.42457,0,0,0,5.0558.90817,23.83625,23.83625,0,0,1,5.8153,1.23452,5.0219,5.0219,0,0,1,3.55881,4.54976,5.38218,5.38218,0,0,1-2.92672,5.38132,12.0042,12.0042,0,0,1-5.28583,1.3776C122.41646,113.15807,121.99328,113.13557,121.75072,113.13557Z"/><path class="cls-3" d="M155.63826,102.56358c-.03093,6.12421-4.11585,10.30942-10.2542,10.58851a14.5084,14.5084,0,0,1-6.46911-.90792c-3.97314-1.6939-5.81611-4.88811-6.11526-9.064-.43-6.00223,3.76078-10.13316,9.39731-10.94118a13.793,13.793,0,0,1,6.50241.59209A9.84885,9.84885,0,0,1,155.63826,102.56358Zm-4.02063.446a6.88835,6.88835,0,0,0-1.76745-5.16076c-1.92119-2.018-4.342-2.38428-6.97139-2.09515a6.75817,6.75817,0,0,0-6.03015,5.70219c-.49527,3.56466,1.06928,6.46166,4.18743,7.659a9.02848,9.02848,0,0,0,3.91146.50538C149.16587,109.32072,151.629,106.768,151.61763,103.00959Z"/><path class="cls-3" d="M158.26248,102.58483c.00023-2.9525.02367-5.9053-.01481-8.8573-.01081-.82909.27173-1.16706,1.09432-1.09183.41847.03827.8434-.00031,1.26456.01653a1.4561,1.4561,0,0,1,1.54045,1.25588c.1378.85019.42652.68087.96431.31492a11.4063,11.4063,0,0,1,8.48656-1.98586c4.15539.666,6.35683,3.08758,6.43206,7.29333.07218,4.0358.00885,8.07391.02624,12.11092.00292.67874-.21322,1.0084-.93764.96628a15.66811,15.66811,0,0,0-2.07749.00255c-.813.06109-1.03379-.29584-1.0284-1.05973.02638-3.73562.01573-7.47154.01-11.20735-.00522-3.40219-1.93672-5.03208-5.3291-4.65891a10.65819,10.65819,0,0,0-5.98063,2.91154,1.52614,1.52614,0,0,0-.42855,1.31168q0,5.6941-.00137,11.3882c-.001,1.30077-.00629,1.30076-1.31028,1.30465-2.71045.00807-2.71045.00807-2.71045-2.69452Q158.26225,106.24532,158.26248,102.58483Z"/><path class="cls-3" d="M74.147,102.87869c-.00135-1.86836-.02879-3.73732.012-5.60479.01656-.75814-.26237-1.02075-.99939-.97871-.78086.04455-1.56656-.00335-2.34983.00893-.5323.00835-.77381-.23677-.77037-.76135.02237-3.41318-.41417-2.82041,2.574-2.87029,1.41047-.02354,1.41191-.00666,1.414-1.39791.00187-1.23553.028-2.47188-.00887-3.7063-.0234-.783.20244-1.12476,1.07122-1.122,2.8393.00894,2.95053.08635,2.95075,2.93209.00006.81364.02414,1.62814-.00586,2.44065-.02314.62665.242.862.85467.85433,1.50649-.01888,3.0135-.0152,4.52011-.00068a2.21267,2.21267,0,0,1,2.18289,3.20627c-.16785.46126-.55152.40774-.901.40947-1.86832.00926-3.73735.03447-5.60475-.00766-.776-.01751-1.06147.22085-1.05178,1.02674.03767,3.13358.00241,6.26795.02063,9.40187.01285,2.21325.71953,2.886,2.93041,2.96473a17.79174,17.79174,0,0,0,4.3001-.46161c.64726-.13586.91059.04952.88066.70329-.0179.39088-.00075.78334-.00078,1.17509-.00013,1.63.00136,1.64455-1.57443,1.82641a17.80062,17.80062,0,0,1-6.45968.07051,4.71571,4.71571,0,0,1-3.98037-4.956C74.13479,106.3142,74.14831,104.59638,74.147,102.87869Z"/></svg>