<svg id="Capa_1" data-name="Capa 1" xmlns="http://www.w3.org/2000/svg" xmlns:xlink="http://www.w3.org/1999/xlink" viewBox="0 0 200 200"><defs><style>.cls-1,.cls-25{fill:none;}.cls-2{fill:#1c3147;}.cls-3{clip-path:url(#clip-path);}.cls-4{fill:url(#Degradado_sin_nombre_15);}.cls-5{clip-path:url(#clip-path-2);}.cls-6{fill:url(#Degradado_sin_nombre_15-2);}.cls-7{clip-path:url(#clip-path-3);}.cls-8{fill:url(#Degradado_sin_nombre_15-3);}.cls-9{clip-path:url(#clip-path-4);}.cls-10{fill:url(#Degradado_sin_nombre_15-4);}.cls-11{clip-path:url(#clip-path-5);}.cls-12{fill:url(#Degradado_sin_nombre_14);}.cls-13{clip-path:url(#clip-path-6);}.cls-14{fill:url(#Degradado_sin_nombre_12);}.cls-15{clip-path:url(#clip-path-7);}.cls-16{fill:url(#Degradado_sin_nombre_5);}.cls-17{clip-path:url(#clip-path-8);}.cls-18{fill:url(#Degradado_sin_nombre_7);}.cls-19{fill:#162a3a;}.cls-20{clip-path:url(#clip-path-9);}.cls-21{fill:url(#Degradado_sin_nombre_15-5);}.cls-22{clip-path:url(#clip-path-10);}.cls-23{fill:url(#Degradado_sin_nombre_12-2);}.cls-24{fill:#142d50;}.cls-25{stroke:#0d307b;stroke-miterlimit:10;stroke-width:4px;}</style><clipPath id="clip-path"><path class="cls-1" d="M70.3,47c-1.49.77-2.3,2.49-2.3,4.85V82.52a.94.94,0,0,0,1.79.39c4.77-10.3,9.52-18.56,10.8-20.28a9,9,0,0,1,2.73,2.85c-.27.59-1.31,2.38-2.41,4.27-3.7,6.35-10.59,18.19-12.44,25.44A.93.93,0,0,0,69,96.28a.8.8,0,0,0,.37.08,1,1,0,0,0,.79-.42c2.88-4.45,21-27.12,26-32.3a1,1,0,0,0,.26-.74,1,1,0,0,0-.4-.68L75.59,47.91A6.35,6.35,0,0,0,72,46.6,3.65,3.65,0,0,0,70.3,47"/></clipPath><linearGradient id="Degradado_sin_nombre_15" x1="406.23" y1="4400.45" x2="408.37" y2="4400.45" gradientTransform="matrix(0, -23.24, -23.24, 0, 102342.4, 9536.3)" gradientUnits="userSpaceOnUse"><stop offset="0" stop-color="#ebd786"/><stop offset="0.38" stop-color="#7c5833"/><stop offset="0.61" stop-color="#ebd786"/><stop offset="0.69" stop-color="#fefefc"/><stop offset="0.69" stop-color="#fdfbf3"/><stop offset="0.73" stop-color="#f5ecc4"/><stop offset="0.75" stop-color="#f0e0a2"/><stop offset="0.78" stop-color="#ecd98e"/><stop offset="0.79" stop-color="#ebd786"/><stop offset="0.99" stop-color="#b9974e"/><stop offset="1" stop-color="#b59249"/></linearGradient><clipPath id="clip-path-2"><path class="cls-1" d="M98.41,64.57a1,1,0,0,0-.46.91,1.94,1.94,0,0,1,0,.33c-.06.79-2,6.27-3.66,11.12-3,8.66-5,14.45-5,15.81a.94.94,0,0,0,.66.9,1,1,0,0,0,.29,0,.93.93,0,0,0,.77-.4C94,89,97.42,84.1,100.89,79.56c2.52-3.33,4.55-5.94,6.4-8.21A.94.94,0,0,0,107.1,70l-7.67-5.37a.9.9,0,0,0-.54-.18,1,1,0,0,0-.48.13"/></clipPath><linearGradient id="Degradado_sin_nombre_15-2" x1="533.9" y1="4426.24" x2="536.04" y2="4426.24" gradientTransform="matrix(0, -13.65, -13.65, 0, 60531.59, 7382.38)" xlink:href="#Degradado_sin_nombre_15"/><clipPath id="clip-path-3"><path class="cls-1" d="M88.72,77.38a201.36,201.36,0,0,0-20.36,27.26l-.21.35a.89.89,0,0,0-.15.5v4.61c0,2.35.81,4.07,2.3,4.84a3.66,3.66,0,0,0,1.73.42,6.35,6.35,0,0,0,3.56-1.31l8.86-6.21a.95.95,0,0,0,0-1.54A5.69,5.69,0,0,1,83,105c0-1.91,1.36-7.32,3.63-14.91,1.09-3.75,2.32-7.72,3.66-11.79a.94.94,0,0,0-.42-1.11,1,1,0,0,0-.47-.12.93.93,0,0,0-.7.31"/></clipPath><linearGradient id="Degradado_sin_nombre_15-3" x1="460.1" y1="4411.84" x2="462.24" y2="4411.84" gradientTransform="matrix(0, -17.88, -17.88, 0, 78958.94, 8341.92)" xlink:href="#Degradado_sin_nombre_15"/><clipPath id="clip-path-4"><path class="cls-1" d="M110.42,73.34c-9.19,10.41-16.26,20.12-21,28.85a.94.94,0,0,0,.83,1.39,1,1,0,0,0,.54-.17L115.56,86a5.83,5.83,0,0,0,0-10.11l-3.9-2.73a.89.89,0,0,0-.54-.17.92.92,0,0,0-.7.32"/></clipPath><linearGradient id="Degradado_sin_nombre_15-4" x1="520.1" y1="4423.34" x2="522.24" y2="4423.34" gradientTransform="matrix(0, -14.27, -14.27, 0, 63225.28, 7526.07)" xlink:href="#Degradado_sin_nombre_15"/><clipPath id="clip-path-5"><path class="cls-1" d="M68.94,51.86V82.52c5.08-11,10.79-20.94,11.39-20.94,1.11,0,4,3,4,4S72,85.4,69.38,95.42c3-4.68,21.1-27.26,26.09-32.43L75.05,48.68a5.44,5.44,0,0,0-3-1.14c-1.85,0-3.09,1.55-3.09,4.32"/></clipPath><linearGradient id="Degradado_sin_nombre_14" x1="413.41" y1="4401.93" x2="415.55" y2="4401.93" gradientTransform="matrix(0, -22.36, -22.36, 0, 98502.67, 9338.18)" gradientUnits="userSpaceOnUse"><stop offset="0" stop-color="#e8d378"/><stop offset="0.08" stop-color="#d6bc6c"/><stop offset="0.1" stop-color="#d2b86a"/><stop offset="0.12" stop-color="#c6ac64"/><stop offset="0.15" stop-color="#b3985a"/><stop offset="0.17" stop-color="#987c4b"/><stop offset="0.17" stop-color="#8c7045"/><stop offset="0.2" stop-color="#917548"/><stop offset="0.22" stop-color="#9e834f"/><stop offset="0.25" stop-color="#b49b5b"/><stop offset="0.28" stop-color="#d2bb6c"/><stop offset="0.29" stop-color="#e8d378"/><stop offset="0.36" stop-color="#fffefd"/><stop offset="0.4" stop-color="#f9f3d9"/><stop offset="0.46" stop-color="#efdf9a"/><stop offset="0.49" stop-color="#ebd782"/><stop offset="0.61" stop-color="#ebd67e"/><stop offset="0.73" stop-color="#e8d378"/><stop offset="0.88" stop-color="#bb9438"/><stop offset="0.9" stop-color="#b58b2f"/><stop offset="1" stop-color="#b58b2f"/></linearGradient><clipPath id="clip-path-6"><path class="cls-1" d="M98.91,65.83c0,1.63-8.67,24.53-8.67,26.91,3.43-4.95,6.69-9.55,9.9-13.74,2.09-2.77,4.29-5.63,6.42-8.24l-7.67-5.37c0,.15,0,.3,0,.44"/></clipPath><linearGradient id="Degradado_sin_nombre_12" x1="555.18" y1="4430.62" x2="557.32" y2="4430.62" gradientTransform="matrix(0, -12.78, -12.78, 0, 56700.45, 7184.99)" gradientUnits="userSpaceOnUse"><stop offset="0" stop-color="#e8d378"/><stop offset="0.12" stop-color="#d6bc6c"/><stop offset="0.16" stop-color="#d2b86a"/><stop offset="0.2" stop-color="#c6ac64"/><stop offset="0.24" stop-color="#b3985a"/><stop offset="0.28" stop-color="#987c4b"/><stop offset="0.29" stop-color="#8c7045"/><stop offset="0.31" stop-color="#917548"/><stop offset="0.34" stop-color="#9e834f"/><stop offset="0.37" stop-color="#b49b5b"/><stop offset="0.41" stop-color="#d2bb6c"/><stop offset="0.43" stop-color="#e8d378"/><stop offset="0.51" stop-color="#fffefd"/><stop offset="0.55" stop-color="#f9f1d5"/><stop offset="0.6" stop-color="#f1e3a6"/><stop offset="0.63" stop-color="#edd989"/><stop offset="0.66" stop-color="#ebd67e"/><stop offset="0.81" stop-color="#e8d378"/><stop offset="0.92" stop-color="#bb9438"/><stop offset="0.94" stop-color="#b58b2f"/><stop offset="1" stop-color="#b58b2f"/></linearGradient><clipPath id="clip-path-7"><path class="cls-1" d="M90.23,102.64,115,85.26c3.36-2.36,3.36-6.21,0-8.57L111.12,74C99.23,87.44,93.29,97,90.23,102.64"/></clipPath><linearGradient id="Degradado_sin_nombre_5" x1="539.58" y1="4427.23" x2="541.72" y2="4427.23" gradientTransform="matrix(0, -13.39, -13.39, 0, 59393.74, 7327.89)" gradientUnits="userSpaceOnUse"><stop offset="0" stop-color="#e8d378"/><stop offset="0.14" stop-color="#d6bc6c"/><stop offset="0.3" stop-color="#ccb165"/><stop offset="0.45" stop-color="#8c7045"/><stop offset="0.61" stop-color="#ead57c"/><stop offset="0.73" stop-color="#eddd93"/><stop offset="0.84" stop-color="#fffefd"/><stop offset="0.87" stop-color="#f9f1d5"/><stop offset="0.91" stop-color="#f1e3a6"/><stop offset="0.93" stop-color="#edd989"/><stop offset="0.95" stop-color="#ebd67e"/><stop offset="0.96" stop-color="#d8bb62"/><stop offset="0.99" stop-color="#bf983d"/><stop offset="1" stop-color="#b58b2f"/></linearGradient><clipPath id="clip-path-8"><path class="cls-1" d="M68.94,105.49v4.61c0,4.1,2.75,5.53,6.11,3.18l8.86-6.21c-1-.72-1.83-1.51-1.83-2,0-2.27,1.8-9,3.67-15.26,1-3.61,2.27-7.57,3.67-11.82a199.55,199.55,0,0,0-20.48,27.48"/></clipPath><linearGradient id="Degradado_sin_nombre_7" x1="472.36" y1="4414.36" x2="474.5" y2="4414.36" gradientTransform="matrix(0, -17, -17, 0, 75118.89, 8143.49)" gradientUnits="userSpaceOnUse"><stop offset="0" stop-color="#8c7045"/><stop offset="0.03" stop-color="#8c7045"/><stop offset="0.23" stop-color="#d6bc6c"/><stop offset="0.4" stop-color="#ccb266"/><stop offset="0.53" stop-color="#ccb266"/><stop offset="0.86" stop-color="#9d804e"/><stop offset="0.93" stop-color="#e8d378"/><stop offset="0.98" stop-color="#fffefd"/><stop offset="0.99" stop-color="#f7efcf"/><stop offset="0.99" stop-color="#efe0a0"/><stop offset="1" stop-color="#ead783"/><stop offset="1" stop-color="#e8d378"/></linearGradient><clipPath id="clip-path-9"><path class="cls-1" d="M66.12,123.45c-2,1.34-5.26,5.56-7.92,9.08-1.14,1.48-2.27,3.05-3.33,4.55.51-1.56,1.18-3.46,1.7-5a46.84,46.84,0,0,0,2-6.05c0-1-.65-2.53-1.67-2.53-.33,0-.7,0-7,7.79-1.78,2.2-3.75,4.68-5.25,6.64a104.15,104.15,0,0,1,5-9.37c1.27-2.19,1.39-2.42,1.39-2.68a3.91,3.91,0,0,0-2.57-2.56c-.33,0-.52,0-2.11,2.78-1,1.75-2.12,3.91-3.19,6.09-1.69,3.48-4.63,9.92-5.18,13.89,0,0,0,0,0,.08,0,1.1,3,2.42,3.5,2.42s.49-.15,1.68-2a105.18,105.18,0,0,1,8.7-12c-.39,1.26-.76,2.48-1.11,3.67-.71,2.38-1.91,6.6-1.91,8,0,.94,2.32,2.33,3.05,2.33.44,0,.59-.31,1.1-1.35,1.28-2.56,4.67-9.38,15.35-20.62.21-.2.38-.6.09-1.29s-1.23-2-2-2a.5.5,0,0,0-.29.09"/></clipPath><linearGradient id="Degradado_sin_nombre_15-5" x1="-141.9" y1="4285.45" x2="-139.72" y2="4285.45" gradientTransform="matrix(0, 11.49, 11.49, 0, -49170.63, 1753.27)" xlink:href="#Degradado_sin_nombre_15"/><clipPath id="clip-path-10"><path class="cls-1" d="M58.62,132.85c-1.65,2.16-3.33,4.53-5.1,7.08,0-1.23,4.47-13,4.47-13.86s-.54-2-1.14-2-12.3,14.52-14.07,17.25c1.32-5.16,7.68-14.91,7.68-15.39s-1.47-2-2-2-9,15.45-10,22.32c0,.63,2.58,1.89,3,1.89s4.38-7.68,11.67-15.75c-.72,2.19-1.35,4.23-1.89,6.09a45.81,45.81,0,0,0-1.89,7.86c0,.51,2,1.8,2.52,1.8s2.34-7.35,16.07-21.81c.48-.48-1-2.4-1.5-2.4-1.82,1.26-5,5.28-7.79,9"/></clipPath><linearGradient id="Degradado_sin_nombre_12-2" x1="603.88" y1="4443.08" x2="606.07" y2="4443.08" gradientTransform="matrix(0, -11.06, -11.06, 0, 49202.82, 6827.72)" xlink:href="#Degradado_sin_nombre_12"/></defs><path class="cls-2" d="M69.71,84.41a.94.94,0,0,0,1.05-.53c4.77-10.3,9.52-18.56,10.81-20.27a8.93,8.93,0,0,1,2.72,2.84C84,67,83,68.84,81.89,70.72,78.18,77.08,71.3,88.91,69.44,96.16a1,1,0,0,0,.54,1.1,1,1,0,0,0,.37.08,1,1,0,0,0,.79-.43c2.89-4.45,21-27.12,26-32.3a.92.92,0,0,0,.26-.74,1,1,0,0,0-.4-.68L76.56,48.88c-1.92-1.35-3.8-1.67-5.29-.9S69,50.47,69,52.83V83.49a1,1,0,0,0,.74.92"/><path class="cls-2" d="M95.28,77.9c-3,8.67-5,14.45-5,15.82a.92.92,0,0,0,.66.89.87.87,0,0,0,.28,0,.94.94,0,0,0,.77-.41c2.94-4.23,6.41-9.18,9.88-13.72,2.52-3.33,4.55-5.94,6.4-8.21a.93.93,0,0,0,.2-.72,1,1,0,0,0-.39-.64l-7.67-5.37a.93.93,0,0,0-1,0,.94.94,0,0,0-.46.91c0,.12,0,.24,0,.33-.07.79-2,6.28-3.67,11.12"/><path class="cls-2" d="M91.29,79.27a.94.94,0,0,0-1.6-.92,199.49,199.49,0,0,0-20.35,27.27l-.22.34a.89.89,0,0,0-.15.5v4.61c0,2.35.82,4.07,2.3,4.85a3.77,3.77,0,0,0,1.73.41A6.32,6.32,0,0,0,76.56,115l8.86-6.21a.94.94,0,0,0,0-1.53A5.83,5.83,0,0,1,84,106c.05-1.91,1.37-7.31,3.64-14.9,1.08-3.76,2.32-7.72,3.66-11.8"/><path class="cls-2" d="M116.53,76.89l-3.9-2.73a.94.94,0,0,0-1.24.15c-9.19,10.41-16.26,20.12-21,28.85a.94.94,0,0,0,.83,1.39.89.89,0,0,0,.54-.17L116.53,87a5.83,5.83,0,0,0,0-10.11"/><g class="cls-3"><rect class="cls-4" x="68" y="46.6" width="28.44" height="49.77"/></g><g class="cls-5"><rect class="cls-6" x="89.29" y="64.44" width="18.23" height="29.24"/></g><g class="cls-7"><rect class="cls-8" x="68" y="77.07" width="22.45" height="38.29"/></g><g class="cls-9"><rect class="cls-10" x="89.19" y="73.02" width="29.29" height="30.56"/></g><g class="cls-11"><rect class="cls-12" x="68.94" y="47.54" width="26.53" height="47.88"/></g><g class="cls-13"><rect class="cls-14" x="90.24" y="65.39" width="16.32" height="27.36"/></g><g class="cls-15"><rect class="cls-16" x="90.23" y="73.96" width="28.16" height="28.68"/></g><g class="cls-17"><rect class="cls-18" x="68.94" y="78.01" width="20.48" height="37.63"/></g><path class="cls-19" d="M69.28,127.44c-13.74,14.45-15.56,21.8-16.07,21.8s-2.53-1.29-2.53-1.8a45.14,45.14,0,0,1,1.9-7.86c.54-1.86,1.16-3.9,1.89-6.09-7.29,8.07-11.31,15.75-11.67,15.75s-3-1.26-3-1.89c1-6.87,9.42-22.31,10-22.31s2,1.53,2,2-6.35,10.22-7.67,15.38c1.77-2.73,13.43-17.24,14.06-17.24s1.14,1.14,1.14,2-4.47,12.63-4.47,13.86c1.77-2.55,3.45-4.92,5.1-7.08,2.79-3.69,6-7.7,7.8-9,.48,0,2,1.91,1.5,2.4"/><g class="cls-20"><rect class="cls-21" x="37.93" y="123.36" width="30.74" height="25.26"/></g><g class="cls-22"><rect class="cls-23" x="38.46" y="123.88" width="29.93" height="24.21"/></g><path class="cls-24" d="M67.56,130.33a1.1,1.1,0,0,1,.33-.81,1.13,1.13,0,0,1,1.62,0,1.1,1.1,0,0,1,.33.81v1.84a8.54,8.54,0,0,1,2.92-2.12,9,9,0,0,1,3.69-.76,8.78,8.78,0,0,1,6.32,2.62,9.1,9.1,0,0,1,1.9,2.82,8.71,8.71,0,0,1,0,6.89,9.22,9.22,0,0,1-4.75,4.77,8.18,8.18,0,0,1-3.38.72,8,8,0,0,1-3.76-1.05,12.43,12.43,0,0,1-2.92-2.3v8.89a1.12,1.12,0,0,1-.33.81,1.16,1.16,0,0,1-1.62,0,1.12,1.12,0,0,1-.33-.81Zm2.28,7.82a6.81,6.81,0,0,0,.59,2.65,7,7,0,0,0,1.44,2.11,6.53,6.53,0,0,0,2.07,1.38,6.61,6.61,0,0,0,5.09,0,6.61,6.61,0,0,0,2.12-10.79A6.75,6.75,0,0,0,79,132.06a6.61,6.61,0,0,0-2.58-.52,6.39,6.39,0,0,0-2.51.5,6.62,6.62,0,0,0-2.07,1.35,6.82,6.82,0,0,0-1.44,2,6.19,6.19,0,0,0-.59,2.49Z"/><path class="cls-24" d="M87.14,124.68a1.15,1.15,0,1,1,2.29,0V146a1.15,1.15,0,0,1-2.29,0Z"/><path class="cls-24" d="M106.88,143.75A11.56,11.56,0,0,1,104,146.1a7.39,7.39,0,0,1-3.71,1,8.9,8.9,0,0,1-6.27-2.5,8.73,8.73,0,0,1-2.62-6.35,9.12,9.12,0,0,1,.68-3.49,9,9,0,0,1,1.88-2.85A8.59,8.59,0,0,1,96.75,130a9,9,0,0,1,3.56-.7,8.14,8.14,0,0,1,3.38.72,9.19,9.19,0,0,1,2.82,1.93,9.36,9.36,0,0,1,1.94,2.84,8.49,8.49,0,0,1,.72,3.47V146a1.13,1.13,0,0,1-1.15,1.14,1.1,1.1,0,0,1-.81-.33,1.13,1.13,0,0,1-.33-.81Zm0-5.53a6.67,6.67,0,0,0-1.94-4.7,6.32,6.32,0,0,0-2.12-1.42,6.43,6.43,0,0,0-2.58-.52,6.3,6.3,0,0,0-2.56.52,6.59,6.59,0,0,0-2.11,1.42,6.75,6.75,0,0,0-1.42,2.12,6.6,6.6,0,0,0-.51,2.58,6.43,6.43,0,0,0,.51,2.56,6.7,6.7,0,0,0,1.42,2.11,6.94,6.94,0,0,0,2.11,1.42,6.56,6.56,0,0,0,5.07,0,6.83,6.83,0,0,0,2.08-1.39,6.46,6.46,0,0,0,1.44-2.08,7.3,7.3,0,0,0,.61-2.64"/><path class="cls-24" d="M121.3,129.88a1,1,0,0,1,.41-.48,1.21,1.21,0,0,1,.63-.18,1.08,1.08,0,0,1,.83.35,1.11,1.11,0,0,1,.31.76,1,1,0,0,1-.11.44L115,153.05a1.11,1.11,0,0,1-1.86.39,1.18,1.18,0,0,1-.32-.8,1.23,1.23,0,0,1,0-.2.89.89,0,0,1,.06-.2l2.21-6.05c-1-2.83-1.91-5.22-2.62-7.17s-1.29-3.53-1.73-4.73-.76-2.06-1-2.6-.3-.82-.3-.85a1.16,1.16,0,0,1-.11-.51,1.2,1.2,0,0,1,.28-.8,1,1,0,0,1,.79-.31,1.3,1.3,0,0,1,.7.18,1,1,0,0,1,.41.48l4.79,13.1Z"/><path class="cls-24" d="M123.55,145.6a1.44,1.44,0,0,1,.45-1.07,1.46,1.46,0,0,1,1.07-.44,1.5,1.5,0,0,1,1.07.44,1.46,1.46,0,0,1,.44,1.07,1.48,1.48,0,0,1-.44,1.07,1.5,1.5,0,0,1-1.07.44,1.52,1.52,0,0,1-1.52-1.51"/><path class="cls-24" d="M136.21,129.29a7.36,7.36,0,0,1,2.65.45,9.37,9.37,0,0,1,2,1,5.88,5.88,0,0,1,1.31,1.14,1.68,1.68,0,0,1,.46.87.91.91,0,0,1-.33.7,1.08,1.08,0,0,1-.74.3,1.1,1.1,0,0,1-.81-.33,7.52,7.52,0,0,0-2.1-1.31,6.55,6.55,0,0,0-2.55-.5,6.3,6.3,0,0,0-2.56.52,6.44,6.44,0,0,0-2.1,1.42,6.32,6.32,0,0,0-1.42,2.12,6.43,6.43,0,0,0-.52,2.58,6.3,6.3,0,0,0,.52,2.56,6.68,6.68,0,0,0,3.52,3.52,6.3,6.3,0,0,0,2.56.52,6.55,6.55,0,0,0,2.55-.5,6.72,6.72,0,0,0,2.1-1.38,1.1,1.1,0,0,1,.81-.33,1.17,1.17,0,0,1,.8.31,1,1,0,0,1,.35.79,1.78,1.78,0,0,1-.43.87,4.81,4.81,0,0,1-1.27,1.13,9.38,9.38,0,0,1-2.08,1,9.12,9.12,0,0,1-2.83.4,9,9,0,0,1-3.45-.66,8.79,8.79,0,0,1-2.82-1.85,8.62,8.62,0,0,1-1.92-2.8,8.94,8.94,0,0,1-.7-3.54,8.85,8.85,0,0,1,2.57-6.26,9.27,9.27,0,0,1,2.84-1.91,9.71,9.71,0,0,1,3.56-.8"/><path class="cls-24" d="M153,129.26a8.13,8.13,0,0,1,3.37.72,9.19,9.19,0,0,1,2.82,1.93,9.36,9.36,0,0,1,1.94,2.84,8.69,8.69,0,0,1,0,6.88,9.45,9.45,0,0,1-1.9,2.83,8.82,8.82,0,0,1-6.33,2.61,8.9,8.9,0,0,1-6.27-2.5,9,9,0,0,1-1.94-9.8,9,9,0,0,1,1.88-2.8,9.17,9.17,0,0,1,2.85-1.92,9.7,9.7,0,0,1,3.56-.79m-.08,2.32a6.3,6.3,0,0,0-2.56.52,6.59,6.59,0,0,0-2.11,1.42,6.75,6.75,0,0,0-1.42,2.12,6.6,6.6,0,0,0-.51,2.58,6.43,6.43,0,0,0,.51,2.56,6.7,6.7,0,0,0,1.42,2.11,6.94,6.94,0,0,0,2.11,1.42,6.47,6.47,0,0,0,2.56.52,6.61,6.61,0,0,0,2.58-.52,6.75,6.75,0,0,0,2.12-1.42,6.56,6.56,0,0,0,1.43-2.11,6.43,6.43,0,0,0,.51-2.56,6.56,6.56,0,0,0-1.94-4.7,6.67,6.67,0,0,0-4.7-1.94"/><circle class="cls-25" cx="99.87" cy="100.19" r="95.5"/></svg>