<svg id="Capa_1" data-name="Capa 1" xmlns="http://www.w3.org/2000/svg" viewBox="0 0 200 200"><defs><style>.cls-1{fill:none;stroke:#b50a1d;stroke-miterlimit:10;stroke-width:4px;}.cls-2{fill:#b31218;}</style></defs><circle class="cls-1" cx="100.41" cy="100.14" r="95.5"/><path class="cls-2" d="M43.77,101c-1.86-.87-3.24-1.93-2.11-4.32,2-3.58,5.74-6.32,40.53-13.42C47.35,93.32,46,94.94,54.14,97.45A50.81,50.81,0,0,1,59.21,99c6,2.25.5,7.89-42.73,18.11,24.59-9.89,34.19-12.88,27.29-16.09"/><path class="cls-2" d="M70.64,100h.78c1.69,0,3.36,0,3.69-2.13s-1.19-2.23-3-2.23h-.78Zm-3.38-8H74.4c3.85,0,6.25,1.73,5.58,5.74s-3.23,5.92-7.3,5.92H70.05l-1,5.79H64.44Z"/><path class="cls-2" d="M86.66,100.39a4.2,4.2,0,0,0,4.21,5.21,6.21,6.21,0,0,0,5.92-5.21,4.1,4.1,0,0,0-4.33-4.6,6,6,0,0,0-5.8,4.6m15,0A11.47,11.47,0,0,1,90.16,110c-5.76,0-9.27-4-8.35-9.62.86-5.28,6.21-9,11.37-9s9.32,3.7,8.46,9"/><path class="cls-2" d="M109.65,99.79h.45c1.53,0,3.29-.28,3.59-2.18s-1.35-2.17-2.87-2.17h-.45Zm8.68,9.63h-5.8l-3.31-6.71h0l-1.1,6.71h-4.66L106.25,92h7c3.54,0,6,1.64,5.37,5.37a5.81,5.81,0,0,1-4.73,4.93Z"/><polygon class="cls-2" points="127.81 109.42 123.16 109.42 125.37 95.81 121.52 95.81 122.14 91.97 134.5 91.97 133.88 95.81 130.03 95.81 127.81 109.42"/><polygon class="cls-2" points="139.11 109.42 134.45 109.42 137.28 91.97 141.94 91.97 139.11 109.42"/><path class="cls-2" d="M161.62,92,160,101.78c-.36,2.24-.81,4.46-2.88,6.15a9.92,9.92,0,0,1-6.25,1.95c-2.09,0-4.38-.51-5.63-1.95-1.5-1.69-1.24-3.91-.88-6.15L146,92h4.66l-1.48,9.18c-.38,2.27-.61,4.75,2.38,4.75s3.57-2.48,4-4.75L157,92Z"/><polygon class="cls-2" points="167.64 91.97 172.22 91.97 174.36 101.29 179.71 91.97 184.35 91.97 184.23 109.42 179.57 109.42 179.91 99.37 179.86 99.37 173.91 109.42 172.06 109.42 169.59 99.37 169.54 99.37 166.4 109.42 161.76 109.42 167.64 91.97"/></svg>