<svg id="Capa_1" data-name="Capa 1" xmlns="http://www.w3.org/2000/svg" viewBox="0 0 200 200"><defs><style>.cls-1{fill:none;stroke:#d7742d;stroke-miterlimit:10;stroke-width:4px;}.cls-2{fill:#d7742d;}</style></defs><circle class="cls-1" cx="100.11" cy="99.92" r="95.5"/><g id="layer1"><path id="path26" class="cls-2" d="M73.93,72.38a30.46,30.46,0,0,1,60.82-2.31V68.15a34.65,34.65,0,1,0-34.64,34.65h2.31A30.66,30.66,0,0,1,73.93,72.38Z"/><path id="path28" class="cls-2" d="M120.89,73.92A11.12,11.12,0,0,1,117,52.36a22.84,22.84,0,0,0-11.16-2.69,24.26,24.26,0,1,0,24.25,24.25h0a18.39,18.39,0,0,0-.38-4.62,9.84,9.84,0,0,1-8.86,4.62Z"/></g><text/><path id="path4" class="cls-2" d="M165.79,132.39V112.23h3.55v20.16Z"/><path id="path6" class="cls-2" d="M158.14,132.39V112.23h3.55v20.16Z"/><path id="path8" class="cls-2" d="M155.15,125.11c0,4.85-2.42,7.46-6.9,7.46s-6.9-2.61-6.9-7.46,2.42-7.47,6.9-7.47S155.15,120.26,155.15,125.11Zm-3.35,0c0-3.92-1.31-4.67-3.36-4.67s-3.36.75-3.36,4.67,1.3,4.66,3.36,4.66C150.3,129.77,151.8,129,151.8,125.11Z"/><path id="path10" class="cls-2" d="M139.85,117.64v3c-1.86,0-4.1,0-4.1.93v10.83H132.2V119.51C132.39,117.27,139.85,117.64,139.85,117.64Z"/><path id="path12" class="cls-2" d="M118.58,138.17c2.61-6.53,2.43-6,2.61-6.53L116,117.83h3.73l3.36,10.08,3.17-10.08H130l-5.6,14.93-2,5.41Z"/><path id="path14" class="cls-2" d="M113.91,123.62v8.77h-3.54v-9c0-1.31-.37-2.61-3.55-2.61a9,9,0,0,0-2.42.37v11.2h-3.55V112.23h3.55V118a7.09,7.09,0,0,1,3-.56c4.3.18,6.53,2.42,6.53,6.16Z"/><path id="path16" class="cls-2" d="M94.32,129.59a12.14,12.14,0,0,0,3.73-.75v3a10.31,10.31,0,0,1-4.29.74c-4.48,0-6.9-2.61-6.9-7.46s2.42-7.65,6.9-7.65a16,16,0,0,1,4.29.74v3a11.07,11.07,0,0,0-3.73-.75c-2.42,0-3.92.75-3.92,4.48,0,3.92,1.5,4.67,3.92,4.67Z"/><path id="path18" class="cls-2" d="M84.62,123.24v9.15H81.26v-9.15c0-1.3,0-2.61-3-2.61-.93,0-2.8.19-2.8.75v11H72.11V120.26c0-2.43,3-2.8,6.72-2.8,3.73.18,5.79,1.68,5.79,5.78Z"/><path id="path20" class="cls-2" d="M68.76,117.83v8c0,4.3-1.5,6.91-6.54,6.91s-6.34-2.61-6.34-6.91v-8h3.36v8.4c0,2.42.93,3.17,3,3.17s3-.75,3-3.17v-8.4Z"/><path id="path22" class="cls-2" d="M53.08,117.64v3c-1.86,0-4.1,0-4.1.93v10.83H45.43V119.51C45.62,117.27,53.08,117.64,53.08,117.64Z"/><path id="path24" class="cls-2" d="M38.53,129.59a10,10,0,0,0,3.54-.75v3a10.31,10.31,0,0,1-4.29.74c-4.48,0-6.9-2.61-6.9-7.46s2.42-7.65,6.9-7.65a16,16,0,0,1,4.29.74v3a10.78,10.78,0,0,0-3.54-.75c-2.43,0-3.92.75-3.92,4.48-.19,3.92,1.49,4.67,3.92,4.67Z"/></svg>