<svg id="Capa_1" data-name="Capa 1" xmlns="http://www.w3.org/2000/svg" viewBox="0 0 200 200"><defs><style>.cls-1{font-size:15px;font-family:MADETOMMY-Medium, MADE TOMMY;font-weight:500;letter-spacing:0.3em;}.cls-1,.cls-2{fill:#cb6339;}.cls-3{fill:none;stroke:#cb6339;stroke-miterlimit:10;stroke-width:4px;}</style></defs><text class="cls-1" transform="translate(42.83 131.27)">LICENCIAS</text><path class="cls-2" d="M50.08,107V73l-16.6,4c0,.58-.07,1.13-.07,1.68,0,6.74,0,13.48,0,20.22a1.6,1.6,0,0,1-1.27,1.85c-2.45.86-4.85,1.88-7.46,2.91,0-.61-.09-1-.09-1.42,0-8.63,0-17.26,0-25.89a1.65,1.65,0,0,1,1.32-1.83c7.8-2.88,15.57-5.84,23.36-8.73a3.43,3.43,0,0,1,2-.08c4,1.1,8,2.3,12,3.41a1.46,1.46,0,0,1,1.28,1.69q-.06,18.35,0,36.71c0,1.23-.33,1.8-1.57,2.12-4,1-8,2.19-12,3.26a2.42,2.42,0,0,1-1.36-.07q-11.72-4.29-23.4-8.63a.87.87,0,0,1-.53-.5Z"/><path class="cls-2" d="M111.29,85.92h-3.38V83.09h3.32c0-1.24,0-2.38,0-3.52.14-3.87,2.5-6.54,6.23-6.7,3-.12,3,.14,2.64,3.13-.5-.07-1-.16-1.49-.2-2.45-.23-3.78.84-4,3.28-.09,1.23,0,2.48,0,3.84h7.85c0-1.27,0-2.54,0-3.81A6.47,6.47,0,0,1,130,72.88c1.11.16,1.49.6,1.35,1.67a11.14,11.14,0,0,0,0,1.42c-.87-.08-1.58-.21-2.29-.2a2.87,2.87,0,0,0-3.1,2.64,12.42,12.42,0,0,0-.1,1.93c0,.85,0,1.7,0,2.66h4.59v2.88h-4.6v16c0,1.78,0,1.78-1.73,1.77-.51,0-1,0-1.65-.08V86h-7.88v1.35c0,4.89,0,9.79,0,14.68,0,1.21-.28,1.77-1.56,1.59a14.88,14.88,0,0,0-1.78,0Z"/><path class="cls-2" d="M92.48,74.48c6.73,0,11.54,3.92,12.9,10.57,1,4.81.51,9.44-2.29,13.55-3.1,4.56-8.72,6.41-14.49,5.06A12.91,12.91,0,0,1,79,93.06a19.85,19.85,0,0,1,.24-8.3C80.92,78.14,85.67,74.49,92.48,74.48Zm9.86,14.77c-.25-1.56-.39-3.15-.78-4.67-1-3.67-3.25-6.15-7.06-6.84s-7.2.23-9.66,3.4c-2.76,3.57-3,7.71-2.1,11.9.86,3.92,3.13,6.82,7.28,7.61,3.87.74,7.38,0,9.9-3.35A13.87,13.87,0,0,0,102.34,89.25Z"/><path class="cls-2" d="M175.62,94.15H161.41c-.06,2.47.59,4.5,2.59,5.92,2.29,1.63,5.34,1.33,10.07-.91.79,2.07.37,3.07-1.59,3.91a13.27,13.27,0,0,1-7.2.82,7.73,7.73,0,0,1-6.41-5,12.94,12.94,0,0,1,.7-12,8.94,8.94,0,0,1,10-4.08c3.34.77,5.63,3.63,6,7.64C175.72,91.64,175.62,92.8,175.62,94.15Zm-3.43-2.94c0-2.08-.51-3.84-2.23-4.95a4.93,4.93,0,0,0-5.48,0,6.07,6.07,0,0,0-3,4.94Z"/><path class="cls-2" d="M155.54,86.63a25.78,25.78,0,0,0-5-1.08c-3.64,0-6.35,2.64-6.78,6.43a12.79,12.79,0,0,0,0,3.33c.79,5,5.74,7.31,10.4,4.9.38-.19.74-.4,1.12-.6.78,2.24.44,3.14-1.61,3.81-7.22,2.36-13.5-2.1-13.51-9.43,0-3.46.81-6.57,3.52-8.89,3.23-2.76,7-3,10.89-1.88a1.22,1.22,0,0,1,1,1.49c-.06.55,0,1.11,0,1.67A.82.82,0,0,1,155.54,86.63Z"/><path class="cls-2" d="M133.55,93.23V84.87c0-1.85,0-1.85,1.91-1.84a2.09,2.09,0,0,0,.25,0c1-.13,1.27.29,1.25,1.24,0,3,0,6.09,0,9.13s0,5.91,0,8.87c0,1-.26,1.46-1.3,1.34a4.44,4.44,0,0,0-1,0c-.86.09-1.11-.31-1.1-1.13C133.57,99.4,133.55,96.31,133.55,93.23Z"/><path class="cls-2" d="M135.19,78a2.06,2.06,0,0,1-2.08-2.25,2.19,2.19,0,0,1,4.37.17A2.16,2.16,0,0,1,135.19,78Z"/><circle class="cls-3" cx="100.12" cy="100.31" r="95.5"/></svg>