<svg id="Capa_1" data-name="Capa 1" xmlns="http://www.w3.org/2000/svg" viewBox="0 0 200 200"><defs><style>.cls-1{fill:#385ca1;}.cls-2{fill:none;stroke:#385ca1;stroke-miterlimit:10;stroke-width:4px;}</style></defs><g id="layer1"><path id="polygon3232" class="cls-1" d="M80.18,58.7l-2-1.89,1.22-2.46L77,55.59l-1.91-1.88.44,2.61-2.44,1.25,2.76.43.44,2.69,1.21-2.41Z"/><path id="polygon3234" class="cls-1" d="M87.25,53.19,88.92,51l-2.65.74-1.51-2.2-.07,2.65L82,53l2.62.95-.1,2.73,1.68-2.15,2.59.93Z"/><path id="polygon3236" class="cls-1" d="M72.1,62.94l-2.31-1.5.71-2.63-2.16,1.67L66.1,59,67,61.48l-2.15,1.67,2.8-.08,1,2.56.72-2.6Z"/><path id="polygon3238" class="cls-1" d="M97.12,51.8l2-1.82-2.74.24-1-2.44-.61,2.59-2.73.26L94.43,52l-.62,2.66,2.06-1.79,2.35,1.39Z"/><path id="polygon3240" class="cls-1" d="M56.41,77.57l2.52-1.09-2.73-.54-.35-2.7-1.37,2.34L51.85,75l1.83,2-1.37,2.34,2.56-1.11,1.85,2Z"/><path id="polygon3242" class="cls-1" d="M52.4,86.52,54.67,85l-2.8,0L51,82.37l-.88,2.56-2.71-.06,2.18,1.58L48.72,89,51,87.45l2.23,1.64Z"/><path id="polygon3244" class="cls-1" d="M65.1,69.25l-2.57-1,.19-2.71-1.8,2.05-2.48-1,1.4,2.26-1.78,2,2.72-.59,1.43,2.32.21-2.66Z"/><path id="polygon3252" class="cls-1" d="M49.64,95.88l1.91-1.94-2.73.5-1.36-2.37-.36,2.66-2.67.45,2.44,1.16L46.5,99l2-2,2.5,1.2Z"/><path id="polygon3272" class="cls-1" d="M48.87,105.61l1.5-2.26-2.6,1L46,102.27l.14,2.69-2.51.94,2.62.67.16,2.68L47.94,107l2.69.72Z"/><path id="polygon3280" class="cls-1" d="M49.3,122.35l1.18,2.44-2,1.8,2.68-.34,1.18,2.42.55-2.68,2.76-.32-2.41-1.29.51-2.63-2,1.87Z"/><path id="polygon3286" class="cls-1" d="M48.81,114l-2.17-1.71.68,2.63L45,116.28l2.72.17.66,2.6,1.07-2.53,2.79.19L50.13,115l1-2.49Z"/><path id="polygon3289" class="cls-1" d="M122.5,54.35,125,55.59l1.91-1.88-.45,2.61,2.45,1.25-2.76.43-.44,2.69-1.22-2.41-2.71.42,2-1.89Z"/><path id="polygon3291" class="cls-1" d="M115.65,51.78l1.51-2.2.07,2.65,2.65.76-2.62.95.09,2.73-1.67-2.15-2.59.93,1.58-2.26L113,51Z"/><path id="polygon3293" class="cls-1" d="M131.41,58.81l2.17,1.67L135.82,59l-.93,2.48L137,63.15l-2.8-.08-1,2.56-.72-2.6-2.74-.09,2.31-1.5Z"/><path id="polygon3295" class="cls-1" d="M105.49,50.22l1-2.44.61,2.59,2.73.26L107.48,52l.63,2.66-2.06-1.79-2.36,1.39,1.1-2.5L102.74,50Z"/><path id="polygon3297" class="cls-1" d="M145.72,75.94l.35-2.7,1.37,2.34,2.63-.56-1.83,2,1.37,2.34L147,78.21l-1.84,2,.31-2.67L143,76.48Z"/><path id="polygon3299" class="cls-1" d="M150,85l.87-2.58.88,2.56,2.71-.06-2.18,1.58L153.2,89l-2.29-1.55-2.23,1.64.83-2.57L147.25,85Z"/><path id="polygon3301" class="cls-1" d="M139.2,65.49l1.8,2.05,2.48-1-1.41,2.26,1.79,2-2.72-.59-1.44,2.32-.2-2.66-2.68-.61,2.56-1Z"/><path id="polygon3303" class="cls-1" d="M153.1,94.44l1.36-2.37.36,2.66,2.67.45-2.44,1.16.37,2.66-2-2-2.5,1.2,1.31-2.36-1.9-1.94Z"/><path id="polygon3305" class="cls-1" d="M154.14,104.35l1.79-2.08-.14,2.69,2.51.94-2.62.67-.16,2.68L154,107l-2.69.72,1.76-2.07-1.5-2.26Z"/><path id="polygon3307" class="cls-1" d="M153.42,126.59l-2.68-.34-1.18,2.42L149,126l-2.77-.32,2.42-1.29-.52-2.63,2,1.87,2.46-1.27-1.17,2.44Z"/><path id="polygon3309" class="cls-1" d="M154.6,114.89l2.3,1.39-2.72.17-.66,2.6-1.07-2.53-2.79.19,2.13-1.7-1-2.49,2.36,1.45,2.16-1.71Z"/><path id="path104" class="cls-1" d="M67.9,121.43l-.17-.25,4.74-7.81,2.71-4.22,3.07-3.23-3.35,6.76-1.82,1.42Zm14.6-6.71,1.14-1.63,1-.27,3.2-6.1.38-4L90,98.83l-.13-.52-2.73,3.43-.67.25-4.93,7.48.7.73-5.09,11.35L80.59,118Zm6.71,1.16L88.7,115l-4.36,7.89-1,4.44h.85L87,124l1.13-5.19Zm17.14-34.36-3.51-3.44V89.41l-2.91,8,4,2.52L97.15,118l1.29,1.12-3.5,7.91,4.38,4.75h6.61l-1.13-2.88,10,3.68h11.33l-2.39-4.13-1.24-3.24-.48-2.45,5.89,7.31h7.26L133,125.68l-3.27-3.32-8.23-18-3.66-1.12-1.06,1.19h-.64l-1.84-4.84-1.84-3.26-2.54-4.09Zm-5.69-22.65a45.52,45.52,0,0,0-41,64.77l17.31-19.92,1.49-.49,6.67-9.4L88,91.32l4.36-6.85L95,82l4.24-6,2.67-2,5,3.57,2.47,4.58,3.15,9.4,3.68,6.53,7.71,3.44,7,14.31,1.7,5.71,1.66,1.22,1.45,1.7,2.7,5.14a45.5,45.5,0,0,0-37.71-70.7Z"/><path id="Fill-1" class="cls-1" d="M133.69,135.24h-2.2l-.51,1.17-.86,2h-1l-.31.67h1.06l-1.27,2.9c-.91,2-2.36,4-3.19,4a.25.25,0,0,1-.28-.27,2.4,2.4,0,0,1,.26-.87c.26-.62.69-1.51,1-2.16a10.71,10.71,0,0,0,1.19-3.17,1.24,1.24,0,0,0-1.36-1.31,4,4,0,0,0-2.77,1.52l.55-1.35h-2.09l-1.69,3.91c-.67,1.4-2.06,3.7-2.91,3.7-.18,0-.26-.11-.26-.29a1.39,1.39,0,0,1,.13-.48c.07-.18,1.08-2.57,1.08-2.57l1.84-4.28h-2.23l-1.78,4.16c-.56,1.29-2,3.47-2.85,3.47-.18,0-.3-.1-.3-.33a3.25,3.25,0,0,1,.3-.94l.93-2.08h0l1.93-4.28h-2.23l-.43,1h0a2.16,2.16,0,0,1-1.76,1.42.76.76,0,0,1-.72-.34,2.2,2.2,0,0,0-2.35-2.21,4.78,4.78,0,0,0-4,2.45,11.58,11.58,0,0,0-1.31,3C102.47,145,101.64,146,101,146c-.17,0-.27-.1-.27-.32a3.21,3.21,0,0,1,.3-.92l1.44-3.14a6.36,6.36,0,0,0,.68-2.24,1.12,1.12,0,0,0-1.21-1.16,4.35,4.35,0,0,0-3.09,1.63,2.38,2.38,0,0,0,0-.49,1,1,0,0,0-1.13-1.14,3.92,3.92,0,0,0-2.84,1.64l.6-1.47h-2l-1.7,3.91c-.81,1.85-2.11,3.7-2.85,3.7-.18,0-.27-.09-.27-.32a6.39,6.39,0,0,1,.53-1.58l2.25-5.23c.17-.39-.91-.63-2.29-.63a6.44,6.44,0,0,0-3.93,1.62,3.54,3.54,0,0,1-1.58.95c-.14,0-.21-.08-.21-.17,0-.32.76-1.22.76-1.9,0-.31-.17-.52-.59-.52a4,4,0,0,0-2.46,1.61l.59-1.44h-2l-1.7,3.91c-.82,1.85-2.15,3.78-2.89,3.78-.17,0-.27-.09-.27-.32a6.18,6.18,0,0,1,.57-1.66l2.25-5.23c.17-.39-.91-.63-2.29-.63a6.85,6.85,0,0,0-5.07,2.83,8.65,8.65,0,0,0-2,4.55A1.54,1.54,0,0,0,70,147.38a3.91,3.91,0,0,0,2.8-1.74c0,.08-.07.35-.07.44,0,.76.3,1.3,1.19,1.3a4,4,0,0,0,2.69-1.75L76,147.22h2.15l2.11-4.87c.69-1.59,1.49-2.42,1.7-2.42a.09.09,0,0,1,.1.1c0,.17-.32.61-.32,1s.23.72.8.72a2.91,2.91,0,0,0,1.44-.52,8.33,8.33,0,0,0-1.83,4.36,1.54,1.54,0,0,0,1.64,1.76c1.17,0,2.24-1.12,2.83-1.86a4,4,0,0,0,0,.52,1.21,1.21,0,0,0,1.24,1.34c.91,0,1.66-.58,2.57-1.72l-.67,1.56h2.2l2-4.66c.88-2,2.08-3.1,2.67-3.1a.27.27,0,0,1,.29.31,2.25,2.25,0,0,1-.18.66l-3,6.79H96L98,142.47c.89-2,1.87-3,2.6-3,.22,0,.31.11.31.36a1.89,1.89,0,0,1-.21.74l-2,4.3a3.52,3.52,0,0,0-.33,1.3,1.17,1.17,0,0,0,1.34,1.24c1.28,0,2.26-1,3.36-2.47v.31a2.18,2.18,0,0,0,2.43,2.21c2,0,3.66-1.43,4.65-3.69a8.47,8.47,0,0,0,.72-2.53,1.5,1.5,0,0,0,.72.16,2,2,0,0,0,.95-.24l-.35.78c-.41.86-.86,1.82-1.19,2.62a4.29,4.29,0,0,0-.39,1.51,1.24,1.24,0,0,0,1.33,1.38,4.54,4.54,0,0,0,3-2.07h0a4.68,4.68,0,0,0-.1.76c0,.66.2,1.3,1.12,1.3,1.07,0,1.89-.78,2.7-1.77l-.68,1.58h2.23l1.77-4.11c1-2.32,2-3.71,3-3.71a.3.3,0,0,1,.31.34,11.52,11.52,0,0,1-1,2.53c-.47,1-.81,1.71-1.05,2.3a4.82,4.82,0,0,0-.39,1.55,1.15,1.15,0,0,0,1.25,1.26c1.28,0,2.59-1.26,3.28-2.24a4.58,4.58,0,0,0-.25,1.43,1.76,1.76,0,0,0,1.85,2,3.36,3.36,0,0,0,2-.69,9.29,9.29,0,0,0,2.1-2.32l-.38-.37a8.77,8.77,0,0,1-1.72,2,2,2,0,0,1-1.14.46c-.45,0-.75-.24-.75-.85a7.88,7.88,0,0,1,.69-2.49s.63-1.42,1.2-2.74c.49-1.12,1-2.21,1.05-2.43h1.44l.3-.67h-1.44ZM71.07,146c-.32,0-.53-.11-.54-.53a10.14,10.14,0,0,1,2-4.64A3.92,3.92,0,0,1,75.49,139l-1.4,3.18C73.05,144.54,71.91,146,71.07,146Zm13.72,0c-.32,0-.54-.11-.54-.53a10.14,10.14,0,0,1,2-4.64A3.91,3.91,0,0,1,89.21,139l-1.4,3.18h0c-1.06,2.44-2.15,3.87-3,3.87Zm22.06-.28c-.49.71-.92.92-1.29.92s-.66-.43-.6-1.07a14.63,14.63,0,0,1,2.26-5.45c.57-.81,1-1.15,1.39-1.15s.57.37.56.84a14.86,14.86,0,0,1-2.32,5.91Z"/><path id="Fill-3" class="cls-1" d="M65.35,140.68a15,15,0,0,0,2.52-.52c3-.83,6.36-2.82,6.36-6.36,0-4.08-4.32-6-9.47-6-5.5,0-10.54,2.44-12.41,6.2a7.2,7.2,0,0,0-.77,3.25,4.48,4.48,0,0,0,5.06,4.67c2.55,0,4.58-1.4,4.58-3.83a.67.67,0,0,0-.76-.68c-.65,0-.82.44-.8.68a3,3,0,0,1-3.06,3.43c-2.26,0-3.21-1.92-3.21-4,0-4.21,3.18-7,6.48-8.2a13,13,0,0,1,4.84-.84c3.73,0,6.79,1.44,6.79,5.27a6.37,6.37,0,0,1-5.94,6.18l.13-.44a23.88,23.88,0,0,1,2.79-6.85c.08-.12.22-.3.37-.49l-.18-.22a8.52,8.52,0,0,0-.83.57c-6.2,4.83-6.39,18.39-14.65,18.39a5.53,5.53,0,0,1-.84-.06,2.87,2.87,0,0,1-2.62-3.05c0-.31.11-.75.11-1a.85.85,0,0,0-.91-.85c-.73,0-1,.58-1,1.42,0,2.42,1.74,3.81,4.47,4.07.3,0,.6,0,.93,0,6.44,0,10.4-4.86,12.07-10.76"/><path id="rect111" class="cls-1" d="M145.75,133.92,143,140h-6l-1.77,3.83h6l-2.79,6h3.83l2.79-6h6l1.77-3.83h-6l2.79-6Z"/></g><circle class="cls-2" cx="100.96" cy="99.61" r="95.5"/></svg>