<svg id="Capa_1" data-name="Capa 1" xmlns="http://www.w3.org/2000/svg" viewBox="0 0 200 200"><defs><style>.cls-1{fill:#211915;}.cls-2{fill:none;stroke:#211915;stroke-miterlimit:10;stroke-width:4px;}.cls-3{fill:#da9500;}.cls-4{fill:#ba315d;}.cls-5{fill:#522d84;}.cls-6{fill:#413387;}.cls-7{fill:#2c61a6;}.cls-8{fill:#2d975b;}</style></defs><path class="cls-1" d="M59.94,121.56v25.11H55.38v-2.12a7,7,0,0,1-5.81,2.58c-5.63,0-8.86-4.77-8.86-9.54s3.23-9.54,8.86-9.54a6.92,6.92,0,0,1,5.81,2.58v-9.07Zm-4.77,16c0-2.8-1.76-5.16-4.88-5.16a5.17,5.17,0,0,0,0,10.33C53.41,142.76,55.17,140.39,55.17,137.59Z"/><path class="cls-1" d="M81.5,139.35H68a5,5,0,0,0,5.17,3.73,5.31,5.31,0,0,0,4-1.79l3.66,2.15a9.51,9.51,0,0,1-7.71,3.69c-6,0-10-4-10-9.54a9.22,9.22,0,0,1,9.29-9.54C78,128.05,82.32,132.18,81.5,139.35Zm-4.45-3.52a4.3,4.3,0,0,0-4.52-3.73A4.53,4.53,0,0,0,68,135.83Z"/><path class="cls-1" d="M102.09,139.35H88.6a5,5,0,0,0,5.17,3.73,5.29,5.29,0,0,0,4-1.79l3.66,2.15a9.51,9.51,0,0,1-7.71,3.69c-6,0-10-4-10-9.54a9.22,9.22,0,0,1,9.29-9.54C98.54,128.05,102.92,132.18,102.09,139.35Zm-4.45-3.52a4.29,4.29,0,0,0-4.52-3.73,4.53,4.53,0,0,0-4.52,3.73Z"/><path class="cls-1" d="M119.31,142.51v4.16H104.89v-3.19l8.33-10.84h-8v-4.16H119v3.19l-8.36,10.84Z"/><path class="cls-1" d="M140.34,139.35H126.85a5,5,0,0,0,5.16,3.73,5.33,5.33,0,0,0,4.06-1.79l3.66,2.15a9.51,9.51,0,0,1-7.72,3.69c-6,0-10-4-10-9.54a9.21,9.21,0,0,1,9.29-9.54C136.79,128.05,141.16,132.18,140.34,139.35Zm-4.45-3.52a4.3,4.3,0,0,0-4.52-3.73,4.52,4.52,0,0,0-4.52,3.73Z"/><path class="cls-1" d="M154.29,128.05V133c-5.38-.65-6.06,2.8-6.06,6.17v7.5h-4.56V128.48h4.56v3A7.23,7.23,0,0,1,154.29,128.05Z"/><circle class="cls-2" cx="99.96" cy="100.35" r="95.5"/><rect class="cls-3" x="42.91" y="101.54" width="23.74" height="13.98"/><rect class="cls-4" x="71.66" y="101.54" width="23.74" height="13.98"/><rect class="cls-3" x="71.66" y="82.95" width="23.74" height="13.98"/><rect class="cls-3" x="71.66" y="63.56" width="23.74" height="13.98"/><rect class="cls-5" x="100.4" y="101.54" width="23.74" height="13.98"/><rect class="cls-6" x="100.4" y="82.95" width="23.74" height="13.98"/><rect class="cls-7" x="128.36" y="101.54" width="23.74" height="13.98"/><rect class="cls-7" x="128.36" y="82.95" width="23.74" height="13.98"/><rect class="cls-8" x="128.36" y="63.56" width="23.74" height="13.98"/><rect class="cls-8" x="128.36" y="44.18" width="23.74" height="13.98"/></svg>