<svg id="Capa_1" data-name="Capa 1" xmlns="http://www.w3.org/2000/svg" viewBox="0 0 200 200"><defs><style>.cls-1{fill:none;stroke:#66a7d3;stroke-miterlimit:10;stroke-width:4px;}.cls-2{fill:#5ea5dd;}.cls-3{fill:#2b3340;}</style></defs><circle class="cls-1" cx="99.97" cy="100.28" r="95.5"/><path class="cls-2" d="M103.78,158c-1.07,0-2.15,0-3.22,0-1.48-.08-3-.14-4.44-.25A76,76,0,0,1,84.47,156a78.94,78.94,0,0,1-34.92-18.19c-.94-.83-1.83-1.69-2.74-2.55a1.86,1.86,0,0,1-.51-.73,1,1,0,0,1,.19-1.07.94.94,0,0,1,1.07-.25,6.53,6.53,0,0,1,.7.35,104.93,104.93,0,0,0,31.26,12.92,112.67,112.67,0,0,0,11.22,2,102.11,102.11,0,0,0,16.3.73,85.11,85.11,0,0,0,8.74-.73,105.71,105.71,0,0,0,20-4.54,93.6,93.6,0,0,0,10-3.93,2.26,2.26,0,0,1,1.61-.22,1.67,1.67,0,0,1,1.08,2.37,3,3,0,0,1-.89,1,60.29,60.29,0,0,1-10,6.33,79,79,0,0,1-21.06,7.12A92.87,92.87,0,0,1,103.78,158Z"/><path class="cls-2" d="M150,131.74a22.55,22.55,0,0,1,5.24.62,7.82,7.82,0,0,1,1.4.51,1.8,1.8,0,0,1,1.1,1.48,10.45,10.45,0,0,1,.08,2.31,29.47,29.47,0,0,1-4.14,13,17.85,17.85,0,0,1-3.12,3.85,2.28,2.28,0,0,1-.86.54.63.63,0,0,1-.86-.65,2.83,2.83,0,0,1,.19-.8c.94-2.53,1.85-5,2.58-7.64a27,27,0,0,0,.92-4.36,8,8,0,0,0,0-1.62,2.1,2.1,0,0,0-1.5-2,10.3,10.3,0,0,0-2.59-.48,42.41,42.41,0,0,0-7.39.32l-3.26.4a.8.8,0,0,1-.86-.32.9.9,0,0,1,.08-1,2.64,2.64,0,0,1,.81-.75,18.28,18.28,0,0,1,6.59-2.85A31.35,31.35,0,0,1,150,131.74Z"/><path class="cls-2" d="M119,60.49c.71-.43,1.45-.88,2.21-1.28a12.78,12.78,0,0,1,6.45-1.42,5.67,5.67,0,0,1,5.83,5.68c0,.31,0,.63,0,1V79.16c0,1.28-.17,1.45-1.45,1.45H128.6a5.16,5.16,0,0,1-.68,0,.78.78,0,0,1-.68-.66,4.85,4.85,0,0,1-.06-.93V65.83a4.8,4.8,0,0,0-.17-1.56,2.14,2.14,0,0,0-1.93-1.57,10.07,10.07,0,0,0-4.89.94.47.47,0,0,0-.34.51V79.1a3.78,3.78,0,0,1-.06.82.68.68,0,0,1-.71.69c-.43,0-.85,0-1.31,0h-3c-1.05,0-1.28-.25-1.28-1.3V65.89a6.14,6.14,0,0,0-.14-1.48,2.15,2.15,0,0,0-2-1.71,10,10,0,0,0-5,1,.45.45,0,0,0-.31.54V79.36c0,1-.23,1.27-1.28,1.27H101c-1,0-1.25-.28-1.25-1.25V59.66a2.71,2.71,0,0,1,.09-.68.82.82,0,0,1,.79-.54h3.55a1,1,0,0,1,1,.8c.14.4.23.77.37,1.19.28,0,.45-.2.65-.31A14.62,14.62,0,0,1,111.24,58a10.54,10.54,0,0,1,4.26,0,5.33,5.33,0,0,1,3.3,2.21.69.69,0,0,0,.17.2s0,0,0,.09Z"/><path class="cls-2" d="M77,61.57a.84.84,0,0,0,.48-.34,18.61,18.61,0,0,1,1.62-1.45,7.51,7.51,0,0,1,5.17-1.56c.74,0,1,.25,1,1,.06,1,0,2,0,2.93a5.61,5.61,0,0,1,0,1.16.83.83,0,0,1-.83.77,7.49,7.49,0,0,1-1.16,0,13.55,13.55,0,0,0-5.54.8c-.4.14-.4.42-.4.74V79.19a5.94,5.94,0,0,1,0,.73.69.69,0,0,1-.68.66,4.43,4.43,0,0,1-.63,0H72.34a4.43,4.43,0,0,1-.63,0,.77.77,0,0,1-.68-.71,5.23,5.23,0,0,1,0-.68V59.86c0-1.3.15-1.45,1.45-1.45h2.73a1.13,1.13,0,0,1,1.28,1c.2.71.37,1.42.54,2.19Z"/><path class="cls-2" d="M88.08,69.47V59.38c0-.68.29-.94,1-1,1.47,0,3,0,4.43,0,.65,0,.85.2.91.86a6,6,0,0,1,0,.74V78.93c0,.31,0,.62-.06.94a.7.7,0,0,1-.68.65,2.58,2.58,0,0,1-.48,0h-4a1.75,1.75,0,0,1-.4,0,.82.82,0,0,1-.77-.74,5.16,5.16,0,0,1,0-.68c0-3.15,0-6.39,0-9.63Zm3.3-21.23a3.53,3.53,0,0,1,1.33.2A3.22,3.22,0,0,1,94.9,52a3.17,3.17,0,0,1-2.7,2.9,5.51,5.51,0,0,1-1.9,0,3.18,3.18,0,0,1-2.7-3.55C87.77,49.35,89.1,48.24,91.38,48.24Z"/><path class="cls-2" d="M66.8,67.14a12.71,12.71,0,0,0-1.11-4.26A8.18,8.18,0,0,0,60,58a10,10,0,0,0-8.5,1.9,2.56,2.56,0,0,1-.59.43c-.06,0-.12-.06-.12-.09-.08-.28-.14-.57-.23-.85a1.12,1.12,0,0,0-1.27-1c-.86,0-1.74,0-2.59,0A2,2,0,0,0,45,59c0,9.95,0,19.92,0,29.84a1.59,1.59,0,0,0,1.59.68c1,0,2.05,0,3.07,0,1.79,0,1.79,0,1.79-1.76v-8.1c0-.2-.08-.43.12-.6a9.51,9.51,0,0,0,4.94,2A8.35,8.35,0,0,0,63.22,79a10.54,10.54,0,0,0,3-4.75,17.48,17.48,0,0,0,.63-7.07ZM60,73a4.38,4.38,0,0,1-1.31,2.27,4,4,0,0,1-2.61,1,7.87,7.87,0,0,1-4.15-.91.81.81,0,0,1-.48-.8V69.44c0-1.71,0-3.41,0-5.12a.87.87,0,0,1,.56-.88,7.7,7.7,0,0,1,4.89-.74,3.49,3.49,0,0,1,2.7,2,7.91,7.91,0,0,1,.74,2.9A14.23,14.23,0,0,1,60,73Z"/><path class="cls-2" d="M143.89,71.31a18.88,18.88,0,0,0,6.45.09,10.33,10.33,0,0,0,3.55-1.14,5.25,5.25,0,0,0,2.61-3.18,6.77,6.77,0,0,0-4.26-8.52,12.59,12.59,0,0,0-5.65-.54,9.7,9.7,0,0,0-8.76,7.27,15.74,15.74,0,0,0-.05,8.87A8.89,8.89,0,0,0,145.05,81a17.38,17.38,0,0,0,6.51,0,16.94,16.94,0,0,0,3.35-.91,1.29,1.29,0,0,0,1-1.39c0-.68,0-1.39,0-2.1s-.34-1.11-1.17-.91-1.62.37-2.44.54a14.11,14.11,0,0,1-5.34.06,4.77,4.77,0,0,1-3.84-5.12C143.35,71.23,143.63,71.26,143.89,71.31ZM143.18,67a7.31,7.31,0,0,1,.54-2,4.22,4.22,0,0,1,4.46-2.67,4.36,4.36,0,0,1,1.5.34A2.15,2.15,0,0,1,151,64.47a3.19,3.19,0,0,1-.08,1.47,2.55,2.55,0,0,1-2.16,1.65,5.75,5.75,0,0,1-1.85.14,22.12,22.12,0,0,1-3.35-.25c-.43-.06-.43-.06-.37-.51Z"/><path class="cls-3" d="M57.92,115.52c.17-.59.35-1.14.53-1.73,1.34-4.54,2.69-9.06,4-13.6l.18-.53a1.18,1.18,0,0,1,1.17-.85H68.3c1.11,0,1.34.32,1,1.38l-1.76,4.66c-2,5.1-3.92,10.23-5.89,15.33-.06.18-.14.35-.2.53a1.44,1.44,0,0,1-1.47,1q-1.94,0-3.87,0a1.65,1.65,0,0,1-1.76-1.21c-.73-1.93-1.49-3.89-2.23-5.83-1.76-4.6-3.54-9.21-5.3-13.84a4.63,4.63,0,0,1-.38-1.14c-.09-.59.11-.88.7-.88,1.67,0,3.34,0,5,0,.71,0,1,.47,1.21,1.08.32,1.12.64,2.26,1,3.38,1.2,4.07,2.38,8.18,3.58,12.25,0,0,0,0,.06,0Z"/><path class="cls-3" d="M78.67,110.24V120.8a.83.83,0,0,1-.9.88c-1.59,0-3.14,0-4.72,0a.82.82,0,0,1-.91-.85,3.51,3.51,0,0,1,0-.56V100c0-.91.26-1.17,1.17-1.17H77.5c.91,0,1.17.26,1.17,1.17Z"/><path class="cls-3" d="M75.42,88.28a3.59,3.59,0,0,1,1.73.3,3.08,3.08,0,0,1,2,2.72c.24,2.67-1.55,4-3.93,4a5.25,5.25,0,0,1-1-.12,3.48,3.48,0,0,1,.55-6.83A2.17,2.17,0,0,1,75.42,88.28Z"/><path class="cls-3" d="M155.37,112.35Zm0-3.93v.12a.42.42,0,0,1-.12-.44v-.23a0,0,0,0,1,0,0h0v-.29h.06s0,0,0-.06a11.19,11.19,0,0,0-.32-1.65,9.87,9.87,0,0,0-7.48-7.41,14.46,14.46,0,0,0-5.6-.21,9.63,9.63,0,0,0-8.18,6.45,15.66,15.66,0,0,0,0,11.08,9.34,9.34,0,0,0,6.89,6.16,14.39,14.39,0,0,0,5.51.29c6.16-.73,8.71-5.39,9.12-9.44h0v-.41c0-.17-.06-.32.12-.44V112a.17.17,0,0,1,.06-.11v-3.38s0,0,0-.06Zm-7,5.58a5.35,5.35,0,0,1-.82,1.7,3.82,3.82,0,0,1-2.78,1.58,5.27,5.27,0,0,1-1.68-.06,3.76,3.76,0,0,1-2.75-2.2,8.4,8.4,0,0,1-.79-2.9,16,16,0,0,1,.23-5.16,6.71,6.71,0,0,1,.79-1.94,3.81,3.81,0,0,1,3-1.81,5.2,5.2,0,0,1,1.67.06,3.73,3.73,0,0,1,2.67,2.08,8.62,8.62,0,0,1,.85,3.31,13.89,13.89,0,0,1,0,1.58,10.77,10.77,0,0,1-.41,3.76ZM104,88.49H99.93c-1.11,0-1.32.2-1.32,1.32v9.5c0,.2.09.41-.06.61a1.49,1.49,0,0,1-.61-.32A9.76,9.76,0,0,0,88.47,99a9.27,9.27,0,0,0-4.58,5.22,16.64,16.64,0,0,0-1,6.78,14,14,0,0,0,1.46,6.24,8.49,8.49,0,0,0,5.07,4.49,9.53,9.53,0,0,0,8.92-1.53c.2-.12.32-.32.58-.38a4,4,0,0,1,.33,1,1,1,0,0,0,1,.79H101c1.05,0,2.08,0,3.1,0,.82,0,1.06-.27,1.09-1.12V89.6C105.12,88.69,104.88,88.49,104,88.49Zm-5.36,21.58v5.33a.77.77,0,0,1-.47.82,7.2,7.2,0,0,1-4.6.88,4,4,0,0,1-3.14-2.17,8.08,8.08,0,0,1-.82-3,15.25,15.25,0,0,1,.35-5.51,6.62,6.62,0,0,1,.59-1.44,3.79,3.79,0,0,1,3.08-2,8.86,8.86,0,0,1,4.51.79.81.81,0,0,1,.53.85c-.06,1.82,0,3.58,0,5.37Z"/><path class="cls-3" d="M121.71,112.38a12,12,0,0,0,4.93-1.26,5.45,5.45,0,0,0,3-3.9,8.12,8.12,0,0,0,0-3.22,6.8,6.8,0,0,0-4.81-5.13,12.94,12.94,0,0,0-4.37-.56c-4.92.12-8.67,2.61-10.2,7.53a16.25,16.25,0,0,0,.12,9.83,9,9,0,0,0,6.71,6.27,15.94,15.94,0,0,0,4.4.44,18.68,18.68,0,0,0,6.3-1.2,1.31,1.31,0,0,0,1.06-1.53v-2.11c0-.85-.38-1.14-1.23-.94-.65.18-1.26.33-1.91.47a14.84,14.84,0,0,1-6,.21,4.6,4.6,0,0,1-3.87-3.52,11.76,11.76,0,0,1-.32-1.79.91.91,0,0,1,.41.06A23,23,0,0,0,121.71,112.38Zm-6.12-4.69a7.09,7.09,0,0,1,1.17-3.19,4.38,4.38,0,0,1,4.28-1.67c.14,0,.26,0,.41,0,2,.33,2.55,2,2.17,3.55a2.6,2.6,0,0,1-2.35,1.82,7.81,7.81,0,0,1-1.82.15,27.71,27.71,0,0,1-3.54-.3c-.27,0-.38-.14-.32-.41Z"/></svg>