<svg id="Capa_1" data-name="Capa 1" xmlns="http://www.w3.org/2000/svg" viewBox="0 0 200 200"><defs><style>.cls-1{fill:#0d307b;}.cls-2{fill:none;stroke:#0d307b;stroke-miterlimit:10;stroke-width:4px;}</style></defs><path class="cls-1" d="M123.59,136.36c-10.54,0-20-5.51-26.55-14.27v5.19c.95,11,13,19.76,26.55,19.76s25.71-8.58,26.54-19.76v-5.19C143.6,130.85,134.13,136.36,123.59,136.36Z"/><path class="cls-1" d="M146.54,60.89c-7,0-13.25,3.6-17.58,9.33V66.83c.62-7.17,8.63-12.93,17.58-12.93s17,5.62,17.58,12.93v3.39C159.79,64.49,153.52,60.89,146.54,60.89Z"/><circle class="cls-1" cx="71.47" cy="66.53" r="5.7"/><path class="cls-1" d="M146.07,115.43a18.34,18.34,0,0,1-13.24-5.73h0a19.51,19.51,0,0,1-5.4-13.52h0V93.1a19.55,19.55,0,0,1,5.4-13.52h0a18.33,18.33,0,0,1,13.24-5.72h0a18.33,18.33,0,0,1,13.24,5.72h0a19.55,19.55,0,0,1,5.4,13.52h0v3.08h0a19.51,19.51,0,0,1-5.4,13.52h0a18.31,18.31,0,0,1-13.23,5.73h0Zm-6.26-29.16a9.84,9.84,0,0,0-2.72,6.83h0v3.08a9.82,9.82,0,0,0,2.71,6.84h0a8.65,8.65,0,0,0,6.26,2.75h0a8.65,8.65,0,0,0,6.26-2.75h0a9.87,9.87,0,0,0,2.72-6.84h0V93.1a9.84,9.84,0,0,0-2.72-6.83h0a8.61,8.61,0,0,0-6.26-2.75h0a8.61,8.61,0,0,0-6.26,2.75Z"/><path class="cls-1" d="M59,105.85a12.84,12.84,0,0,1-5.57,1.44s-5.19.43-6.66-2a6.15,6.15,0,0,1-1-3.36V84.49c11.23,0,13.66.41,13.63-8.58H45.79V67h-.31c-5.19,0-9.41,4.2-9.41,8.75V102a13.51,13.51,0,0,0,13.48,13.48h1.19C58.51,115.33,59,110.93,59,105.85Z"/><path class="cls-1" d="M83.88,107.58s-5.51.92-7-1.48a8,8,0,0,1-1-3.87V81.49C75.44,78.63,72.65,77,66.51,77H66.2v27.22c0,7.45,5.17,10.89,10.31,11.17h2C83.13,115.21,83.91,112.37,83.88,107.58Z"/><path class="cls-1" d="M120.22,95.34a15.77,15.77,0,0,0-6.63-1h-.31v11.8c-.71,1-3,.89-4.69.89a12.19,12.19,0,0,1-9.1-3.93,9.86,9.86,0,0,1-2.6-6.62,1,1,0,0,1,0-.17s0-.06,0-.1V93.1a9.43,9.43,0,0,1,.53-3.1,9.65,9.65,0,0,1,2.29-3.66c.56-.56,1.18-1.14,1.84-1.69a10.82,10.82,0,0,1,3-1.77,5.1,5.1,0,0,1,.63-.2h0a19.92,19.92,0,0,1,5.53-.76,17.65,17.65,0,0,1,9.71,2.67A14.19,14.19,0,0,1,122.22,86V83a9.3,9.3,0,0,0-7.07-8.67,31.47,31.47,0,0,0-5.08-.42h-2.58c-10.62,0-20.24,8.63-20.26,19.24v3.08a19.29,19.29,0,0,0,19.24,19.25h3.63a14.12,14.12,0,0,0,2.17-.18,18.61,18.61,0,0,0,5.36-1.56c3.2-1.88,5.4-4.58,5.31-9.79V98.75A4.34,4.34,0,0,0,120.22,95.34Z"/><circle class="cls-2" cx="100.39" cy="100.47" r="95.5"/></svg>