<svg id="Capa_1" data-name="Capa 1" xmlns="http://www.w3.org/2000/svg" viewBox="0 0 200 200"><defs><style>.cls-1{fill:#211915;}.cls-2{fill:#be0811;}.cls-3{fill:none;stroke:#211915;stroke-miterlimit:10;stroke-width:4px;}</style></defs><path class="cls-1" d="M45.13,103.3H55.66a15.49,15.49,0,0,1-5.31,9.8Q45.75,117,37.89,117q-8.74,0-13.94-5.48a19,19,0,0,1-5.21-13.6A20.63,20.63,0,0,1,23.88,83.7Q29,77.9,37.58,77.9q8.31,0,13.42,5.46C54.41,87,55.92,92,55.92,98.24c0,.52,0,1.23,0,2.14H30.6c0,2.36.5,4.05,1.41,5.05s4.18,2.36,6.22,2.36C41.17,107.79,44.61,106.38,45.13,103.3ZM33.73,75.56,39.54,68l11,0L41,75.65ZM44.11,93a6.28,6.28,0,0,0-2.3-5c-1.19-1-2.61-1.14-4.53-1.14-3.09,0-6.82,2-6.82,6.14Z"/><path class="cls-1" d="M91.81,116.32H78.55l-7.12-10.57-7.74,10.57H51.18l13.57-20L52.59,78.63h12.8s6.07,8.17,6.26,8.62c.23-.42,5.68-8.62,5.68-8.62H90.46L78.18,96.15Z"/><path class="cls-1" d="M107.44,78.61l-2.35,37.71H94.29L92.24,78.61Z"/><path class="cls-1" d="M134.27,78.73V87h-7v17c0,1.64.4,2.4,1,2.71a4,4,0,0,0,1.87.4,20.52,20.52,0,0,0,4.15-.74V116a38.51,38.51,0,0,1-7.43.57c-3.94,0-7-1.06-8.85-2.74s-2.6-4-2.6-7.7l0-3.82V87H110v-8.3h5.71l-.06-10.61,11.61,0V78.73Z"/><path class="cls-1" d="M153.79,117q-8.72,0-13.84-5.81a20,20,0,0,1-5.12-13.65,19.52,19.52,0,0,1,5.35-14q5.34-5.61,13.92-5.61T168,83.43a19.38,19.38,0,0,1,5.25,13.88,19.63,19.63,0,0,1-5.32,14Q162.6,117,153.79,117Zm.42-8.93c7.36,0,7.6-8.42,7.6-11,0-3.52-.59-9.93-7.54-9.93s-7.55,6.64-7.55,10.3C146.72,101.73,147.46,108.06,154.21,108.06Z"/><path class="cls-2" d="M106.79,124.9a7,7,0,1,1-7-7A7,7,0,0,1,106.79,124.9Z"/><path class="cls-1" d="M178,87.26a4.74,4.74,0,1,1,4.75-4.74A4.74,4.74,0,0,1,178,87.26Zm0-8.74a4,4,0,1,0,4,4,4,4,0,0,0-4-4Z"/><path class="cls-1" d="M177.1,82.93v1.88H176V80.06h2.09a2.63,2.63,0,0,1,.93.13,1.21,1.21,0,0,1,.58.5,1.46,1.46,0,0,1,.23.79,1.27,1.27,0,0,1-.83,1.23l.88,2.1h-1.23l-.73-1.88Zm0-2v1.21h.69a1.79,1.79,0,0,0,.48-.05.53.53,0,0,0,.27-.21.61.61,0,0,0,.12-.37.55.55,0,0,0-.12-.35.49.49,0,0,0-.26-.2,2.87,2.87,0,0,0-.52,0Z"/><circle class="cls-3" cx="100.73" cy="99.93" r="95.5"/></svg>