<svg id="Capa_1" data-name="Capa 1" xmlns="http://www.w3.org/2000/svg" viewBox="0 0 200 200"><defs><style>.cls-1{fill:#803587;}.cls-2{fill:#d58536;}.cls-3{fill:#6babcc;}.cls-4{fill:#83448b;}.cls-5{fill:none;stroke:#803587;stroke-miterlimit:10;stroke-width:4px;}</style></defs><path class="cls-1" d="M93.06,115a17.35,17.35,0,0,0-2.64,2,17.55,17.55,0,0,1-7,3.42,7.09,7.09,0,0,1-4.65-.34,5,5,0,0,1-2.11-2.2c-.26-.49-.5-.52-1-.18a14.91,14.91,0,0,1-8,2.89,22.9,22.9,0,0,1-4.14,0,4.66,4.66,0,0,1-1.86-.66,1.35,1.35,0,0,1-.68-1c-.2-1-.47-2-.64-3a4.31,4.31,0,0,1,.73-2.61c1.93-3.91,4.13-7.68,6.19-11.53C69.09,98.39,71,95,72.81,91.52c1.26-2.35,2.52-4.69,3.77-7A2.4,2.4,0,0,1,79,83.09c2.79,0,5.57,0,8.35,0,1.11,0,1.25.22.72,1.2-3.16,5.83-6.35,11.65-9.47,17.51-1.56,2.91-3.29,5.74-4.58,8.79a7.66,7.66,0,0,0-.56,2.2,2.74,2.74,0,0,0,1.74,2.84c.74.31.9.23,1-.55a26.28,26.28,0,0,1,7.2-15.88,36,36,0,0,1,7.93-6.35,11,11,0,0,1,7.29-1.49,4.32,4.32,0,0,1,4,3.79,2.61,2.61,0,0,0,.06.27c0,.12,0,.3.21.32s.23-.14.29-.25c.36-.67.76-1.32,1.07-2a1.74,1.74,0,0,1,1.76-1.17c3,0,6,0,9,0,.89,0,1,.18.58,1-1.66,3.1-3.34,6.19-5,9.28-1.32,2.44-2.63,4.9-3.94,7.34a4.33,4.33,0,0,0-.43,1.73c0,.41,0,.82.44,1a1,1,0,0,0,1.14-.24,13.7,13.7,0,0,1,2.43-2.13,8.47,8.47,0,0,1,7.37-1.14c.77.24,1,.77.53,1.51a10,10,0,0,0-1.21,2.54,1.31,1.31,0,0,0,.91,1.79,4.43,4.43,0,0,0,5.29-2.69,1.81,1.81,0,0,0-1.1-2.2,18.77,18.77,0,0,0-3.24-1.35,14.14,14.14,0,0,1-2.67-1.26,5,5,0,0,1-2-6.2c.93-2.7,2.94-4.57,5.19-6.18A22.3,22.3,0,0,1,128,91.59a18.76,18.76,0,0,1,6.51-.24,13,13,0,0,1,4.81,1.56,3.28,3.28,0,0,1,1.55,1.86c.16.51.4.57.75.13a8.88,8.88,0,0,0,.95-1.51c1.95-3.73,3.91-7.45,5.78-11.21a2.42,2.42,0,0,1,2.58-1.58c2.64.18,5.29.05,7.94,0,1.08,0,1.27.27.76,1.22q-3.5,6.52-7,13.06c-.2.38-.73.91-.41,1.19s.74-.34,1.1-.59a23.68,23.68,0,0,1,7.71-4,9,9,0,0,1,3.62-.26,3.64,3.64,0,0,1,3.2,3.8,12.57,12.57,0,0,1-1.67,5.41c-1.71,3.58-3.85,6.95-5.44,10.6a5.1,5.1,0,0,0-.47,2,1.9,1.9,0,0,0,1.59,2.16,4.61,4.61,0,0,0,1.92.14c.32,0,.67-.11.86.22s0,.66-.17,1a8.51,8.51,0,0,1-4.44,3.43,16.55,16.55,0,0,1-8.23.68,4.51,4.51,0,0,1-3.58-6,38.19,38.19,0,0,1,3.06-6.54q1.8-3.47,3.55-6.93a5,5,0,0,0,.37-1,1.11,1.11,0,0,0-1.47-1.4,9.36,9.36,0,0,0-3.44,2.24c-1.91,1.81-3,4.15-4.18,6.44q-3.06,5.94-6.08,11.9a2.34,2.34,0,0,1-2.35,1.43c-2.71,0-5.43,0-8.14,0-1,0-1.11-.23-.68-1.1A16.32,16.32,0,0,0,130,117a32.42,32.42,0,0,1-4.64,2.12c-4.82,1.59-9.7,2.25-14.7.92a5.61,5.61,0,0,1-2.7-1.29,1.44,1.44,0,0,0-1.78-.22,18.57,18.57,0,0,1-5.36,1.92,11.38,11.38,0,0,1-5.19-.06,3.51,3.51,0,0,1-2.53-3A10.32,10.32,0,0,1,93.06,115Zm6.6-14.2a1.94,1.94,0,0,0-2.37-2.2A7.59,7.59,0,0,0,93.42,101a21.4,21.4,0,0,0-4.11,6.07,10.83,10.83,0,0,0-1.07,3.61c-.17,1.76.86,2.8,2.48,2.42a5,5,0,0,0,1.88-.82,17.79,17.79,0,0,0,6.08-8A12.84,12.84,0,0,0,99.66,100.84Zm38.85.19c-.54,0-.8.31-1.12.5a8.61,8.61,0,0,1-6.74,1.12c-1.19-.27-1.4-.74-.83-1.81a20.56,20.56,0,0,0,1.05-2.1c.54-1.37-.1-2.22-1.58-2a4.84,4.84,0,0,0-3.77,2.58,1.84,1.84,0,0,0,.63,2.73,13,13,0,0,0,3.22,1.36c2.12.73,4.22,1.47,5.56,3.46.37.55.57,0,.71-.23C136.6,104.77,137.54,102.93,138.51,101Z"/><path class="cls-1" d="M38.75,102c1.33-2.57,2.68-5.13,4-7.7,1.5-2.9,3-5.82,4.48-8.7,2.2-4.11,4.06-8.41,6.81-12.2a30.65,30.65,0,0,1,14.9-11.2,12.52,12.52,0,0,1,4.2-.71l45.14,0c.31,0,.62,0,.76.33a1,1,0,0,1-.21,1A12.94,12.94,0,0,1,117,64.66a85.74,85.74,0,0,1-9.59,7.83,30.57,30.57,0,0,1-11.26,5,15.15,15.15,0,0,1-2.6.32c-.24-.2-.53-.1-.8-.1H65.87a1.61,1.61,0,0,0-.54,0c-.19.08,0,.15.06.24A17.21,17.21,0,0,0,56.31,81a22.14,22.14,0,0,0-4.2,4.34c-.08.09-.23.21-.12.35s.32.13.5,0c.55-.27,1.1-.56,1.67-.81a22.64,22.64,0,0,1,7.69-1.69c4.12-.29,8.23-.1,12.35-.11.23,0,.49,0,.59.24a.65.65,0,0,1-.16.64C71.12,88.59,67,92.35,61.37,94.23a14.17,14.17,0,0,1-5.62.85c-5.44-.41-9.9,1.68-13.82,5.25l-.32.26a3.47,3.47,0,0,0-1.61,1.6s0,.07-.07.08c-.78.37-1.12,1.17-1.7,1.74-.15.15-.24.51-.48.35s0-.4.13-.6.19-.26.24-.4C38.3,102.87,38.76,102.51,38.75,102Z"/><path class="cls-2" d="M42.63,115.76a4.95,4.95,0,1,1-9.89,0,4.84,4.84,0,0,1,4.9-4.89A4.91,4.91,0,0,1,42.63,115.76Z"/><path class="cls-3" d="M88.46,134.18a5.08,5.08,0,0,1-10.15-.09,5.05,5.05,0,0,1,5.21-5A4.92,4.92,0,0,1,88.46,134.18ZM80,134.13a3.4,3.4,0,1,0,3.4-3.56A3.38,3.38,0,0,0,80,134.13Z"/><path class="cls-3" d="M62.64,134.09V130c0-.17-.09-.41.12-.49s.34.1.48.22a31.3,31.3,0,0,1,2.66,3c.34.4.69.8,1,1.21s.66.41,1,0q1.6-1.94,3.22-3.86l.27-.31c.15-.16.31-.31.54-.23s.22.32.22.53v3c0,1.73,0,3.45,0,5.18,0,.45-.07.84-.63.88s-.83-.33-.84-.86c0-1.45,0-2.9,0-4.35,0-.19.11-.46-.15-.54s-.35.19-.48.34L68.12,136c-.53.64-.88.66-1.45,0s-1.26-1.4-1.9-2.09c-.14-.14-.28-.39-.49-.32s-.15.4-.15.61c0,1.31,0,2.62,0,3.94,0,.5-.16.86-.71.91s-.78-.25-.77-.79C62.65,136.9,62.64,135.49,62.64,134.09Z"/><path class="cls-3" d="M95.09,134.14v-3.86c0-.86.39-1.18,1.25-1.14a16.72,16.72,0,0,1,3,.16c2,.46,2.65,2.08,1.54,3.75-.25.38-.13.61.16.88a2.81,2.81,0,0,1,.65,3.72,3,3,0,0,1-2.61,1.41c-1.06.08-2.12,0-3.17,0a.72.72,0,0,1-.81-.81c0-1.38,0-2.76,0-4.14ZM96.63,136c0,.34,0,.69,0,1a.52.52,0,0,0,.49.57,5.79,5.79,0,0,0,2.38-.14,1.38,1.38,0,0,0,1-1.56,1.33,1.33,0,0,0-1.09-1.32,4.53,4.53,0,0,0-1.16-.12C96.65,134.42,96.62,134.45,96.63,136ZM97.89,133a3.7,3.7,0,0,0,1.25-.14,1.19,1.19,0,0,0,.75-1.06,1.11,1.11,0,0,0-.51-1.13,3.58,3.58,0,0,0-2.41-.22.37.37,0,0,0-.25.22,3.08,3.08,0,0,0,0,2C97,133.25,97.51,133,97.89,133Z"/><path class="cls-3" d="M131.93,134.08c0-1.28,0-2.57,0-3.86,0-.8.27-1.1,1.06-1.11,1.42,0,2.85,0,4.27,0,.52,0,1,.12.92.82s-.53.66-1,.65a15.49,15.49,0,0,0-2.89.08.9.9,0,0,0-.83.93,2.44,2.44,0,0,0,0,.27c0,2.79,0,2.48,2.4,2.47l.9,0c.46,0,.84.16.81.71s-.39.65-.87.64c-.78,0-1.56,0-2.34,0s-.93.3-.9,1,.28.9,1,.9h3c.56,0,1,.21,1,.82s-.45.66-.91.66h-4.41c-.92,0-1.14-.23-1.16-1.15C131.91,136.66,131.93,135.37,131.93,134.08Z"/><path class="cls-3" d="M119.24,134.07c0-1.26,0-2.53,0-3.79,0-.55.08-1,.77-1.08s.81.53.81,1c0,1.75.12,3.49,0,5.24a2.45,2.45,0,0,0,0,.27c-.09,1.77.36,2,1.86,1.87.64-.05,1.28,0,1.93,0,.42,0,.72.12.76.6a.7.7,0,0,1-.73.82c-.85,0-1.7,0-2.55,0-.57,0-1.15,0-1.72,0-.85,0-1.07-.23-1.07-1.06v-3.94Z"/><path class="cls-3" d="M109.59,134.08c0-1.33,0-2.67,0-4,0-.41,0-.81.54-.88a.84.84,0,0,1,1,.57,2.66,2.66,0,0,1,.14.88c0,2.23,0,4.46,0,6.69a3.35,3.35,0,0,1-.19,1.22.85.85,0,0,1-1,.51c-.43-.07-.5-.39-.5-.78,0-1.4,0-2.8,0-4.21Z"/><path class="cls-4" d="M65.39,77.93c0-.09-.25-.16-.06-.24a1.61,1.61,0,0,1,.54,0H92.76c.27,0,.56-.1.8.1-2.18.14-4.36,0-6.54,0q-10.17,0-20.34,0C66.25,77.85,65.83,78.06,65.39,77.93Z"/><path class="cls-4" d="M38.75,102c0,.56-.45.92-.63,1.41,0,.14-.19.26-.24.4s-.36.45-.13.6.33-.2.48-.35c.58-.57.92-1.37,1.7-1.74-1.58,1.81-3,3.76-4.37,5.71a20.16,20.16,0,0,1,1.78-3.42c.11.17-.17.36.07.56.17-.22.37-.41-.06-.57A13.84,13.84,0,0,1,38.75,102Z"/><path class="cls-4" d="M40,102.19a3.47,3.47,0,0,1,1.61-1.6Z"/><polygon class="cls-4" points="35.29 108.33 35.33 108.29 35.34 108.33 35.29 108.33"/><path class="cls-1" d="M37.35,104.55c.43.16.23.35.06.57-.24-.2,0-.39-.07-.56Z"/><circle class="cls-5" cx="100.28" cy="100.3" r="95.5"/></svg>