<svg id="Capa_1" data-name="Capa 1" xmlns="http://www.w3.org/2000/svg" viewBox="0 0 200 200"><defs><style>.cls-1{fill:#209ccb;}.cls-2{fill:none;stroke:#209ccb;stroke-miterlimit:10;stroke-width:4px;}</style></defs><path id="path7" class="cls-1" d="M131.78,48.74c3.38-.53,7.12-.6,10.13,1.31,4.33,2.58,6.81,7.25,8.52,11.83,4.81,13.22,5.27,27.67,3.25,41.48-.45,3.54-1.81,7.53-5.27,9.14-2.06.69-4.68.5-6.11-1.31-2.29-2.78-1.57-6.61-1.38-9.92a84.92,84.92,0,0,0,.8-15.77c0-2.4-.83-5-2.89-6.42a5.19,5.19,0,0,0-6,.15c-2.92,1.89-4.84,4.94-6.41,8-3.84,7.91-6,16.5-8.83,24.78a20.37,20.37,0,0,1-7.2,9.87c-4.12,2.9-9.36,3.67-14.3,3.49-6.31-.3-12-4.26-15.3-9.5C76.7,109.18,73,102.24,69,95.51c-1.28-2-3-4.46-5.68-4.17s-3.86,3.4-3.77,5.82c.2,8.3,4.21,15.86,5.64,23.94.5,2.49-.21,5.61-2.72,6.74a12,12,0,0,1-4.66,0c-2.23-.85-3.38-3.15-4.38-5.16a100.21,100.21,0,0,1-6.77-26.16c.16-4.59-.27-9.24.7-13.77,1.33-7.38,3.36-15.2,8.84-20.66,4.72-4.78,12.84-6.21,18.57-2.44,5.55,3.86,9,9.83,12.63,15.36,2.68,4.26,5.17,9.26,10.09,11.31a8.89,8.89,0,0,0,10.21-2.14c1.79-1.84,2.67-4.29,3.62-6.62,2-5,4-10,6.19-15C120,56.26,124.93,50.38,131.78,48.74Z"/><path id="path9" class="cls-1" d="M121.16,135.51a24.5,24.5,0,0,1,2.71,0c.07.91-.05,1.82.08,2.72a23.27,23.27,0,0,1,2.77,0,9.18,9.18,0,0,1-.06,2.4c-.92,0-1.83,0-2.75,0,0,1.93,0,3.87,0,5.81a3.25,3.25,0,0,0,.62,2.39,3.68,3.68,0,0,0,2.35.57,8.13,8.13,0,0,1,0,2.51c-1.51,0-3.17,0-4.4-1a4.74,4.74,0,0,1-1.46-3.72c0-3.61,0-7.22,0-10.84C121,136.11,120.8,135.6,121.16,135.51Z"/><path id="path11" class="cls-1" d="M52.94,139.26c1.37-1.23,3.31-1.38,5.07-1.32a6.4,6.4,0,0,1,4,1.28c1.26-1.3,3.21-1.31,4.9-1.28a5.53,5.53,0,0,1,4.22,1.66,5.09,5.09,0,0,1,.93,3.26c0,2.41,0,4.81,0,7.21a5.87,5.87,0,0,1-.13,1.87c-.89,0-1.79,0-2.68-.05l-.09-.13c-.1-3.13.08-6.27-.1-9.4a1.92,1.92,0,0,0-1.86-1.8c-1.08-.07-2.33-.2-3.21.56-.65.54-.58,1.46-.62,2.23,0,2.48,0,5,0,7.46-.06.35.12.84-.19,1.1a19.28,19.28,0,0,1-2.74,0c0-3.17.07-6.35-.08-9.52a2,2,0,0,0-2.06-1.81,4.85,4.85,0,0,0-2.72.35,1.71,1.71,0,0,0-.86,1.47c-.21,3.19,0,6.38-.13,9.57-.93,0-1.85,0-2.77,0a5.64,5.64,0,0,1-.11-1.36c0-2.65,0-5.31,0-8a4.45,4.45,0,0,1,1.24-3.36Z"/><path id="path13" class="cls-1" d="M78.1,138.22a10.31,10.31,0,0,1,6.47.46c1.87,1,2.34,3.25,2.42,5.17,0,2.11.16,4.42-1,6.28-1.07,1.69-3.26,2.08-5.11,2s-3.79-.2-5-1.6c-1.35-1.68-1.34-4-1.34-6a8.27,8.27,0,0,1,1.25-4.87,4.42,4.42,0,0,1,2.34-1.46m1.21,2.39a2.19,2.19,0,0,0-1.62,1.73,16.13,16.13,0,0,0,0,5.37A2.17,2.17,0,0,0,79,149.38a6.32,6.32,0,0,0,3.37.07,2.11,2.11,0,0,0,1.49-1.66,15.93,15.93,0,0,0,0-5.51,2.23,2.23,0,0,0-1.77-1.7A9.38,9.38,0,0,0,79.31,140.61Z"/><path id="path15" class="cls-1" d="M110.59,138.62c2-1,4.28-.72,6.39-.4.27.1.82,0,.87.4,0,.66,0,1.33,0,2l-.34.13a14.43,14.43,0,0,0-4.63-.29c-.61.1-1.38.47-1.38,1.19s.4,1,.88,1.27c1.7.78,3.62,1.14,5.12,2.31a3.88,3.88,0,0,1,1,4.16c-.64,1.79-2.59,2.64-4.37,2.74a11.84,11.84,0,0,1-5.05-.63,5.86,5.86,0,0,1-.08-2.4c1.92.46,4,1,5.91.34a1.35,1.35,0,0,0,.5-2.33c-1.72-1.05-3.86-1.26-5.5-2.47a3.77,3.77,0,0,1,.69-6Z"/><path id="path17" class="cls-1" d="M130.17,138.77c-.09-.35.29-.55.58-.57a17.22,17.22,0,0,1,6,0,4.44,4.44,0,0,1,3,2.32c.68,1.48.42,3.16.47,4.74s.18,3.22-.52,4.68-2.29,2-3.73,2.16a9.63,9.63,0,0,1-5.33-.76c-2.66-1.49-2.56-6,.16-7.4,2-1,4.35-.71,6.51-.46.05-1-.11-2.28-1.16-2.73-1.93-.75-4-.13-6-.14,0-.62,0-1.24,0-1.85m2,10.17c.8.87,2.1.81,3.19.77a2,2,0,0,0,1.87-1.07,11.09,11.09,0,0,0,.17-2.7,9.6,9.6,0,0,0-4.23-.18A2,2,0,0,0,132.12,148.94Z"/><path id="path19" class="cls-1" d="M143.87,139.35c1.53-1.54,3.88-1.5,5.89-1.36a18.21,18.21,0,0,1,0,2.45c-1.11.19-2.4-.22-3.36.51a2.28,2.28,0,0,0-.68,1.9c-.05,3,0,6,0,9-.94.12-1.89,0-2.83.07-.23-2.44,0-4.92-.1-7.38C142.79,142.8,142.51,140.73,143.87,139.35Z"/><path id="path21" class="cls-1" d="M88.59,138.24a14.12,14.12,0,0,1,3,.07,28.68,28.68,0,0,0,3,10.73,5,5,0,0,0,.63-1.21,28.34,28.34,0,0,0,2.36-9.52,13.43,13.43,0,0,1,3-.07c-.14,4.74-2.13,9.18-4.26,13.33-.15.45-.68.34-1,.36a20.88,20.88,0,0,1-2.24-.05l-.24-.3c-2.23-4.11-4.13-8.59-4.26-13.34Z"/><path id="path23" class="cls-1" d="M103,138.25a23.38,23.38,0,0,1,2.9,0c0,4.52.07,9.06,0,13.58a15.62,15.62,0,0,1-2.83.12C103,147.38,103,142.81,103,138.25Z"/><circle class="cls-2" cx="100.73" cy="100.29" r="95.5"/></svg>