<svg id="Capa_1" data-name="Capa 1" xmlns="http://www.w3.org/2000/svg" viewBox="0 0 200 200"><defs><style>.cls-1{fill:#9fbb3a;}.cls-2{fill:#e3af44;}.cls-3{fill:#a22028;}.cls-4{fill:#68a8db;}.cls-5{fill:#c9b4a0;}.cls-6{fill:#f1dfa9;}.cls-7{fill:#d5db8c;}.cls-8{fill:#a73932;}.cls-9{fill:#6daadc;}.cls-10{font-size:14px;fill:#211915;font-family:MADETOMMY-ExtraBold, MADE TOMMY;font-weight:800;}.cls-11{letter-spacing:-0.06em;}.cls-12{letter-spacing:-0.03em;}.cls-13{letter-spacing:-0.02em;}.cls-14{letter-spacing:-0.01em;}.cls-15{letter-spacing:0em;}.cls-16{letter-spacing:-0.01em;}.cls-17{fill:none;stroke:#249ecd;stroke-miterlimit:10;stroke-width:4px;}</style></defs><path class="cls-1" d="M123.17,80.51a18.86,18.86,0,0,1,4.61.59,21.4,21.4,0,0,1,5.52,2.13,16.23,16.23,0,0,1,7.35,9,21.32,21.32,0,0,1,1,5.41,15.44,15.44,0,0,1-.59,6,19.23,19.23,0,0,1-1.47,3.56,26.53,26.53,0,0,1-1.75,2.78,18.44,18.44,0,0,1-1.34,1.61c-.53.58-1.1,1.11-1.68,1.63a14.94,14.94,0,0,1-2.09,1.59,22.78,22.78,0,0,1-4.13,2.07,23.16,23.16,0,0,1-13.63.72,15.38,15.38,0,0,1-5.61-2.75,26.38,26.38,0,0,1-3.31-3,25.34,25.34,0,0,1-3.82-5.6,20,20,0,0,1-1.49-3.5.49.49,0,0,0-.1-.44l0-.39V80.79l0-.35.32,0c1.48,0,3,0,4.45,0a2.47,2.47,0,0,0,1.08-.07h7.66c.05,0,.1.07.15.07l6.55,0A16.68,16.68,0,0,1,123.17,80.51Zm-4.79,5a13.8,13.8,0,0,0-.87,2,3.47,3.47,0,0,0,.55,3.92,3.7,3.7,0,0,1,.9,2.9,1.18,1.18,0,0,1-1.68,1.08A2,2,0,0,1,116,94a3.73,3.73,0,0,1,0-2c.1-.35,0-.36-.34-.39a2.68,2.68,0,0,0-1.56.6,2.88,2.88,0,0,0-1.53,2,4.54,4.54,0,0,0,.62,3.16,6.83,6.83,0,0,1,.87,2.42c.12.94-.52,1.75-1.27,1.55a2.05,2.05,0,0,1-1.34-.9,2.87,2.87,0,0,0-.77-.82c0,.07-.08.1-.08.13,0,.38-.1.75-.13,1.12-.22,3,.73,5.53,3.38,7.11a7.32,7.32,0,0,0,4.65,1,10,10,0,0,0,4.19-1.38,7.09,7.09,0,0,0,3.42-5.11,6.81,6.81,0,0,1,3-5.26c.22-.14.22-.24-.06-.33a3.68,3.68,0,0,0-3.77.49c-.13.11-.27.3-.45.21s-.08-.29,0-.42a6.71,6.71,0,0,0,.27-3.49,3.55,3.55,0,0,0-1.61-2.67c-.86-.53-1.79-.92-2.64-1.51a4.65,4.65,0,0,1-2.28-3.49A4.18,4.18,0,0,0,118.38,85.55Zm3.91-1.69a6.69,6.69,0,0,0-1.21,1.33,1.9,1.9,0,0,0-.11,1.75c.37.82,1.17,1.38,1.33,2.35a1.59,1.59,0,0,0,.39-2.48,2.07,2.07,0,0,1-.5-1.52A5.19,5.19,0,0,0,122.29,83.86Z"/><path class="cls-2" d="M114.13,80.3h-7.65l-5.16,0c-.21-.15-.46-.06-.68-.13V58.3a.34.34,0,0,0,.09-.33A26,26,0,0,1,103,53a22.39,22.39,0,0,1,2.59-3.76,20.84,20.84,0,0,1,4.55-4A18.55,18.55,0,0,1,117,42.52a25.35,25.35,0,0,1,5.71-.16,21.24,21.24,0,0,1,5.95,1.34,18.75,18.75,0,0,1,5.35,3,20.11,20.11,0,0,1,4.53,4.94,26.54,26.54,0,0,1,2.14,4.22,16.84,16.84,0,0,1,.93,8,14.75,14.75,0,0,1-.56,3.37,21.19,21.19,0,0,1-1.32,3.44,16.05,16.05,0,0,1-2.95,4.07,18.09,18.09,0,0,1-5.84,3.73,19.79,19.79,0,0,1-4.86,1.34.29.29,0,0,0-.38,0l-.56.07a.32.32,0,0,0-.39,0l-.45,0a.89.89,0,0,0-.73.09l-.45,0a16.5,16.5,0,0,0-2.9.19Zm7-12.44c.92,0,1.85,0,2.77,0a1,1,0,0,0,1-1c0-.45,0-.91,0-1.36a.53.53,0,0,1,.29-.53,8,8,0,0,0,2.57-2.35,7.83,7.83,0,0,0,1.48-3.9,8,8,0,0,0-1.82-6A7.52,7.52,0,0,0,124,50.21a8,8,0,0,0-6.4.34,8.14,8.14,0,0,0-4.6,6.32,6.54,6.54,0,0,0,.25,3.13,7.72,7.72,0,0,0,3.38,4.68,1.09,1.09,0,0,1,.66,1.21,2.82,2.82,0,0,0,0,.82c.13.88.54,1.2,1.19,1.17C119.38,67.83,120.27,67.86,121.16,67.86Zm0,3.22c-1,0-1.92,0-2.88,0a1,1,0,0,0-.9.65c-.2.36.11.53.25.77.29.46.75.32,1.17.35.22,0,.51-.08.5.3a1.93,1.93,0,0,0,.9,1.57,1.73,1.73,0,0,0,2.7-1.06c0-.74.32-.88,1-.83A1,1,0,0,0,125,72c0-.55-.38-.87-1.09-.87Zm0-2.39h-3a.92.92,0,0,0-1,.78,1,1,0,0,0,.92.84h5.84a.85.85,0,0,0,.91-.87c0-.46-.37-.75-.94-.75Z"/><path class="cls-3" d="M100.62,80.44l0,.35v21.09l0,.39a.66.66,0,0,0-.11.46s0,0,0,.06-.23.13-.2.3l0,.15c-.06,0-.08,0-.06.08l-.06.28a.15.15,0,0,0-.08.19,16.45,16.45,0,0,1-1.5,3.24A28.6,28.6,0,0,1,96,110.8a23.44,23.44,0,0,1-3.54,3.57,17.31,17.31,0,0,1-2.12,1.46,18.81,18.81,0,0,1-4,1.71,20.61,20.61,0,0,1-7.42.63,16.74,16.74,0,0,1-3.79-.54A26,26,0,0,1,71,116.18a24.42,24.42,0,0,1-3-1.68,18.24,18.24,0,0,1-3.2-2.75,20.53,20.53,0,0,1-3.17-4.42,25.78,25.78,0,0,1-1.59-4,17.41,17.41,0,0,1-.27-8.51,16.28,16.28,0,0,1,4.72-9.1,16.28,16.28,0,0,1,3.6-2.66,15.58,15.58,0,0,1,4.31-1.68.19.19,0,0,0,.22-.08l.25,0c.17,0,.25-.07.32-.18l.17,0a.46.46,0,0,0,.42-.09l.28,0a.3.3,0,0,0,.31-.08l.16,0a.6.6,0,0,0,.55-.09l.28,0a1,1,0,0,0,.68-.1l.27,0a1.42,1.42,0,0,0,.79-.09l.39,0a16.71,16.71,0,0,0,2-.07c4.79,0,9.59-.07,14.38-.08C96.18,80.34,98.4,80.41,100.62,80.44ZM80.5,106.06h8.21c.67,0,.79-.11.8-.79,0-1,0-2.09,0-3.13a2,2,0,0,0-.36-1.22c-.58-.86-1.2-1.67-1.81-2.5S86,96.56,85.22,95.7A1,1,0,0,1,85,95c0-1.15,0-1.15-1.16-1.15h-.06c-.87,0-.89,0-.89.87,0,.37-.14.46-.48.46-1.22,0-2.45,0-3.67,0-.33,0-.43-.11-.43-.44,0-.89,0-.89-.92-.89h-.42c-.74,0-.75,0-.77.76,0,.33.1.67-.22,1a13.7,13.7,0,0,0-1.33,1.61l-1.78,2.42c-.8,1.07-1.54,2.08-1.35,3.52a15.85,15.85,0,0,1,0,2c0,.79.15.94.93.94Zm.25-17.73c-.65,0-1.3,0-2,0a12.67,12.67,0,0,0-6,1.54A5.68,5.68,0,0,0,70,95c0,.38.13.46.48.46,1,0,2.08-.06,3.12,0,.65,0,.83-.19.89-.79a3.32,3.32,0,0,1,3.23-3,43.24,43.24,0,0,1,6.13,0,3.2,3.2,0,0,1,2.33,1.09A3.53,3.53,0,0,1,87,95c0,.33.12.43.45.43.84,0,1.69,0,2.54,0,1.52,0,1.54,0,1.37-1.49A5.44,5.44,0,0,0,89.5,90.4,9.41,9.41,0,0,0,85,88.58,18.65,18.65,0,0,0,80.75,88.33Zm-8.56,7.54H70.66c-.7,0-.87.3-.53.93a1.06,1.06,0,0,0,.93.61c.75,0,1.5,0,2.24,0a1.12,1.12,0,0,0,1.08-1c0-.33,0-.52-.42-.5C73.37,95.89,72.78,95.87,72.19,95.87Zm17.11,0H87.65c-.66,0-.75.15-.5.76a.84.84,0,0,0,.43.46,4.79,4.79,0,0,0,3,.2,1.07,1.07,0,0,0,.92-1c.06-.29,0-.44-.36-.43C90.52,95.89,89.91,95.87,89.3,95.87Z"/><path class="cls-4" d="M100.64,58.3V80.14c-.17.21-.4.13-.61.13H83.45c-1.59,0-3.18,0-4.77-.06-1.3-.17-2.61-.32-3.91-.52A21.24,21.24,0,0,1,69,77.87a30.9,30.9,0,0,1-2.8-1.62,8,8,0,0,1-1.35-1.12,16.13,16.13,0,0,1-3-3.75A18.74,18.74,0,0,1,60,66.44a18.53,18.53,0,0,1-.31-7.77,18.3,18.3,0,0,1,1.27-4,21.7,21.7,0,0,1,1.85-3.34,13.8,13.8,0,0,1,2.25-2.7c.48-.42.92-.89,1.4-1.31a18.94,18.94,0,0,1,5-3.11,22.28,22.28,0,0,1,8.32-1.88,19.9,19.9,0,0,1,5.67.45,16.67,16.67,0,0,1,3.75,1.35,23.17,23.17,0,0,1,2.71,1.63,11,11,0,0,1,1.76,1.45A16.47,16.47,0,0,0,95,48.51a10,10,0,0,1,1.48,1.73,30.06,30.06,0,0,1,2.76,4.56c.5,1,.76,2.14,1.34,3.12ZM72.12,65.61a8.44,8.44,0,0,0,2,5.67,8.61,8.61,0,0,0,3.74,2.65,8.28,8.28,0,0,0,4.88.23,8.46,8.46,0,0,0,4.59-2.86,8.33,8.33,0,0,0,2-5.31,12.69,12.69,0,0,0-1.26-5.39,7.09,7.09,0,0,0-.42-1c-.58-.91-1-1.9-1.56-2.82-.85-1.36-1.73-2.7-2.66-4-.61-.84-1.26-1.64-1.85-2.49a1,1,0,0,0-1.73,0c-.14.19-.24.41-.39.59a44.81,44.81,0,0,0-3.88,5.51A27.77,27.77,0,0,0,73,61.5,11.54,11.54,0,0,0,72.12,65.61Z"/><path class="cls-5" d="M78.68,80.22c1.59.07,3.18.06,4.77.06H100c.21,0,.44.08.61-.13.22.07.47,0,.68.13-.14,0-.28,0-.38.12l-.32,0c-2.22,0-4.44-.1-6.66-.1-4.79,0-9.59,0-14.38.08a16.71,16.71,0,0,1-2,.07C77.91,80.27,78.37,80.54,78.68,80.22Z"/><path class="cls-6" d="M120.19,80.27a16.5,16.5,0,0,1,2.9-.19c0,.14,0,.28.08.43a16.68,16.68,0,0,0-2.34-.12C120.64,80.21,120.4,80.32,120.19,80.27Z"/><path class="cls-6" d="M123.54,80.06a.89.89,0,0,1,.73-.09C124.06,80.26,123.8,80.18,123.54,80.06Z"/><path class="cls-5" d="M77.19,80.52a1.42,1.42,0,0,1-.79.09C76.65,80.51,76.91,80.37,77.19,80.52Z"/><path class="cls-5" d="M76.13,80.63a1,1,0,0,1-.68.1A.72.72,0,0,1,76.13,80.63Z"/><path class="cls-5" d="M100.52,102.73a.66.66,0,0,1,.11-.46.49.49,0,0,1,.1.44Z"/><path class="cls-6" d="M124.72,79.94a.32.32,0,0,1,.39,0A.24.24,0,0,1,124.72,79.94Z"/><path class="cls-6" d="M125.67,79.82a.29.29,0,0,1,.38,0A.23.23,0,0,1,125.67,79.82Z"/><path class="cls-5" d="M75.17,80.76a.6.6,0,0,1-.55.09A.64.64,0,0,1,75.17,80.76Z"/><path class="cls-5" d="M73.28,81.12c-.07.11-.15.23-.32.18C73,81.11,73.12,81.08,73.28,81.12Z"/><path class="cls-5" d="M100.64,58.3l-.09-.38.18,0A.34.34,0,0,1,100.64,58.3Z"/><path class="cls-5" d="M100.3,103.09c0-.17.1-.23.2-.3C100.52,103,100.49,103.07,100.3,103.09Z"/><path class="cls-5" d="M72.71,81.34a.19.19,0,0,1-.22.08C72.52,81.28,72.57,81.21,72.71,81.34Z"/><path class="cls-5" d="M73.87,81a.46.46,0,0,1-.42.09C73.56,80.94,73.71,81,73.87,81Z"/><path class="cls-5" d="M74.46,80.87a.3.3,0,0,1-.31.08C74.23,80.83,74.34,80.84,74.46,80.87Z"/><path class="cls-5" d="M100.05,103.79a.15.15,0,0,1,.08-.19A.13.13,0,0,1,100.05,103.79Z"/><path class="cls-5" d="M100.19,103.32c0-.06,0-.08.06-.08S100.25,103.32,100.19,103.32Z"/><path class="cls-5" d="M100.65,101.88v0Z"/><path class="cls-7" d="M120.19,80.27c.21,0,.45-.06.64.12l-6.55,0s-.1-.05-.15-.07Z"/><path class="cls-7" d="M100.94,80.39c.1-.12.24-.11.38-.12l5.16,0a2.52,2.52,0,0,1-1.09.07C103.9,80.39,102.42,80.39,100.94,80.39Z"/><path class="cls-1" d="M117.77,99.55a4.58,4.58,0,0,1,3,1.48,3.56,3.56,0,0,1,1,3.6,2.48,2.48,0,0,1-2.27,1.76,4.78,4.78,0,0,1-2.38-.27c-1.15-.53-1.67-1.44-1.26-3.14a3.29,3.29,0,0,1,1.34-1.65A1.44,1.44,0,0,0,117.77,99.55Z"/><path class="cls-2" d="M114.89,57.36a6.38,6.38,0,0,1,2.74-4.63A5.85,5.85,0,0,1,121,51.67c.64,0,1,.27,1,.77s-.31.77-1,.8a4.6,4.6,0,0,0-4.48,4.53.87.87,0,0,1-.92.9.81.81,0,0,1-.8-1C114.85,57.59,114.88,57.48,114.89,57.36Z"/><path class="cls-8" d="M77.42,97.39c0-.43.25-.63.62-.62s.56.27.57.62A.54.54,0,0,1,78,98,.53.53,0,0,1,77.42,97.39Z"/><path class="cls-8" d="M80.67,96.78c.23,0,.4.24.4.59s-.18.58-.53.56-.63-.09-.64-.52S80.12,96.81,80.67,96.78Z"/><path class="cls-8" d="M82.49,97.39c0-.37.16-.61.55-.61a.54.54,0,0,1,.61.61c0,.41-.27.54-.62.55A.5.5,0,0,1,82.49,97.39Z"/><path class="cls-8" d="M78,100.05a.55.55,0,0,1-.58-.6.53.53,0,0,1,.58-.59.56.56,0,0,1,.6.6A.55.55,0,0,1,78,100.05Z"/><path class="cls-8" d="M77.43,101.64c0-.42.17-.66.55-.68a.55.55,0,0,1,.62.57.54.54,0,0,1-.56.62A.52.52,0,0,1,77.43,101.64Z"/><path class="cls-8" d="M79.91,99.41c0-.45.34-.55.64-.54a.54.54,0,0,1,.52.65c0,.33-.22.56-.58.51S79.84,99.84,79.91,99.41Z"/><path class="cls-8" d="M82.49,99.62c0-.53.19-.78.56-.75s.61.16.6.58-.26.58-.64.58A.47.47,0,0,1,82.49,99.62Z"/><path class="cls-8" d="M79.91,101.54c0-.42.27-.54.59-.57s.57.25.58.6a.52.52,0,0,1-.54.57C80.2,102.13,79.87,102,79.91,101.54Z"/><path class="cls-8" d="M83.66,101.52a.58.58,0,0,1-.65.62c-.37,0-.55-.26-.52-.63s.22-.57.56-.54S83.69,101.18,83.66,101.52Z"/><path class="cls-9" d="M80.36,71.32a5.37,5.37,0,0,1-4.64-2.1,4.89,4.89,0,0,1-.63-5.66c.08-.17.18-.32.4-.25a.34.34,0,0,1,.24.41,6.06,6.06,0,0,0,1,3.74A5.4,5.4,0,0,0,78.11,69a6.76,6.76,0,0,0,3.54,1.45.43.43,0,0,1,.43.4c0,.32-.23.31-.43.37A5.1,5.1,0,0,1,80.36,71.32Z"/><text class="cls-10" transform="translate(30.84 138.36)"><tspan class="cls-11">P</tspan><tspan class="cls-12" x="8.32" y="0">A</tspan><tspan x="18.17" y="0">GO DE SE</tspan><tspan class="cls-13" x="82.15" y="0">R</tspan><tspan x="91.43" y="0">VICI</tspan><tspan class="cls-14" x="120.3" y="0">O</tspan><tspan class="cls-15" x="131.08" y="0">S</tspan><tspan x="33.14" y="16.8" xml:space="preserve"> PÚBLI</tspan><tspan class="cls-13" x="77.72" y="16.8">C</tspan><tspan class="cls-16" x="87.16" y="16.8">O</tspan><tspan x="97.94" y="16.8">S</tspan></text><circle class="cls-17" cx="100.58" cy="100.5" r="95.5"/></svg>