<?xml version="1.0" encoding="utf-8"?>
<!-- Generator: Adobe Illustrator 26.0.0, SVG Export Plug-In . SVG Version: 6.00 Build 0)  -->
<svg version="1.1" id="Capa_1" xmlns="http://www.w3.org/2000/svg" xmlns:xlink="http://www.w3.org/1999/xlink" x="0px" y="0px"
	 viewBox="0 0 100 100" style="enable-background:new 0 0 100 100;" xml:space="preserve">
<style type="text/css">
	.st0{fill:#213457;}
</style>
<g>
	<path class="st0" d="M41.8,41.7c-0.9-2.1-1.9-4.1-2.8-6.2c-1-2.2-4.7-2.1-5.7,0c-2.9,6-5.9,12.1-8.8,18.1c-2.9-6-5.9-12.1-8.8-18.1
		c-1-2.1-4.7-2.2-5.7,0C9,37.6,8,39.6,7.1,41.7c-1.7,3.8,3.9,7.2,5.7,3.3c0,0,0-0.1,0.1-0.1c2.9,6,5.8,11.9,8.7,17.9
		c0.6,1.3,1.8,1.8,2.8,1.7c1.1,0.1,2.2-0.3,2.9-1.7c2.9-6,5.8-11.9,8.7-17.9c0,0,0,0.1,0.1,0.1C37.8,48.9,43.5,45.5,41.8,41.7"/>
	<path class="st0" d="M5,54.8c-2.7,0-5,2.2-5,5c0,2.7,2.2,5,5,5c2.7,0,5-2.2,5-5C9.9,57,7.7,54.8,5,54.8"/>
	<path class="st0" d="M44.3,54.8c-2.7,0-5,2.2-5,5c0,2.7,2.2,5,5,5c2.7,0,5-2.2,5-5C49.3,57,47.1,54.8,44.3,54.8"/>
	<path class="st0" d="M77.7,54.8c-2.7,0-5,2.2-5,5c0,2.7,2.2,5,5,5c2.7,0,5-2.2,5-5C82.7,57,80.4,54.8,77.7,54.8"/>
	<path class="st0" d="M51.6,35.7c-3.6,2.2-0.3,7.9,3.3,5.7c2.9-1.7,6.6-0.9,7.6,2.6c0.9,3.2-1.6,6-4.7,6.2c-0.1,0-0.2,0-0.2,0
		c-2.3-0.4-5.1,2.1-3.6,4.9c1.3,2.5,2.6,5,3.9,7.4c2,3.8,7.7,0.4,5.7-3.3c-0.6-1.1-1.2-2.2-1.7-3.3c5.3-2.1,8.7-7.6,7.1-13.6
		C66.9,34.8,58.1,31.8,51.6,35.7"/>
	<path class="st0" d="M93.4,37.2v15c-4.6-5.5-9.1-10.9-13.7-16.4c-1.9-2.2-5.7-0.4-5.6,2.3c0.1,2.4,0.1,4.8,0.2,7.2
		c0.1,3.6,4.9,4.2,6.2,1.6c4.5,5.3,8.9,10.7,13.4,16c0.1,0.2,0.3,0.4,0.5,0.5c0,0,0,0,0,0c1.2,1.4,2.7,1.3,3.9,0.5
		c1-0.5,1.7-1.4,1.7-2.8V37.2C100,32.9,93.4,32.9,93.4,37.2"/>
</g>
</svg>
