<?xml version="1.0" encoding="utf-8"?>
<!-- Generator: Adobe Illustrator 26.0.0, SVG Export Plug-In . SVG Version: 6.00 Build 0)  -->
<svg version="1.1" id="Capa_1" xmlns="http://www.w3.org/2000/svg" xmlns:xlink="http://www.w3.org/1999/xlink" x="0px" y="0px"
	 viewBox="0 0 100 30.9" style="enable-background:new 0 0 100 30.9;" xml:space="preserve">
<style type="text/css">
	.st0{fill:#213457;}
</style>
<g>
	<path class="st0" d="M41.8,7.8c-0.9-2.1-1.9-4.1-2.8-6.2c-1-2.2-4.7-2.1-5.7,0c-2.9,6-5.9,12.1-8.8,18.1c-2.9-6-5.9-12.1-8.8-18.1
		c-1-2.1-4.7-2.2-5.7,0C9,3.7,8,5.7,7.1,7.8c-1.7,3.8,3.9,7.2,5.7,3.3c0,0,0-0.1,0.1-0.1c2.9,6,5.8,11.9,8.7,17.9
		c0.6,1.3,1.8,1.8,2.8,1.7c1.1,0.1,2.2-0.3,2.9-1.7c2.9-6,5.8-11.9,8.7-17.9c0,0,0,0.1,0.1,0.1C37.8,15,43.5,11.6,41.8,7.8"/>
	<path class="st0" d="M5,20.9c-2.7,0-5,2.2-5,5c0,2.7,2.2,5,5,5c2.7,0,5-2.2,5-5C9.9,23.1,7.7,20.9,5,20.9"/>
	<path class="st0" d="M44.3,20.9c-2.7,0-5,2.2-5,5c0,2.7,2.2,5,5,5c2.7,0,5-2.2,5-5C49.3,23.1,47.1,20.9,44.3,20.9"/>
	<path class="st0" d="M77.7,20.9c-2.7,0-5,2.2-5,5c0,2.7,2.2,5,5,5c2.7,0,5-2.2,5-5C82.7,23.1,80.4,20.9,77.7,20.9"/>
	<path class="st0" d="M51.6,1.8c-3.7,2.2-0.3,8.1,3.4,5.8c3-1.7,6.8-0.9,7.8,2.7c0.9,3.3-1.6,6.1-4.8,6.3c-0.1,0-0.2,0-0.2,0
		c-2.4-0.4-5.2,2.1-3.7,5c1.3,2.6,2.7,5.1,4,7.6c2.1,3.9,7.9,0.4,5.9-3.4c-0.6-1.1-1.2-2.2-1.7-3.4c5.5-2.1,9-7.8,7.3-13.9
		C67.4,0.9,58.3-2.1,51.6,1.8"/>
	<path class="st0" d="M93.4,3.3v15c-4.6-5.5-9.1-10.9-13.7-16.4c-1.9-2.2-5.7-0.4-5.6,2.3c0.1,2.4,0.1,4.8,0.2,7.2
		c0.1,3.6,4.9,4.2,6.2,1.6c4.5,5.3,8.9,10.7,13.4,16c0.1,0.2,0.3,0.4,0.5,0.5l0,0c1.2,1.4,2.7,1.3,3.9,0.5c1-0.5,1.7-1.4,1.7-2.8
		V3.3C100-1,93.4-1,93.4,3.3"/>
</g>
</svg>
