<svg id="Capa_1" data-name="Capa 1" xmlns="http://www.w3.org/2000/svg" viewBox="0 0 200 200"><defs><style>.cls-1{fill:none;stroke:#211915;stroke-miterlimit:10;stroke-width:4px;}.cls-2{fill:#211915;}</style></defs><circle class="cls-1" cx="99.97" cy="100.28" r="95.5"/><path class="cls-2" d="M175.48,112.28a19.29,19.29,0,0,0-.34,3.72,24.47,24.47,0,0,1-2.9,10.09c-2.5,4.16-6.3,5.95-11,6s-9.47,0-14.2,0c-.55,0-.69-.14-.68-.69q0-19.34,0-38.69c0-.36-.13-.76.53-.75,5.26.08,10.53-.17,15.79.13,5.68.34,9.32,3.42,11.18,8.7a29.42,29.42,0,0,1,1.47,9.27c0,.32-.18.7.17,1Zm-25.51-.2c0,5.32,0,10.64,0,16,0,.6.13.82.78.81,3.42,0,6.85,0,10.27,0a9.09,9.09,0,0,0,4.53-1.12c2.6-1.48,3.92-3.9,4.77-6.62a33.21,33.21,0,0,0,1.22-11.18,23.23,23.23,0,0,0-1.73-9,8.69,8.69,0,0,0-8.46-5.55c-3.51,0-7,0-10.53,0-.75,0-.85.26-.85.9C150,101.5,150,106.79,150,112.08Z"/><path class="cls-2" d="M71.36,113.22a46.59,46.59,0,0,1,1-11.34c1.5-6.12,5.14-9.42,11.37-10.27a24,24,0,0,1,8.85.41c4.63,1.12,7.47,4.12,8.9,8.57a34.71,34.71,0,0,1,1.39,9.75,46.09,46.09,0,0,1-.86,11.6c-.86,3.77-2.49,7.05-6.12,8.94a18,18,0,0,1-6.87,1.69,22.66,22.66,0,0,1-8.55-.88,11.27,11.27,0,0,1-7.58-7.53,31.33,31.33,0,0,1-1.49-9.46C71.43,114.29,71.4,113.87,71.36,113.22Zm27.84-.54a47.51,47.51,0,0,0-.89-9.68c-1-3.89-3-6.82-7.13-7.82a17,17,0,0,0-8.2,0,8.5,8.5,0,0,0-5.87,4.64,16.33,16.33,0,0,0-1.48,4.82,74.84,74.84,0,0,0-.35,11.2,22.27,22.27,0,0,0,1.06,6.73,8.7,8.7,0,0,0,7,6.39,20.07,20.07,0,0,0,7,.1c4.25-.65,6.78-3.08,7.83-7.19A42.9,42.9,0,0,0,99.2,112.68Z"/><path class="cls-2" d="M60.77,96a75.47,75.47,0,0,0-13-1.32c-3,0-5.86.64-8,3a12.54,12.54,0,0,0-2.94,7.31,51.4,51.4,0,0,0,.13,14.81,12.38,12.38,0,0,0,2.76,6.54,9.74,9.74,0,0,0,6.68,2.93,41.91,41.91,0,0,0,9.49-.63c1.52-.2,1.52-.22,1.52-1.72,0-3.68,0-7.37,0-11.05,0-.66-.11-.91-.85-.89-1.9.06-3.81,0-5.71,0-.74,0-.91-.23-.85-.89a11.75,11.75,0,0,0,0-1.78c0-.49.15-.6.61-.6,3.24,0,6.49,0,9.73,0,.53,0,.63.19.63.67,0,6.06,0,12.12,0,18.18,0,.39,0,.68-.51.74-4.92.59-9.81,1.55-14.8,1.16-6.35-.49-10.39-3.89-11.93-10a48.22,48.22,0,0,1-.79-16.55,22.15,22.15,0,0,1,2.05-7.77c2-4,5.37-5.95,9.67-6.52A39.44,39.44,0,0,1,55.86,92c1.47.22,2.93.48,4.4.68.55.08.77.27.68.87C60.83,94.36,60.82,95.17,60.77,96Z"/><path class="cls-2" d="M114.55,112c0-6.39,0-12.78,0-19.17,0-.65.11-1,.85-.88s2.08-.3,2.58.14.18,1.73.18,2.64q0,16.55,0,33.08c0,.81.23.94,1,.94,5.54,0,11.07,0,16.61,0,.7,0,.94.17.87.88s.24,1.84-.16,2.32-1.51.15-2.3.15c-6.25,0-12.5,0-18.75,0-.66,0-.84-.14-.84-.82C114.56,124.82,114.55,118.4,114.55,112Z"/><path class="cls-2" d="M142.61,84.65a2.38,2.38,0,0,1-3.13-1.47c-.89-1.78-2-3.44-3-5.19a1.55,1.55,0,0,0-1.57-.93c-2.45,0-2.45,0-2.45,2.47,0,1.41,0,2.81,0,4.21,0,.75-.23,1-1,.94s-1-.06-1-.88c0-5.16,0-10.31,0-15.47,0-.62.13-.85.81-.84,2.42,0,4.84,0,7.26,0a4.06,4.06,0,0,1,4,3.87c0,.49,0,1,0,1.47a3.93,3.93,0,0,1-3.35,4.09c-1,.19-.8.5-.44,1.1,1.12,1.9,2.22,3.81,3.32,5.72C142.3,84,142.43,84.31,142.61,84.65Zm-6.84-15.23c-.81,0-1.62,0-2.42,0-.6,0-.89.1-.86.8,0,1.36,0,2.73,0,4.09,0,.59.18.8.78.79,1.65,0,3.3,0,4.95,0a2.27,2.27,0,0,0,2.45-2.51c.05-2.06-.7-3.06-2.38-3.14C137.45,69.39,136.61,69.42,135.77,69.42Z"/><path class="cls-2" d="M46.18,84.67A2.43,2.43,0,0,1,43,83.16c-.85-1.72-1.95-3.32-2.86-5a1.73,1.73,0,0,0-1.88-1.09c-2.18.13-2.19.07-2.19,2.22,0,1.55,0,3.09,0,4.63,0,.74-.34.81-.9.76s-1,.18-1-.71q0-7.85,0-15.67c0-.62.23-.77.8-.77,2.52,0,5,0,7.58,0a3.61,3.61,0,0,1,3.42,2.63,6.82,6.82,0,0,1,.17,3.53A3.82,3.82,0,0,1,42.81,77c-.92.16-.79.4-.42,1,1.17,2,2.28,3.94,3.41,5.91C45.94,84.13,46,84.38,46.18,84.67Zm-6.69-9.59c.73,0,1.47,0,2.21,0,1.76,0,2.56-.87,2.6-2.8,0-1.75-.87-2.81-2.5-2.85s-3.3,0-4.95,0c-.51,0-.76.09-.75.69,0,1.43,0,2.87,0,4.3,0,.59.25.71.76.69C37.73,75.06,38.61,75.08,39.49,75.08Z"/><path class="cls-2" d="M94.53,67.5,85.79,82.65h8.62c-.5,1.86-.82,2.12-2.61,2.12-2.81,0-5.62,0-8.43,0-.93,0-1-.2-.56-1,2.59-4.44,5.15-8.9,7.72-13.36.58-1,.56-1-.59-1-2.32,0-4.64,0-7,0-.72,0-.71-.41-.65-.88s-.3-1.06.57-1.06C86.72,67.51,90.54,67.5,94.53,67.5Z"/><path class="cls-2" d="M64.23,72.71C62.76,76.33,61.37,79.76,60,83.2c-.7,1.74-.71,1.76-2.74,1.45l7-17.3c1.08,2.65,2.09,5.1,3.08,7.56,1.16,2.88,2.32,5.77,3.45,8.67.14.35.75.91.1,1.11s-1.45.41-1.88-.41-.7-1.6-1-2.41C66.74,78.89,65.53,75.91,64.23,72.71Z"/><path class="cls-2" d="M112.39,75.13c1.75,0,3.51,0,5.26,0,.79,0,.78.22.47.85a1.87,1.87,0,0,1-2,1.19c-2.91-.07-5.82-.06-8.73,0-.9,0-1-.35-1-1.11s.36-.94,1.06-.93C109.09,75.16,110.74,75.13,112.39,75.13Z"/><path class="cls-2" d="M118.44,82.77c-.64,1.81-.89,2-2.55,2-2.81,0-5.62,0-8.43,0-.86,0-1-.31-1-1s.08-1,.9-1C111,82.79,114.69,82.77,118.44,82.77Z"/><path class="cls-2" d="M118.4,67.61c-.76,1.81-.76,1.81-2.65,1.81-2.85,0-5.69,0-8.53,0-.75,0-.8-.35-.76-.9s-.17-1.06.72-1.05c3.68,0,7.37,0,11,0C118.29,67.52,118.35,67.58,118.4,67.61Z"/><path class="cls-2" d="M150.1,68.93c-.25.74-.43,1.27-.6,1.79-.07.23-.07.53-.4.53s-.41-.25-.5-.48a7.28,7.28,0,0,0-.94-1.78v2.27h-.33a15.94,15.94,0,0,1-.05-3.24c0-.18.22-.27.41-.23a.75.75,0,0,1,.57.57,8.73,8.73,0,0,0,.79,2.14c.26-.77.51-1.46.72-2.15.11-.33.27-.59.65-.56s.36.44.37.72a17.83,17.83,0,0,1-.14,2.83C150,70.66,150.47,69.84,150.1,68.93Z"/><path class="cls-2" d="M143.82,68a3.75,3.75,0,0,1,2.58.06c-1.53.09-1,1.16-1.07,1.91-.07.45.24,1.28-.2,1.27-.68,0-.27-.83-.33-1.29C144.71,69.21,145.1,68.27,143.82,68Z"/></svg>