<svg id="Capa_1" data-name="Capa 1" xmlns="http://www.w3.org/2000/svg" viewBox="0 0 200 200"><defs><style>.cls-1{fill:none;stroke:#3d6d57;stroke-miterlimit:10;stroke-width:4px;}.cls-2{fill:#b62f24;}.cls-3{fill:#3d6d57;}</style></defs><circle class="cls-1" cx="100.45" cy="99.92" r="95.5"/><path class="cls-2" d="M158.55,129.43,155.81,124l-2.74,5.48ZM97.13,116.31l-5.48,2.74,5.48,2.74v-5.48Zm-49.51,6.18L50.36,128l2.74-5.48ZM173,110.82a1.77,1.77,0,1,0,0,3.54,1.74,1.74,0,0,0,1.84-1.74,1.79,1.79,0,0,0-1.83-1.8Zm-7.55,5.6v-2.14H170a2.78,2.78,0,0,1-.81-2.08,3.54,3.54,0,0,1,3.78-3.52,3.58,3.58,0,0,1,3.87,3.61,2.41,2.41,0,0,1-1,2.08h.76v2Zm7.6,7.19a1.78,1.78,0,0,0,1.79-1.78,1.66,1.66,0,0,0-.8-1.5,2,2,0,0,0-.92-.3,1.93,1.93,0,0,0-.94.18,1.72,1.72,0,0,0-1,1.63,1.77,1.77,0,0,0,1.84,1.77Zm3.55-5.72V120h-.78a2.39,2.39,0,0,1,1,2.12,3.83,3.83,0,0,1-7.65,0,2.46,2.46,0,0,1,1-2.12h-.76v-2.14Zm-11.15,11.54v-2.14h11.15v2.14H165.41"/><path class="cls-3" d="M119.06,132.33l1.6,3.47c7.59-5.81,9-12.29,4-19.24-3.92-5.51.39-10.4,1.69-11.68l-2.91-2.32c-1.9,2.08-6.88,8.6-2.52,15.15C125.19,124.05,124.75,127.49,119.06,132.33Zm-59,0,1.6,3.47c7.59-5.81,9-12.29,4-19.24-3.91-5.51.4-10.4,1.69-11.68l-2.9-2.32c-1.9,2.08-6.88,8.6-2.52,15.15,4.22,6.34,3.78,9.78-1.91,14.62Zm100.53-23.65L155.81,117,151,108.68h-3.91l8.72,15.11,8.72-15.11Zm-78.4,1.18a10.08,10.08,0,0,0-5.28-1.18H72v20.75H76V112.59h1c2.71,0,4.57.67,4.57,3.11,0,2.27-2.24,3.27-4.83,3.35h-.57l2.6,3.72a9.87,9.87,0,0,0,3.41-1.24l.21-.14a6.7,6.7,0,0,0,3.09-5.69,6.46,6.46,0,0,0-3.2-5.84Zm31,11.53a6.73,6.73,0,0,0,3.09-5.69,6.48,6.48,0,0,0-3.2-5.84,10.08,10.08,0,0,0-5.28-1.18h-4.9v20.75h3.91V112.59h1c2.71,0,4.57.67,4.57,3.11,0,2.27-2.24,3.27-4.84,3.35H107l7.26,10.38h4.58l-5.62-8Zm26.45-2.34,7.26-10.37h-4.58l-7.26,10.37,7.26,10.38h4.58l-7.26-10.38Zm-4.74-10.37H131v20.75h3.92V108.68ZM32.75,119.05,40,108.68H35.44l-7.27,10.37,7.27,10.38H40ZM28,108.68H24.1v20.75H28V108.68Zm71.89,3.91v-3.91H87.58v20.75H99.91v-3.92H91.49V112.59Zm-39.5,16.84H56.49l-6.13-13.15-6.13,13.15H40.31l10-21.54,10,21.54"/><path class="cls-3" d="M74.66,92.62v-51H88.87V58.78l.28.11,17.17-17.23H125c.28,0,.62-.12.81.24L75.19,92.23A4.26,4.26,0,0,1,74.66,92.62Z"/><path class="cls-3" d="M104.49,92.57c1.78-1.78,3.52-3.59,5.34-5.32.61-.58.52-.85,0-1.39-3.69-3.66-7.32-7.35-11-11-.51-.5-.58-.77,0-1.32q4.13-4.05,8.14-8.2c.58-.61.87-.65,1.49,0,3.59,3.64,7.24,7.21,10.83,10.85.57.58.84.56,1.38,0,1.55-1.63,3.17-3.19,4.79-4.76.21-.2.31-.75.83-.48V92.62h-4.81Z"/></svg>