<svg id="Capa_1" data-name="Capa 1" xmlns="http://www.w3.org/2000/svg" viewBox="0 0 200 200"><defs><style>.cls-1{fill:#be0811;}.cls-2{fill:#fff;}.cls-3{fill:none;stroke:#b50a1d;stroke-miterlimit:10;stroke-width:4px;}</style></defs><path class="cls-1" d="M93,110.27a41.83,41.83,0,0,1-5.33,1c-4.63.57-6.74-.81-7.06-5.44a38,38,0,0,1,1.59-14.71,13.77,13.77,0,0,1,5.88-7.2c1.26-.81,2.81-1.71,4.16-.33s.41,2.82-.42,4c-1.57,2.27-3.07,4.54-3.39,7.39a31.7,31.7,0,0,0-.48,6.45c.09.95,0,2.18,1.25,2.43A2.49,2.49,0,0,0,92,102.11c1-2.27,1.15-4.74,1.42-7.18.39-3.42.38-6.88,1.06-10.27a7.8,7.8,0,0,1,1.69-4,3.26,3.26,0,0,1,3.65-1c1.43.45,1.47,1.62,1.5,2.84.14,7.25-.74,14.46-.72,21.7,0,.73-.35,1.71.33,2.14s1.41-.36,2-.74c8.22-5.15,16.73-9.82,25.09-14.74.6-.35,1.18-.76,1.77-1.13a2.27,2.27,0,0,0,1.1-2.92,20.49,20.49,0,0,1-.12-7.49,51.93,51.93,0,0,0,.15-6.48c0-.58-.07-1.25-.72-1.47s-1,.32-1.37.62c-3.12,2.26-3.46,5.66-3.66,9.07a48,48,0,0,1-.79,6.78c-.45,2.17-1.32,4.13-3.44,5.24-2.39,1.24-4,.29-4.06-2.36a117.26,117.26,0,0,1,.72-15.22c.54-4.62,2.79-6.91,7.44-7.3a5,5,0,0,0,3.78-1.86,8.37,8.37,0,0,1,5-2.66c1.73-.36,3.69,1.17,4.29,3.38a29.77,29.77,0,0,1,.61,6.6c.12,2.75,0,5.5.21,8.24.19,2.48.53,2.59,2.84,1.71s4.32-2.07,6.67-2.64a3.68,3.68,0,0,1,2.71.22c2.37,1.24,2.72,3.43.78,5.25a21.29,21.29,0,0,1-7.32,4.38c-11.25,4.13-21.64,10-31.88,16.06-3.77,2.24-7.43,4.64-11.18,6.92a2.54,2.54,0,0,0-1.35,2.42c0,9.12,0,18.23.11,27.35.07,3.66.67,7.31,1,11,.13,1.51,0,3-1.56,3.8a5.17,5.17,0,0,1-5.2,0A2.84,2.84,0,0,1,93,156a107.35,107.35,0,0,1-.49-14.34c.29-6.6.1-13.2.16-19.79,0-1.88-1-.74-1.5-.36-4.86,3.56-9.52,7.36-14.19,11.16a268.22,268.22,0,0,0-20.47,19.14,19.59,19.59,0,0,1-3.36,2.8c-1.86,1.19-3.37,1-4.7-.48-1.69-1.9-1.75-3-.12-4.9,6-6.94,13.05-12.7,20.07-18.52s14.66-11,21.62-17A11.25,11.25,0,0,0,93,110.27Z"/><path class="cls-1" d="M38.73,116.9c.91-4.93,1.8-9.86,2.73-14.78A291.63,291.63,0,0,1,58.72,45.58a15.84,15.84,0,0,1,3.36-5.5,5.05,5.05,0,0,1,6.7-.78,4.61,4.61,0,0,1,2.16,5.86A8.9,8.9,0,0,1,69.4,48.1C63.54,55.38,60,63.88,57.34,72.66s-6.1,17.43-8,26.47c-2.16,10.17-3.24,20.51-4.85,30.76-.76,4.79-1.05,9.65-2.44,14.32-.68,2.28-1.91,3-4,2.77a2.62,2.62,0,0,1-2.57-2.36c-1.64-7.78-2.86-15.62-4.14-23.46-1-6-1.63-12.15-2.94-18.14-.14-.66,0-1.8-1-1.81-.72,0-.86,1-1.08,1.66a51.94,51.94,0,0,1-3.14,7.6,4.52,4.52,0,0,1-2,2.16,3.06,3.06,0,0,1-3.31-.22c-1-.76-.93-1.76-.64-2.86a258.1,258.1,0,0,1,8.19-25,7.92,7.92,0,0,1,.92-1.69c1.71-2.39,4.64-2.15,5.88.54a32,32,0,0,1,1.88,7.63c1.26,6.83,2.59,13.65,3.83,20.48.32,1.76.41,3.55.61,5.33Z"/><path class="cls-1" d="M64.76,114.35A126.38,126.38,0,0,1,66.3,96.7,5,5,0,0,1,69,92.9a31.81,31.81,0,0,1,7-2.81c1-.27,2.09-.54,2.88.51a3.06,3.06,0,0,1,.25,3.61,9.73,9.73,0,0,1-1.93,2.46c-3,2.46-3.8,5.74-4,9.35a45.57,45.57,0,0,1-1.17,8.47,3.41,3.41,0,0,1-2.15,2.79C65.71,118.59,64.81,117.29,64.76,114.35Z"/><path class="cls-1" d="M61.3,102.52a136.49,136.49,0,0,1-2.44,19,3.33,3.33,0,0,1-1.75,2.66c-3.22,1.5-5.17.35-5-3.18a145.67,145.67,0,0,1,1.67-17.57,7.61,7.61,0,0,1,2.59-4.83c2.24-1.86,4.34-1.1,4.81,1.75A18.94,18.94,0,0,1,61.3,102.52Z"/><path class="cls-1" d="M104.7,95.34c.59-5.25,1.14-10.58,1.79-15.89a7.17,7.17,0,0,1,3-4.79c1.55-1.2,3-.79,3.69,1a5.93,5.93,0,0,1,.08,2.93c-.46,4.64-.65,9.29-.73,14,0,2.7-.86,4.86-3.61,6-2.5,1-3.56.56-4-2.13C104.82,96.11,104.77,95.76,104.7,95.34Z"/><path class="cls-1" d="M64.09,85.58c-.22,2.15-1.74,3.58-3.73,4.63-1.28.67-2.35.13-3.34-.71a1.52,1.52,0,0,1-.53-2,10.44,10.44,0,0,1,3.71-4.32C62.13,82,64.07,83.08,64.09,85.58Z"/><path class="cls-1" d="M111,68.67c-1.57.06-2.21-.77-2.19-2.26,0-2.18,2.78-4.85,5-4.83a2.32,2.32,0,0,1,2.33,2.66A5.59,5.59,0,0,1,111,68.67Z"/><path d="M130.26,120.19c-1.59,0-1.9,1.83-1.9,3.73s.35,3.63,1.9,3.63,1.89-1.75,1.89-3.63S131.86,120.19,130.26,120.19Z"/><path d="M159.25,110H114.4a12.82,12.82,0,1,0,0,25.64h44.85a12.82,12.82,0,0,0,0-25.64Zm-34.57,17.82a1.12,1.12,0,0,1-1.07,1.12h-.08a1.13,1.13,0,0,1-1.1-1.1v-6a1.51,1.51,0,0,0-1.67-1.62,2.2,2.2,0,0,0-1.66.68v6.88a1.12,1.12,0,0,1-1.1,1.12h0a1.12,1.12,0,0,1-1.12-1.12v-6c0-1-.64-1.59-1.86-1.59a3.44,3.44,0,0,0-1.47.28v7.29a1.13,1.13,0,0,1-1.13,1.13h0a1.11,1.11,0,0,1-1.09-1.11v-8.29a8,8,0,0,1,3.72-.72,3.93,3.93,0,0,1,3.09,1.09,4.55,4.55,0,0,1,3.19-1.09c2.36,0,3.41,1.48,3.41,3Zm5.58,1.31c-2.79,0-4.13-2.21-4.13-5.14s1.34-5.17,4.13-5.17,4.12,2.2,4.12,5.17S133,129.08,130.26,129.08Zm8.85,0a6.35,6.35,0,0,1-3.28-.72V115.55a1.11,1.11,0,0,1,1.12-1.12s0,0,.06,0a1.12,1.12,0,0,1,1.05,1.11v3.7a4.11,4.11,0,0,1,1.95-.41c2.31,0,3.91,1.9,3.91,4.87C143.92,127,142.21,129.08,139.11,129.08Zm8.76-1.31a1.11,1.11,0,0,1-1.09,1.12h-.06a1.12,1.12,0,0,1-1.1-1.12v-7.69a1.12,1.12,0,0,1,1.09-1.12h0a1.12,1.12,0,0,1,1.12,1.12Zm-1.12-10.52a1.12,1.12,0,1,1,0-2.23,1.12,1.12,0,1,1,0,2.23Zm4.39,11.64H151a1.12,1.12,0,0,1-1-1.12V115.51a1.11,1.11,0,0,1,1.07-1.08h.07a1.12,1.12,0,0,1,1.1,1.12v12.24A1.12,1.12,0,0,1,151.14,128.89Zm10.59-.51a6.86,6.86,0,0,1-3.28.7c-2.82,0-4.61-1.83-4.61-5.18s1.64-5.13,4.24-5.13,4.07,1.76,4,5.09l-6.08.89c.18,1.84,1.07,2.76,2.71,2.76A5.44,5.44,0,0,0,161,127a.74.74,0,0,1,.36-.09.76.76,0,0,1,.76.76A.77.77,0,0,1,161.73,128.38Z"/><path d="M158,120.16c-1.31,0-2.21,1.07-2.16,3.44L160,123C160,121,159.24,120.16,158,120.16Z"/><path d="M139.41,120.14a2.6,2.6,0,0,0-1.35.29v7.06a3,3,0,0,0,1.14.21c1.77,0,2.49-1.52,2.49-3.87C141.69,121.76,141.1,120.14,139.41,120.14Z"/><path class="cls-2" d="M140,118.83a4.11,4.11,0,0,0-1.95.41v-3.7a1.12,1.12,0,0,0-1.05-1.11s0,0-.06,0a1.11,1.11,0,0,0-1.12,1.12v12.81a6.35,6.35,0,0,0,3.28.72c3.1,0,4.81-2.05,4.81-5.38C143.92,120.73,142.32,118.83,140,118.83Zm-.81,8.87a3,3,0,0,1-1.14-.21v-7.06a2.6,2.6,0,0,1,1.35-.29c1.69,0,2.28,1.62,2.28,3.69C141.69,126.18,141,127.7,139.2,127.7Z"/><path class="cls-2" d="M151.1,114.43H151a1.11,1.11,0,0,0-1.07,1.08v12.26a1.12,1.12,0,0,0,1,1.12h.14a1.12,1.12,0,0,0,1.06-1.1V115.55A1.12,1.12,0,0,0,151.1,114.43Z"/><path class="cls-2" d="M161.38,127a.74.74,0,0,0-.36.09,5.44,5.44,0,0,1-2.33.47c-1.64,0-2.53-.92-2.71-2.76l6.08-.89c.09-3.33-1.34-5.09-4-5.09s-4.24,1.89-4.24,5.13,1.79,5.18,4.61,5.18a6.86,6.86,0,0,0,3.28-.7.77.77,0,0,0,.41-.67A.76.76,0,0,0,161.38,127ZM158,120.16c1.23,0,2,.81,2,2.82l-4.11.62C155.8,121.23,156.7,120.16,158,120.16Z"/><path class="cls-2" d="M121.27,118.77a4.55,4.55,0,0,0-3.19,1.09,3.93,3.93,0,0,0-3.09-1.09,8,8,0,0,0-3.72.72v8.29a1.11,1.11,0,0,0,1.09,1.11h0a1.13,1.13,0,0,0,1.13-1.13v-7.29a3.44,3.44,0,0,1,1.47-.28c1.22,0,1.86.63,1.86,1.59v6a1.12,1.12,0,0,0,1.12,1.12h0a1.12,1.12,0,0,0,1.1-1.12v-6.88a2.2,2.2,0,0,1,1.66-.68,1.51,1.51,0,0,1,1.67,1.62v6a1.13,1.13,0,0,0,1.1,1.1h.08a1.12,1.12,0,0,0,1.07-1.12v-6C124.68,120.25,123.63,118.77,121.27,118.77Z"/><path class="cls-2" d="M146.75,115a1.12,1.12,0,1,0,1.23,1.12A1.16,1.16,0,0,0,146.75,115Z"/><path class="cls-2" d="M130.26,118.77c-2.79,0-4.13,2.2-4.13,5.17s1.34,5.14,4.13,5.14,4.12-2.21,4.12-5.14S133.06,118.77,130.26,118.77Zm0,8.78c-1.55,0-1.9-1.75-1.9-3.63s.31-3.73,1.9-3.73,1.89,1.83,1.89,3.73S131.86,127.55,130.26,127.55Z"/><path class="cls-2" d="M146.75,119h0a1.12,1.12,0,0,0-1.09,1.12v7.69a1.12,1.12,0,0,0,1.1,1.12h.06a1.11,1.11,0,0,0,1.09-1.12v-7.69A1.12,1.12,0,0,0,146.75,119Z"/><circle class="cls-3" cx="99.52" cy="100.45" r="95.5"/></svg>