<svg id="Capa_1" data-name="Capa 1" xmlns="http://www.w3.org/2000/svg" viewBox="0 0 200 200"><defs><style>.cls-1{fill:#1a547e;}.cls-2{fill:none;stroke:#1a547e;stroke-miterlimit:10;stroke-width:4px;}</style></defs><path class="cls-1" d="M78.83,64a44.3,44.3,0,0,0,.1,7c.25,1.71,1.13,2.07,2.92,1.35,4.44-1.79,16.35-5.2,22.6-5.66L81,136.69c-.45,1.57,0,2.39,1.68,2.62a87.72,87.72,0,0,0,9.31,0,3.14,3.14,0,0,0,2.88-2.45l24-71.49c8.1-.56,19.64-.17,25.77,1,2.13.41,2.94,0,3.53-1A33.5,33.5,0,0,0,150.57,58c.29-1.87-.16-2.59-2.8-3C123,51.47,99.92,54.15,81,61.16A2.87,2.87,0,0,0,78.83,64"/><path class="cls-1" d="M121.88,128.91a44.06,44.06,0,0,1,8-14.4c3-3.71,8.21-8.41,13-8.41,2.09,0,2.82,1.44,2.81,3.57,0,6.65-6.44,26.48-19.27,26.49-3.12,0-6.05-2.62-4.49-7.25m38.62-22c0-6.68-2.88-12.41-10.42-12.41-7.26,0-15.51,5.69-20.08,10.14,0,0,9.34-27.9,9.33-27.91.6-1.82-.24-2.78-2.08-3.1-.69-.12-6.63-.47-7.37-.42a3.28,3.28,0,0,0-3.42,2.65s-17.35,51.75-17.35,51.72a16.91,16.91,0,0,0-1,5.44c0,6.92,4.84,13.07,16.75,13.05C148.12,146,160.5,122.06,160.5,106.9Z"/><path class="cls-1" d="M67.61,87.38a4.56,4.56,0,0,1,4.49,4.67c0,4-1.92,6.11-4.83,7.67A24.45,24.45,0,0,1,54.72,102c1.67-5.74,7.27-14.6,12.89-14.6m6.32,20c5.75-3,10.92-7.62,11-16,0-6.55-4-13-14.21-13-20.23,0-31.6,20.7-31.57,35C39.15,125.06,44.32,133,57,133c7.46,0,13-1.83,17.48-5a3.9,3.9,0,0,0,1.21-1.54,46.18,46.18,0,0,0,2.36-7.32,1.11,1.11,0,0,0-.68-1.27,2,2,0,0,0-1.5.29,29.07,29.07,0,0,1-14.09,3.89c-8.45.09-10.37-6.2-9.34-11.34C57.5,111.7,67.41,110.8,73.93,107.38Z"/><circle class="cls-2" cx="99.81" cy="99.75" r="95.5"/></svg>