<svg id="Capa_1" data-name="Capa 1" xmlns="http://www.w3.org/2000/svg" viewBox="0 0 200 200"><defs><style>.cls-1{fill:#e4c545;}.cls-2{fill:#343271;}.cls-3{fill:#333171;}.cls-4{fill:#343371;}.cls-5{fill:#e4c64a;}.cls-6{fill:#e6ca58;}.cls-7{fill:#e6c852;}.cls-8{fill:#ccc9cb;}.cls-9{fill:#e8ce65;}.cls-10{fill:#d6d4d5;}.cls-11{fill:#d8d7d8;}.cls-12{fill:#f4f4f8;}.cls-13{fill:#fff;}.cls-14{fill:#dcdbdc;}.cls-15{fill:none;stroke:#343271;stroke-miterlimit:10;stroke-width:4px;}</style></defs><path class="cls-1" d="M66.08,75.25a6,6,0,0,1-1.64.87c-.2,0-.17.15-.13.3s0,.22-.13.23-.18-.1-.17-.2c0-.28-.13-.33-.35-.29-.38.07-.4-.32-.61-.46s-.13-.25-.27-.19-.1.16-.13.26c-.18.8-.28.86-1.09.76-.18,0-.38,0-.57,0s-.33,0-.4-.14.08-.25.16-.36a1,1,0,0,1,.79-.42,2.42,2.42,0,0,0,.47,0c.17,0,.28-.15.2-.34a.25.25,0,0,0-.38-.14,2.47,2.47,0,0,0-.44.27.88.88,0,0,1-1,.17c-.39-.2-.41-.64-.42-1s.08-.5.07-.76a.33.33,0,0,1,.29-.37.33.33,0,0,1,.37.2c.28.47.42.48.81.11a.86.86,0,0,1,.78-.3c.12,0,.25,0,.32-.1h0c.07,0,.2-.08.1-.21h0A.13.13,0,0,0,63,73c.12-.51.65-.66.92-1s.38-.17.47.12.24.36.48.15.23-.28-.06-.3-.35-.11-.37-.34.13-.22.26-.26c.28-.07.36.15.44.34a1.59,1.59,0,0,1,.08.33L67,70.82c0-.13-.07-.13-.13-.16s-.24-.21-.11-.38.25-.1.36,0c.4.36.66.07,1-.16s.29-.59.7-.4a.2.2,0,0,0,.09,0,99.73,99.73,0,0,1,15.77-7.53,91.78,91.78,0,0,1,16-4.32,79.18,79.18,0,0,1,9.84-1.09c2.92-.13,5.84-.27,8.76-.15a70.24,70.24,0,0,1,28.92,7.31c1.09.55,2.15,1.15,3.21,1.75.29.16.49.25.74-.07s.86-.28,1.2-.63a.15.15,0,0,1,.23.11.29.29,0,0,1-.17.39,4.07,4.07,0,0,1-.5.13c-.29.07-.33.32-.39.56s.18.26.31.34c.91.6,1.82,1.18,2.76,1.78.12-.49.18-.88-.46-1-.35,0-.34-.31-.23-.55s.33-.11.48,0c.33.2.53.55.92.71.21.09.11.6-.09.85s-.12.4.12.55a6.64,6.64,0,0,1,.75.56.83.83,0,0,0,.86.19c.2-.07.43-.16.6.1s.24.4,0,.6c-.11.08,0,.21.07.25s.27.16.38.13c.64-.17,1,.32,1.37.62.15.11.33.26.25.47-.23.66.41.78.68,1.12a.12.12,0,0,0,.18,0c.64-.45,1.48-.29,2.14-.81s1-.23,1.45.39c.28.42.59.82.86,1.23s.19.58-.3.65c-.66.11-1.28.12-1.65-.59a1.17,1.17,0,0,0-.46-.42.39.39,0,0,0-.64.16c-.13.28-.13.55.22.68a4.79,4.79,0,0,0,.74.21c1.16.22,1.5.89.93,1.92-.13.24,0,.39.05.57a5.08,5.08,0,0,1,0,4.56,4.63,4.63,0,0,1-4.93,2.38,6.76,6.76,0,0,1-3.63-1.77c-.15-.14-.41-.25-.26-.59.08-.16-.17-.27-.32-.35-1.41-.71-2.36-2-3.6-2.93-.13-.1-.14-.19-.08-.35.12-.32,0-.52-.33-.32s-.39,0-.55-.11c-.49-.38-1-.77-1.47-1.15-.12-.09-.22-.27-.38,0s-.49.16-.68,0-.18-.38.06-.55,0-.26-.1-.31c-.84-.53-1.64-1.11-2.48-1.64s-1.5-1-2.28-1.47a65.49,65.49,0,0,0-20.58-7.82,70.63,70.63,0,0,0-17-1.3,83.1,83.1,0,0,0-21,3.64A90.45,90.45,0,0,0,75,70.68a19.76,19.76,0,0,0-2.41,1.15c-.6.38-1.27.53-1.86.89-.19.11-.37.17-.27.45a.39.39,0,0,1,0,.34c-.18.16,0,.6-.27.54s0-.36,0-.55-.08-.43-.38-.27l-1,.5s-.13.07-.12.08c.26.88-.68.3-.82.67-.46-.16-.73.21-1.06.39a3.4,3.4,0,0,1-.54.27A.16.16,0,0,0,66.08,75.25Zm86,.39a.31.31,0,0,0-.2.35c0,.19.19.22.36.2s.25-.08.2-.17A1.85,1.85,0,0,0,152,75.64Z"/><path class="cls-2" d="M36.77,100c-.72.65-.42,1.5-.43,2.26,0,1.54.06,3.08,0,4.62a17,17,0,0,0,.43,3.34,6.31,6.31,0,0,1,0,2.93,2,2,0,0,1-1,1.26,1.49,1.49,0,0,1,.51-1.17c.18-.14.25-.34.11-.49s-.29.06-.4.16a2,2,0,0,0-.26.32c-.22.29-.42.35-.53-.08,0-.12-.11-.12-.19-.11s-.06.11,0,.2-.2.21-.31.28c-.53.33-.53.35,0,.75.14-.11.15-.58.49-.23.1.1.15.25,0,.32-.42.28-.57,1.14-1.36.66-.26.35-.65.22-1,.25a7.51,7.51,0,0,1-2.22-.08,2.72,2.72,0,0,1-2.15-2.54c-.14-1.45-.08-2.9-.12-4.36-.05-1.86,0-3.73-.11-5.6a1.57,1.57,0,0,1,.54-1.31c.18-.19.61-.3.39-.73a.66.66,0,0,0-1-.33c0-1.28,0-2.46,0-3.64a.66.66,0,0,1,.17-.56.6.6,0,0,0,0-.92,1.15,1.15,0,0,1-.25-.81c0-1.14,0-2.28,0-3.42A10.07,10.07,0,0,0,28,89.66c0-.36.08-.54.43-.61s.44-.11.41-.43-.06-.61-.38-.67c-.6-.11-.33-.29,0-.5-.41-.14-.46-.41-.47-.78,0-2.11-.09-4.22-.13-6.32a8.2,8.2,0,0,0-.4-1.39,3.15,3.15,0,0,1,.5-2.69c.49-.69.92-1.37,1.79-1.56a10.9,10.9,0,0,1,4.22-.06,2,2,0,0,1,.8.35,2.26,2.26,0,0,1,.77,1c.41,1,1.2,1.78,1,3a34.49,34.49,0,0,0-.27,9.53c.47-.49.9-1,1.32-1.41L48.32,75.36a4,4,0,0,1,2.61-1.28c1.86-.28,3.69.07,5.53,0a1.68,1.68,0,0,1,1.7.68,1.69,1.69,0,0,1-.32,1.8,27.25,27.25,0,0,1-2.94,3.41C53,82.08,51,84.22,49,86.35c-1.76,1.91-3.26,4-5,6-.2.22-.19.37,0,.59q4.48,4.62,8.95,9.25,3.87,4,7.75,8a10.17,10.17,0,0,1,1.49,1.72c.77,1.27.42,2.18-1,2.6a8.29,8.29,0,0,1-2.22.22c-1.08,0-2.18.1-3.26,0a5,5,0,0,1-3.36-1.66q-3.12-3.15-6.22-6.34a2.78,2.78,0,0,0-.82-.62,14,14,0,0,1-4.77-3.91,14.31,14.31,0,0,0-2.84-2.71c-.2-.13-.39-.41-.65-.06-.08.1-.15,0-.22-.06a.38.38,0,0,0-.63.2C36.15,100.05,36.57,99.89,36.77,100Zm-7.59,5.44c-.13.27-.29.44-.28.71C29.19,106,29.48,105.92,29.18,105.45Z"/><path class="cls-3" d="M77.85,91.93a9.23,9.23,0,0,0-3.14.44,3.56,3.56,0,0,0-2.29,2,1,1,0,0,1-.9.69,42,42,0,0,1-4.76-.1c-1.24-.14-1.72-.85-1.54-2.09a7.13,7.13,0,0,1,1.33-2.84c.13-.19.24-.09.39,0s.36.09.47-.08a.32.32,0,0,0-.13-.45c-.25-.19,0-.28.07-.39a9.47,9.47,0,0,1,5.4-3,24.27,24.27,0,0,1,12.68.75c3.77,1.34,5.68,4.18,6,8.11.22,2.89,0,5.77,0,8.66,0,1.23,0,2.45-.07,3.68a8,8,0,0,1-.27,2,5.12,5.12,0,0,1-2.85,3.48,24.75,24.75,0,0,1-9.89,2.6,21.23,21.23,0,0,1-8.77-1.17A8.2,8.2,0,0,1,64,108a10,10,0,0,1,.38-5.91c1-2.4,2.94-3.66,5.3-4.43a27.84,27.84,0,0,1,5-.93c2.92-.38,5.84-.7,8.75-1.05.66-.08.73-.18.62-.82a3,3,0,0,0-2.2-2.5A12.31,12.31,0,0,0,77.85,91.93Zm-6.32,14.84a2.22,2.22,0,0,0,.71,1,4.53,4.53,0,0,0,2.23.9,17.83,17.83,0,0,0,4.44.07,7.24,7.24,0,0,0,3.44-1.3c1.43-1.11,1.67-2.66,1.6-4.33,0-.15-.08-.2-.21-.23a8.58,8.58,0,0,0-2.61-.29c-1.75.2-3.5.41-5.24.67a10.39,10.39,0,0,0-2.65.47,2.4,2.4,0,0,0-1.77,2.7s0,0,0,.07-.1-.23-.28-.2c0,.27-.11.57.13.77S71.45,106.91,71.53,106.77ZM66.16,90.94c-.13.19-.16.41,0,.47.43.24.26.48.07.75s0,.38.23.42.4,0,.49-.26.33-.49,0-.74S66.43,91.16,66.16,90.94Zm.06,2.83c0-.19-.08-.34-.27-.33a.36.36,0,0,0-.37.41.31.31,0,0,0,.34.31C66.17,94.14,66.19,93.94,66.22,93.77Zm6,10.14c-.26.34-.11-.66-.53-.31s.14.49.07.76A.56.56,0,0,1,72.17,103.91Z"/><path class="cls-3" d="M125.22,85.14c.16-.15.23.27.36,0a.3.3,0,0,0-.13-.47c-.1-.07-.31-.13-.25-.28a.45.45,0,0,1,.43-.25,16.85,16.85,0,0,1,7.43,1.53,10.42,10.42,0,0,1,4.56,4.54A15,15,0,0,1,139,94c.09.39-.11.84.23,1.19a.3.3,0,0,1,0,.3c-.43.5-.09,1.05-.12,1.57,0,.09,0,.21,0,.25.74.69.42,1.6.4,2.37-.06,1.81-1.1,2.66-3,2.67H118.88a9,9,0,0,0,.7,3.11,4.85,4.85,0,0,0,3.16,2.85,8.55,8.55,0,0,0,4.86.09,4.85,4.85,0,0,0,3-2.31,1.41,1.41,0,0,1,1.36-.76c1.59,0,3.18,0,4.77,0l.52,0a1.5,1.5,0,0,1,1.32,2.3,12.75,12.75,0,0,1-9.13,7.44,19.4,19.4,0,0,1-9.48-.38,1.75,1.75,0,0,1-.92-.61,11.22,11.22,0,0,0-3.47-2.92.88.88,0,0,1-.46-.57,5.24,5.24,0,0,0-.46-1.2c-1.05-1.62-1.78-3.41-2.75-5.08a3.26,3.26,0,0,1-.28-1.5,27.49,27.49,0,0,1,.58-9.48,11.56,11.56,0,0,1,4-6.44.64.64,0,0,1,.6-.18,9.35,9.35,0,0,0,6-.85,3.18,3.18,0,0,0,1-.52c.19-.19.28,0,.4.14s.14.51.5.4a.59.59,0,0,0,.46-.71S125.21,85.16,125.22,85.14Zm.32,10.79h5.91c.21,0,.41,0,.36-.3a4.79,4.79,0,0,0-3.56-4.19,11.24,11.24,0,0,0-4-.28,5,5,0,0,0-5,4.28c-.1.46,0,.51.43.51C121.67,95.92,123.6,95.93,125.54,95.93Zm12.83,2.53c0,.36,0,.69.44.72.21,0,.47-.16.4-.29a2.11,2.11,0,0,0-.67-.66C138.43,98.16,138.35,98.38,138.37,98.46ZM126.64,85.93c0-.25,0-.51-.3-.51a.33.33,0,0,0-.34.37.45.45,0,0,0,.47.5C126.79,86.3,126.58,86,126.64,85.93Z"/><path class="cls-3" d="M142.21,124.18a3.37,3.37,0,0,1-1.67-3.42c0-.2,0-.39.3-.47s.33-.48.33-.74a.69.69,0,0,1,.25-.58,3.36,3.36,0,0,1,2.54-1,21.55,21.55,0,0,0,3.68-.07,2.25,2.25,0,0,0,1.81-1.29,16.72,16.72,0,0,1,1.17-2,1.22,1.22,0,0,0,0-1.37c-.13-.3-.28-.59-.42-.88,0-.08-.1-.21-.07-.24.45-.4,0-.53-.22-.75a2,2,0,0,1-.55-1.25c0-.37-.36-.54-.5-.86-2.26-5.29-4.38-10.65-6.57-16-.5-1.23-1-2.46-1.5-3.71a1.67,1.67,0,0,0,.34,0c.16,0,.37,0,.43-.22s0-.23-.14-.31A.35.35,0,0,0,141,89c-.33.32-.42.07-.48-.19-.18-.82-.61-1.62-.09-2.47a2.25,2.25,0,0,1,1.8-.83c.19,0,.24.19.31.32s.23.29.45.21.33-.15.25-.37.09-.23.22-.23a7.56,7.56,0,0,1,2.37.19,3,3,0,0,1,1.76,1.73c-.33.06-.5-.2-.72-.35a1.1,1.1,0,0,0-.34.89c.22-.46.5-.28.78-.2s.52.12.66.47q2.58,6.42,5.19,12.84a1.91,1.91,0,0,0,2,.92c.22-.08.26-.27.32-.44l4.58-12,.12-.34a10.13,10.13,0,0,1,.77-1.92c.39-.59,1.27-.43,1.81-.84a5.51,5.51,0,0,1,3.23-.83c.26,0,.52-.07.77-.11a1.43,1.43,0,0,1,1.68,1.34,3.92,3.92,0,0,1-.31,1.66q-3.27,8.37-6.53,16.72a2.55,2.55,0,0,1-.31.59A11.07,11.07,0,0,0,159.2,111a12,12,0,0,1-1,2.82q-1,2.77-2.15,5.54a7.41,7.41,0,0,1-7.47,5.09q-1.89,0-3.78.06a4.35,4.35,0,0,1-2.39-.25l.29-.8.45.62a7.74,7.74,0,0,0,.29-.84c0-.17.23-.38,0-.54s-.45-.28-.7-.06c-.08.07-.17.21-.26,0s.09-.28-.15-.21a.27.27,0,0,0-.21.3A11.34,11.34,0,0,0,142.21,124.18Zm6.46-17.53c.23,0,.42-.05.47-.31s.24-.58-.1-.79a5.67,5.67,0,0,0-.65-.33c-.11,0-.25-.21-.34,0a.26.26,0,0,0,.15.39c.44.12.33.4.21.68S148.4,106.66,148.67,106.65Z"/><path class="cls-1" d="M61.05,135.67c0,1.6,0,3.19,0,4.78,0,1.33-.59,1.89-1.91,1.9-.36,0-.73,0-1.09,0a1.46,1.46,0,0,1-1.54-1.45,15.32,15.32,0,0,1,.37-5.09,9.54,9.54,0,0,0,.39-2.86,2.9,2.9,0,0,0-.64-1.77.93.93,0,0,1-.2-.3,3,3,0,0,0-2.69-2.18,7.7,7.7,0,0,0-2.79,0,2.84,2.84,0,0,0-2.43,3c0,1.54,0,3.08,0,4.62,0,1.38,0,2.77,0,4.15a1.54,1.54,0,0,1-1.61,1.71,8.55,8.55,0,0,1-1.24,0,1.62,1.62,0,0,1-1.72-1.84c0-2.32,0-4.64.08-7,0-.6,0-1.21,0-1.81a2.9,2.9,0,0,0-2.45-3,7.23,7.23,0,0,0-3.24,0A2.81,2.81,0,0,0,36,131.45c0,1,0,2,0,3.06l-.06,5.76c0,1.26-.55,1.84-1.8,1.82-1.73,0-1.42.31-2-1.48a17.86,17.86,0,0,1-.45-5.92,27.9,27.9,0,0,0-.18-6.77,1.37,1.37,0,0,1,.76-1.45,1,1,0,0,1,.4-.11,4.93,4.93,0,0,0,3-1,9.08,9.08,0,0,1,4.77-1,13.59,13.59,0,0,1,4,.46,4.6,4.6,0,0,1,2.21,1.38c.11.13.19.3.4.1a7.29,7.29,0,0,1,4.36-1.72,12.49,12.49,0,0,1,5.33.44,6,6,0,0,1,4.4,5.78c.05,1.6,0,3.21,0,4.82Z"/><path class="cls-4" d="M94.51,100.55c0-1.94,0-3.88,0-5.82,0-3.22,0-6.44,0-9.66a23.45,23.45,0,0,1,0-2.78c0-.08-.08-.2,0-.23.66-.18.15-.43.08-.71a4.6,4.6,0,0,1,.18-3,2.14,2.14,0,0,1,1.95-1.24,10,10,0,0,1,2.44,0,2.13,2.13,0,0,1,2,2.23c.07,1.52,0,3,.07,4.56,0,.89,0,1.77,0,2.65a23.44,23.44,0,0,1-.34,3.45c-.19,2.16-.24,4.32-.38,6.47-.17,2.62-.3,5.25-.47,7.87a40.13,40.13,0,0,0,.2,5.59c.09,1.21.15,2.42.12,3.63,0,1.06-.49,1.48-1.56,1.53a15,15,0,0,1-2,0,2.26,2.26,0,0,1-2.2-2.26c0-.6-.06-1.21-.06-1.81q0-5.22,0-10.43Zm1.38-19.91c.19-.37.34-.63.48-.91a.5.5,0,0,0-.42-.68c-.14,0-.53.43-.42-.2,0,0-.33,0-.33.1,0,.54-.31,1.08,0,1.66.2-.21.22-.49.45-.64ZM96,77.82c-.06-.11.08-.37-.18-.32a.55.55,0,0,0-.52.42.29.29,0,0,0,.31.33C95.86,78.26,96,78.08,96,77.82Zm1.13,3.76c-.15-.11-.06-.49-.34-.36s-.53.22-.37.67A.58.58,0,0,1,97.13,81.58Z"/><path class="cls-3" d="M109.12,82c.19,0,0-.37.29-.33a.28.28,0,0,1,.27.21c.06.19-.08.27-.22.36s-.19.15-.13.25.28-.09.45,0c0,.21.14.46-.24.48,0,0-.05.06-.08.07-.25.08-.13.62-.49.48-.21-.08-.33-.39-.5-.59,0,0-.06,0-.11-.05-.11.84.72.91,1.09,1.35.29-.16-.27-.66.37-.72,0,.91,0,1.82,0,2.72.08,1.43-.31,2.81-.36,4.23s-.18,3.1-.28,4.65l-.51,8.23a48.6,48.6,0,0,0,.23,7.14,26.94,26.94,0,0,1,0,3.11,1.25,1.25,0,0,1-1.38,1.37c-.59,0-1.18,0-1.76,0a2.4,2.4,0,0,1-2.65-2.59c0-.57,0-1.14,0-1.71,0-3.37,0-6.75,0-10.12-.07-5.54-.07-11.07-.08-16.61,0-1.4,0-2.8,0-4.2,0-1.91.9-2.79,2.8-2.8.45,0,.9,0,1.35,0a2.37,2.37,0,0,1,2.61,2.56c0,.26,0,.52,0,.78s.16.86-.5.9c-.08,0-.17.11-.25.17C108.7,81.59,108.66,81.83,109.12,82Zm-.41-4.19c-.43.22-.29-.33-.52-.33-.45.23-.27.5,0,.86C108.18,77.94,108.48,78,108.71,77.81Z"/><path class="cls-1" d="M72.48,123.73a12.12,12.12,0,0,1,5.62,1.13,6.66,6.66,0,0,1,3.62,5.3,14.27,14.27,0,0,1-.59,6.86,6.87,6.87,0,0,1-6.3,4.82,12.64,12.64,0,0,1-6.62-1.06,6.67,6.67,0,0,1-2-1.58,3.43,3.43,0,0,1-.6-1.74,30.48,30.48,0,0,1-.36-7.69c0-.12,0-.25,0-.37-.18-1.9.88-3.17,2.26-4.22A7.91,7.91,0,0,1,72.48,123.73Zm4.86,8.66c0-.36,0-.72-.06-1.08A3.5,3.5,0,0,0,74.53,128a6.86,6.86,0,0,0-1.81-.15,3.43,3.43,0,0,0-3.32,2.36,9,9,0,0,0-.41,4.39A3.72,3.72,0,0,0,72.46,138a3.78,3.78,0,0,0,4.32-2.43A8.69,8.69,0,0,0,77.34,132.39Z"/><path class="cls-1" d="M91.43,136.15c.5-1,1-1.89,1.42-2.8,1.13-2.25,2.28-4.5,3.39-6.77a2,2,0,0,1,2.14-1.27c.41,0,.83,0,1.24.1a1.25,1.25,0,0,1,1.2,1.7,4,4,0,0,1-.33.87q-3.22,6.51-6.46,13a2.13,2.13,0,0,1-2.1,1.29,2.43,2.43,0,0,1-2.44-1.41c-.67-1.25-1.23-2.55-1.81-3.84a13.68,13.68,0,0,0-1.57-2.79,1.71,1.71,0,0,1-.26-.5c-.83-2.35-1.65-4.7-2.48-7a2.34,2.34,0,0,1-.15-.87,1.31,1.31,0,0,1,1.39-1.35c.42,0,.83,0,1.25,0a2.1,2.1,0,0,1,2,1.59c.88,2.57,1.79,5.12,2.68,7.68Z"/><path class="cls-1" d="M115.76,137.76c0-2.35.13-4.7,0-7.06a28.4,28.4,0,0,0-1.19-7.76,6.08,6.08,0,0,1-.12-2.72,1.23,1.23,0,0,1,1-1,5.57,5.57,0,0,1,2.26-.15,1.48,1.48,0,0,1,1.32,1.6q.22,4.66.43,9.33c.11,2.28.21,4.56.32,6.84a1.65,1.65,0,0,0,1.86,1.81c1.34,0,1.72.4,1.82,1.72l0,.41a1.6,1.6,0,0,1-1.76,1.92,8.87,8.87,0,0,1-3.24-.3,4.42,4.42,0,0,1-1.65-1,2.8,2.8,0,0,1-1.1-2.39A10.41,10.41,0,0,0,115.76,137.76Z"/><path class="cls-1" d="M107.76,125.11h.36c1.28,0,1.84.5,1.89,1.79.18,4.29.35,8.59.54,12.89a6.67,6.67,0,0,1,0,1.34,1.3,1.3,0,0,1-1,1.16,5.54,5.54,0,0,1-2.22.11c-.87-.13-1.29-.69-1.33-1.7-.09-1.95-.16-3.9-.24-5.85-.07-1.71-.14-3.42-.2-5.13,0-.31-.1-.5-.46-.45a1.86,1.86,0,0,1-.47,0c-.62-.09-.8-.33-.73-.95a8.12,8.12,0,0,1,.51-2.48.89.89,0,0,1,1-.62c.8,0,1.62,0,2.43,0Z"/><path class="cls-1" d="M107.55,118.67c1.75,0,2.12.32,2.22,2.06.11,2-.41,2.59-2.44,2.6-1.57,0-2.16-.57-2.19-2.14,0-.21,0-.42,0-.62,0-1.27.54-1.86,1.8-1.9C107.14,118.66,107.34,118.67,107.55,118.67Z"/><path class="cls-1" d="M75.5,118.25l1.35.09a1,1,0,0,1,.9.59.94.94,0,0,1-.26,1.09c-.8.76-1.63,1.49-2.47,2.2a1.84,1.84,0,0,1-1.45.42c-.4,0-.8,0-1.19,0-.55,0-.84-.42-.63-.93a16.61,16.61,0,0,1,1.58-2.9,1.31,1.31,0,0,1,1.14-.52Z"/><path class="cls-5" d="M115,139.47a6.66,6.66,0,0,1-.58-2.52c-.16-3.24-.3-6.49-.45-9.73-.07-1.54-.15-3.07-.18-4.62a9.1,9.1,0,0,1,.69,2.28A31.83,31.83,0,0,1,115,130c.12,3-.1,6.08,0,9.13A1.35,1.35,0,0,1,115,139.47Z"/><path class="cls-5" d="M64.82,138.44c-2.08-2.11-2.26-8-1-10.56C63.8,131.48,63.73,135,64.82,138.44Z"/><path class="cls-6" d="M30.77,128.86a12.18,12.18,0,0,1,.4,3.65c0,2-.2,4.08-.12,6.12a12.63,12.63,0,0,0,.92,4.28,1.39,1.39,0,0,1-1.32-1.55c0-1.4,0-2.8,0-4.2l.09-8C30.76,129.06,30.76,129,30.77,128.86Z"/><path class="cls-5" d="M89.63,142.53a1.93,1.93,0,0,1-2.1-1.23c-.8-2.19-1.56-4.39-2.33-6.59,0,0,0-.07,0-.15a10.63,10.63,0,0,1,1.35,2.22c.63,1.31,1.12,2.68,1.82,4A12.18,12.18,0,0,0,89.63,142.53Z"/><path class="cls-5" d="M55.89,137.35v-6.13a1.6,1.6,0,0,1,.63,1,5.81,5.81,0,0,1-.05,2.87c-.14.76-.33,1.51-.5,2.26Z"/><path class="cls-7" d="M103.9,125.21c-.78,1.08-.72,2.33-1,3.65a3.19,3.19,0,0,1-.39-2.68C102.7,125.56,103.21,125.29,103.9,125.21Z"/><path class="cls-8" d="M174,76.84c-.21.39-.63.51-.76.9,0,.09-.21.28-.37.08s-.52-.32-.5-.67c0-.08.11-.12.19,0s.31.32.35,0,.43-.43,0-.62c-.12,0-.36,0-.34-.24s.34-.26.41-.22c.29.18.27-.52.51-.18.09.12-.05.39-.06.6S173.39,76.88,174,76.84Z"/><path class="cls-7" d="M160.19,70.66c-.08,0-.21-.07-.21-.27s.54-.84.65-.81a.61.61,0,0,1,.48.55C161.13,70.41,160.71,70.67,160.19,70.66Z"/><path class="cls-7" d="M161.93,70.91c0-.19,0-.46.29-.51s.65.47.66.71-.12.4-.37.4A.54.54,0,0,1,161.93,70.91Z"/><path class="cls-7" d="M155.07,62.74c-.25,0-.42-.05-.38-.21.07-.4.43-.44.75-.47s.48.06.45.31C155.82,62.93,155.28,62.57,155.07,62.74Z"/><path class="cls-5" d="M159.49,68.2a.31.31,0,0,1-.27.29.26.26,0,0,1-.32-.19c-.07-.31-.15-.59-.5-.7-.1,0-.13-.17-.08-.28a.14.14,0,0,1,.21-.07,4.79,4.79,0,0,1,.93.81S159.48,68.16,159.49,68.2Z"/><path class="cls-7" d="M163.8,68.58c.2,0,.4,0,.39.21a.36.36,0,0,1-.43.34c-.25,0-.66-.06-.65-.27C163.14,68.46,163.58,68.68,163.8,68.58Z"/><path class="cls-7" d="M153.43,62.88a.42.42,0,0,1-.38.41c-.27,0-.28-.21-.31-.39s.11-.34.34-.35S153.43,62.58,153.43,62.88Z"/><path class="cls-6" d="M155.36,65.78a1.3,1.3,0,0,1,.26-1.16c.07-.1.13-.23.28-.15s.06.19,0,.28C155.73,65.09,155.55,65.44,155.36,65.78Z"/><path class="cls-6" d="M158.28,66a2.45,2.45,0,0,1-.38-.13.25.25,0,0,1-.14-.3c.06-.13.17,0,.27,0a3.62,3.62,0,0,0,.46.06c.15,0,.38-.07.4.12s-.23.22-.39.27Z"/><path class="cls-6" d="M151.21,64.78c.3,0,.6-.3.81,0,.09.13,0,.34-.19.43C151.35,65.48,151.56,64.76,151.21,64.78Z"/><path class="cls-6" d="M162.39,70.06c-.14,0-.22-.08-.2-.25a.47.47,0,0,1,.42-.46c.19,0,.28.12.26.3A.43.43,0,0,1,162.39,70.06Z"/><path class="cls-7" d="M150.75,64.43c-.18,0-.32-.12-.33-.32a.37.37,0,0,1,.35-.37c.21,0,.27.09.27.27A.41.41,0,0,1,150.75,64.43Z"/><path class="cls-7" d="M165.1,66.86c.17,0,.28.13.27.32a.31.31,0,0,1-.33.32.28.28,0,0,1-.3-.34C164.76,67,164.92,66.89,165.1,66.86Z"/><path class="cls-6" d="M151.91,78.83c-.08.14-.07.4-.3.39s-.24-.19-.22-.35.07-.36.3-.34S151.93,78.65,151.91,78.83Z"/><path class="cls-9" d="M66.08,75.25a.16.16,0,0,1,.18-.11c.15.4.56.09.8.28C66.47,75.81,66.13,75.75,66.08,75.25Z"/><path class="cls-6" d="M154.53,64.82a.32.32,0,0,1-.29.33.26.26,0,0,1-.3-.27c0-.17,0-.39.21-.41S154.45,64.66,154.53,64.82Z"/><path class="cls-7" d="M157.63,65.08a.27.27,0,0,1-.31-.27c0-.18.08-.31.27-.3a.3.3,0,0,1,.31.33C157.89,65,157.78,65.07,157.63,65.08Z"/><path class="cls-9" d="M64.24,70.18c.19.21.18.45,0,.54a1.26,1.26,0,0,1-.59,0,.13.13,0,0,1-.1-.1c0-.1.08-.14.16-.16S64.2,70.52,64.24,70.18Z"/><path class="cls-6" d="M62.65,73.28l-.18,0a.3.3,0,0,1-.29-.35.22.22,0,0,1,.2-.21c.19,0,.27.1.3.27a.54.54,0,0,0,.07.13h0c-.12,0-.18.08-.1.21Z"/><path class="cls-6" d="M70.53,76.13c-.11,0-.23-.06-.19-.18a.68.68,0,0,1,.41-.48.13.13,0,0,1,.15.16C70.86,75.85,70.81,76.08,70.53,76.13Z"/><path class="cls-8" d="M66.16,53.74c-.22-.2-.51-.18-.72-.42.21-.1.39-.26.61-.14S66.18,53.5,66.16,53.74Z"/><path class="cls-10" d="M65.32,53.81c.14.21.35.39.25.67,0,.07-.16.13-.22.07C65.15,54.33,65.27,54.07,65.32,53.81Z"/><path class="cls-9" d="M162.62,67.89c.15,0,.21.07.23.2s0,.25-.16.27a.22.22,0,0,1-.27-.23A.21.21,0,0,1,162.62,67.89Z"/><path class="cls-6" d="M157.22,63.86c-.07.3-.19.47-.45.47s-.21-.08-.17-.19S156.94,63.91,157.22,63.86Z"/><path class="cls-9" d="M64.46,77c-.22.27-.26.53-.54.52a.14.14,0,0,1-.11-.2C63.91,77.08,64.1,77,64.46,77Z"/><path class="cls-6" d="M157.56,67.34c-.05.17-.13.3-.32.29a.19.19,0,0,1-.18-.21.27.27,0,0,1,.31-.28A.19.19,0,0,1,157.56,67.34Z"/><path class="cls-9" d="M148.31,62.74c.12,0,.25,0,.19.16s0,.28-.19.26-.3-.08-.3-.22S148.2,62.78,148.31,62.74Z"/><path class="cls-7" d="M66.85,67.77c.15,0,.25,0,.26.15a.22.22,0,0,1-.24.26c-.12,0-.24-.05-.25-.15S66.75,67.8,66.85,67.77Z"/><path class="cls-9" d="M68.12,75.83l-.57.48C67.53,75.85,67.75,75.75,68.12,75.83Z"/><path class="cls-9" d="M69.08,74.63a.68.68,0,0,1,.37.76.79.79,0,0,1-.36-.77Z"/><path class="cls-9" d="M71.32,73.06c-.19.23-.2.48-.47.38a.16.16,0,0,1-.09-.22C70.86,73,71.06,73.15,71.32,73.06Z"/><path class="cls-11" d="M131.22,145.88l.81.15C131.68,146.2,131.66,146.2,131.22,145.88Z"/><path class="cls-10" d="M171.07,127.09c-.12-.09-.25-.19-.14-.39.22.06.13.24.17.37Z"/><path class="cls-11" d="M132.31,146.12h0a.06.06,0,0,1,0,0h.06Z"/><path class="cls-9" d="M69.09,74.62l0,0h0l0,0Z"/><path class="cls-12" d="M152,75.64a1.85,1.85,0,0,1,.36.38c0,.09-.09.16-.2.17s-.32,0-.36-.2A.31.31,0,0,1,152,75.64Z"/><path class="cls-13" d="M62.65,73.28c-.08-.13,0-.19.1-.21C62.85,73.2,62.72,73.23,62.65,73.28Z"/><path class="cls-14" d="M29.18,105.45c.3.47,0,.57-.28.71C28.89,105.89,29.05,105.72,29.18,105.45Z"/><path class="cls-12" d="M66.22,93.77c0,.17,0,.37-.3.39a.31.31,0,0,1-.34-.31.36.36,0,0,1,.37-.41C66.14,93.43,66.2,93.58,66.22,93.77Z"/><path class="cls-14" d="M72.17,103.91a.56.56,0,0,0-.46.45c.07-.27-.46-.43-.07-.76S71.91,104.25,72.17,103.91Z"/><path class="cls-12" d="M138.37,98.46c0-.08.06-.3.17-.23a2.11,2.11,0,0,1,.67.66c.07.13-.19.31-.4.29C138.4,99.15,138.41,98.82,138.37,98.46Z"/><path class="cls-12" d="M126.64,85.93c-.06.11.15.37-.17.36a.45.45,0,0,1-.47-.5.33.33,0,0,1,.34-.37C126.65,85.42,126.65,85.68,126.64,85.93Z"/><path class="cls-12" d="M148.67,106.65c-.27,0-.38-.1-.26-.38s.23-.56-.21-.68a.26.26,0,0,1-.15-.39c.09-.19.23,0,.34,0a5.67,5.67,0,0,1,.65.33c.34.21.14.52.1.79S148.9,106.66,148.67,106.65Z"/><path class="cls-12" d="M96,77.82c0,.26-.14.44-.39.43a.29.29,0,0,1-.31-.33.55.55,0,0,1,.52-.42C96.08,77.45,95.94,77.71,96,77.82Z"/><path class="cls-12" d="M97.13,81.58a.58.58,0,0,0-.71.31c-.16-.45.17-.57.37-.67S97,81.47,97.13,81.58Z"/><path class="cls-14" d="M108.71,77.81c-.23.16-.53.13-.5.53-.29-.36-.47-.63,0-.86C108.42,77.48,108.28,78,108.71,77.81Z"/><circle class="cls-15" cx="100.65" cy="99.64" r="95.5"/></svg>