<svg id="Capa_1" data-name="Capa 1" xmlns="http://www.w3.org/2000/svg" viewBox="0 0 200 200"><defs><style>.cls-1,.cls-2{fill:none;}.cls-1{stroke:#3f6eed;stroke-miterlimit:10;stroke-width:4px;}.cls-3,.cls-6{fill:#3f6eed;}.cls-4{fill:#da0000;}.cls-5{fill:#1c2f6a;}.cls-6{font-size:8.74px;font-family:BigJohnPRO-Regular, Big John PRO;letter-spacing:0.4em;}.cls-7{letter-spacing:0.39em;}.cls-8{letter-spacing:0.4em;}</style></defs><circle class="cls-1" cx="101.07" cy="100.92" r="95.5"/><path class="cls-2" d="M97.55,90.81a1.91,1.91,0,1,0,1.9,1.9A1.9,1.9,0,0,0,97.55,90.81Z"/><path class="cls-3" d="M68.13,92.91H54.72V77.56a14.08,14.08,0,1,0-28.16,0v43.5H71.91a14,14,0,0,0,9.52-3.73A29.37,29.37,0,0,1,68.13,92.91Z"/><path class="cls-3" d="M171.47,69.2h0a14.13,14.13,0,0,0-19.91,0L139.4,81.36,128.55,70.51a14.11,14.11,0,0,0-15.65-2.9,29.43,29.43,0,0,1,11,38.11l5,5,10.45,10.45,32.07-32.07A14.13,14.13,0,0,0,171.47,69.2Z"/><path class="cls-4" d="M108.64,90.42a14.11,14.11,0,0,1,0-19.91,13.72,13.72,0,0,1,4.26-2.9,29.43,29.43,0,0,0-44.78,25.1,1.34,1.34,0,0,0,0,.2h3.78A14.12,14.12,0,0,1,86,107h0a14.05,14.05,0,0,1-4.56,10.35,29.42,29.42,0,0,0,42.51-11.61l-4.45-4.45Zm-11.09,4.2a1.91,1.91,0,1,1,1.9-1.91A1.9,1.9,0,0,1,97.55,94.62Z"/><path class="cls-5" d="M86,107h0A14.12,14.12,0,0,0,71.91,92.91H68.13a29.37,29.37,0,0,0,13.3,24.42A14.05,14.05,0,0,0,86,107Z"/><path class="cls-5" d="M112.9,67.61a13.72,13.72,0,0,0-4.26,2.9,14.11,14.11,0,0,0,0,19.91l10.85,10.85,4.45,4.45a29.43,29.43,0,0,0-11-38.11Z"/><text class="cls-6" transform="translate(37.77 135.54) scale(0.98 1)">tele<tspan class="cls-7" x="26.64" y="0">c</tspan><tspan class="cls-8" x="33.64" y="0">omuni</tspan><tspan class="cls-7" x="72.38" y="0">c</tspan><tspan class="cls-8" x="79.38" y="0">aciones</tspan></text></svg>