<svg id="Capa_1" data-name="Capa 1" xmlns="http://www.w3.org/2000/svg" viewBox="0 0 200 200"><defs><style>.cls-1,.cls-4,.cls-6{fill:#3a3636;}.cls-1,.cls-2,.cls-3,.cls-4,.cls-5{fill-rule:evenodd;}.cls-2{fill:#c5117e;}.cls-3{fill:#373332;}.cls-4{stroke:#211915;stroke-miterlimit:22.93;stroke-width:0.22px;}.cls-5{fill:#211915;}.cls-6{font-size:10.49px;font-family:MyriadPro-BlackIt, Myriad Pro;font-weight:800;font-style:italic;letter-spacing:0.2em;}.cls-7{letter-spacing:0.1em;}.cls-8{fill:none;stroke:#be347f;stroke-miterlimit:10;stroke-width:4px;}</style></defs><path class="cls-1" d="M19.27,115,38.42,88.71l4.78,0L52,115H46.5l-2.39-8.42H31.25l-5.81,8.45L19.27,115Zm14.17-11.57,9.78,0-2.9-10.07Z"/><path class="cls-2" d="M48,89.35l2.83,6.59S71.71,77.87,106,77.67s50.45,3.61,50.45,3.61S121.78,71.8,96.35,74,48,89.35,48,89.35Z"/><polygon class="cls-3" points="51.14 97.09 57.11 115 59.78 114.99 74.68 97.09 68.67 97.04 59.83 107.47 56.63 97.09 51.14 97.09"/><polygon class="cls-3" points="160.76 115.05 166.26 115.05 172.63 88.66 166.74 88.68 160.76 115.05"/><path class="cls-1" d="M90.66,115,95,97.16c-9.47-.15-24.76-.1-25.14,10.2-.34,9.07,15.25,9.18,16.44,4.49l-.8,3.15ZM89.4,100.14c-.4,2.76-1.24,7-2.46,8.44C78.19,119.28,64.12,100.75,89.4,100.14Z"/><path class="cls-4" d="M95.46,115h5.24c.64-2.67,1.37-7.47,2.52-10.82.44-1.27,4.7-4.31,7.42-4.21,3.62.13,4.88,2.34,4.54,5-.45,3.54-2.42,7.92-3,10l5,0s4.14-13,2.39-15.17a7.18,7.18,0,0,0-4.41-2.45c-3.94-.78-6.94.37-10.12,2.45-.5.32-.83.55-.83.55L105,97l-5.53,0Z"/><polygon class="cls-1" points="121.96 97.64 137.97 97.64 136.97 100.33 120.96 100.33 121.96 97.64"/><path class="cls-1" d="M129,94.1h4.24s-5.93,15.82-4.19,17.07,7.68-.53,7.68-.53v3.47s-11.89,3-12.69-1.8S129,94.1,129,94.1Z"/><path class="cls-4" d="M143.83,103.37l11.78.1s-1.72-3.4-5.36-3.4-6.42,3.3-6.42,3.3Zm-1.54,2.35s.1,6.28,6.63,6.31,10.2-2.93,10.2-2.93l0,3.51S153,115,148.44,115s-11.74-1.9-11.6-8.5S144.26,97,150.32,97c10.82,0,10.48,8.68,10.48,8.68Z"/><path class="cls-5" d="M175.44,83.69h1.07c.47,0,1,.17,1,.77s-.64.74-1.24.74h-.82v.29h1l1.17,1.8H178l-1.16-1.79c.55-.09,1-.39,1-1s-.39-1.08-1.28-1.08H175.1v3.9h.34v-3.6Z"/><path class="cls-5" d="M176.3,82.05a3.3,3.3,0,1,1-3.3,3.29,3.29,3.29,0,0,1,3.3-3.29v.29a2.92,2.92,0,0,0-3,3,3,3,0,1,0,5.92,0,2.91,2.91,0,0,0-2.95-3v-.29Z"/><text class="cls-6" transform="translate(69.82 123.73)">4G<tspan class="cls-7" x="17.38" y="0">L</tspan><tspan x="23.7" y="0">TE</tspan></text><circle class="cls-8" cx="99.44" cy="100" r="95.5"/></svg>