<svg id="Capa_1" data-name="Capa 1" xmlns="http://www.w3.org/2000/svg" viewBox="0 0 200 200"><defs><style>.cls-1{fill:#249ecd;}.cls-2{fill:none;stroke:#249ecd;stroke-miterlimit:10;stroke-width:4px;}</style></defs><path class="cls-1" d="M82,112.23c-2,0-4,.09-6,0A2.57,2.57,0,0,1,74.22,111c-2-3.46-4-7-6-10.48-.52-.93-.33-1.51.76-1.64.78-.1,1.57-.1,2.34-.18a3.33,3.33,0,0,0,3.16-3.29,3.53,3.53,0,0,0-3.16-3.35,21,21,0,0,0-2.51,0c-2.38,0-2.4,0-2.4,2.49,0,5.12,0,10.25,0,15.37,0,2.21-.19,2.41-2.42,2.35h-.63c-3.89,0-3.62.63-3.61-3.74q0-9.57,0-19.15c0-1.88.16-2,2.06-2,3.82,0,7.64-.07,11.45.1a8.15,8.15,0,0,1,7.92,7.14,6.86,6.86,0,0,1-3,6.67c-1.37,1-1.42,1.89-.56,3.26,1.5,2.38,2.84,4.87,4.24,7.32A2,2,0,0,1,82,112.23Z"/><path class="cls-1" d="M25.41,114.05c-1.63,0-3.25,0-4.87,0-1.32-.05-1.66-.61-1.16-1.8,1.41-3.39,4.09-4.85,7.62-5a26.57,26.57,0,0,0,4.82-.36,7.47,7.47,0,0,0,5.7-7.19,7.84,7.84,0,0,0-6.26-6.93,31.71,31.71,0,0,0-4.68-.27,7.84,7.84,0,0,1-7.32-5.19c-.39-1.13.12-1.73,1.08-1.71,4.68.11,9.4-.57,14,.93,6.29,2.06,10.44,7.42,10.38,13.59-.08,6.7-5.44,12.64-12.44,13.62-2.27.32-4.57.35-6.86.51Z"/><path class="cls-1" d="M85.51,99.79c0-3.56,0-7.12,0-10.68,0-1.36.52-1.89,1.84-1.88q6.58,0,13.18,0c1.28,0,1.71.54,1.71,1.81,0,3.42,0,3.42-3.41,3.4-1.72,0-3.45,0-5.18,0-1.17,0-1.69.4-1.67,1.66.06,3.79-.2,3.35,3.25,3.33h1.42c2.82,0,2.78,0,2.75,2.86,0,1.15-.48,1.63-1.59,1.61-1.41,0-2.83,0-4.24,0-1.07,0-1.6.32-1.54,1.56.16,3.46.11,3.47,3.68,3.47h4.86c1.15,0,1.66.49,1.67,1.72,0,3.61.07,3.59-3.47,3.57-3.71,0-7.43,0-11.14,0-1.84,0-2.1-.28-2.1-2.09Z"/><path class="cls-1" d="M155,87.28c2,0,3.78,0,5.55,0,1.18,0,1.57.84,1.9,1.77q2.21,6.2,4.46,12.38a18.57,18.57,0,0,0,1.1,2.12c.49-1,.84-1.67,1.08-2.33,1.49-4.13,3-8.25,4.43-12.39.35-1,.84-1.58,2-1.52,1.76.08,3.53,0,5.55,0-1.72,4.14-3.35,8-5,11.92-1.52,3.66-3.09,7.31-4.52,11-.58,1.5-1.43,2.21-3,2a9.1,9.1,0,0,0-1.73,0,2.18,2.18,0,0,1-2.31-1.5q-4.46-10.79-8.93-21.57C155.4,88.67,155.28,88.1,155,87.28Z"/><path class="cls-1" d="M121.24,112.75a54.16,54.16,0,0,1-7.58-1c-7-1.85-11.33-9.44-9.07-15.65,1.89-5.16,7.73-8.9,13.93-8.89,2.3,0,4.6.05,6.9.1,1.66,0,1.94.52,1.21,2-1.34,2.77-3.69,3.81-6.62,3.93a19.45,19.45,0,0,0-4.19.38,6.39,6.39,0,0,0-5.07,6.33,6.64,6.64,0,0,0,5.6,6.26,34.47,34.47,0,0,0,4.21.29,6.69,6.69,0,0,1,6.1,4c.67,1.43.39,1.93-1.16,2s-2.82,0-4.24,0Z"/><path class="cls-1" d="M141.07,87.22c2.77,0,5.54,0,8.31,0,1.86,0,2.1.2,2.11,2,0,3.21,0,3.2-3.25,3.21-5.06,0-4.2-.44-4.24,4.25,0,4.5,0,9,0,13.49,0,1.82-.24,2-2.1,2-.89,0-1.78,0-2.67,0-1.38.09-1.83-.56-1.82-1.87,0-5,0-10,0-15.06,0-2.6-.22-2.79-2.89-2.82-.88,0-1.77,0-2.66,0a1.57,1.57,0,0,1-1.74-1.76c0-.41,0-.83,0-1.25,0-1.84.34-2.22,2.15-2.22,2.93,0,5.86,0,8.78,0Z"/><path class="cls-1" d="M48.21,99.63c0-3.45,0-6.9,0-10.35,0-1.82.23-2,2.1-2,.89,0,1.78.06,2.67,0,1.32-.09,1.88.41,1.87,1.79q-.06,10.74,0,21.48c0,1.17-.39,1.75-1.64,1.69a32.83,32.83,0,0,0-3.29,0c-1.3.06-1.74-.55-1.73-1.8C48.23,106.83,48.21,103.23,48.21,99.63Z"/><path class="cls-1" d="M29.72,95.26a4.66,4.66,0,1,1,.08,9.3A5,5,0,0,1,24.68,100C24.6,97.54,27,95.28,29.72,95.26Z"/><circle class="cls-2" cx="100.12" cy="99.84" r="95.5"/></svg>