<svg id="Capa_1" data-name="Capa 1" xmlns="http://www.w3.org/2000/svg" viewBox="0 0 200 200"><defs><style>.cls-1{fill:#0e1838;}.cls-2{fill:#b50a1d;}.cls-3{fill:none;stroke:#b50a1d;stroke-miterlimit:10;stroke-width:4px;}</style></defs><path class="cls-1" d="M51.94,105.27c0,2.49,0,5,0,7.49,0,1.63-.17,3.22-2.2,3.18s-2-1.58-2-3.07c0-5,.13-10,0-15A13.72,13.72,0,0,0,35.07,84.62c-6.15-.53-12.38,4.09-13.9,10.47a12.65,12.65,0,0,0,3.74,12.59,12.7,12.7,0,0,0,13,3.33,10.26,10.26,0,0,0,1.69-.59c1.25-.62,2.58-1.07,3.27.57s-.32,2.74-1.69,3.36a16.58,16.58,0,0,1-10.55,1A17.59,17.59,0,0,1,16.74,95.58c1.18-8.83,9.59-15.81,18.31-15.2A17.77,17.77,0,0,1,51.94,98.07C52,100.47,51.94,102.87,51.94,105.27Z"/><path class="cls-1" d="M67.16,114.58c-1.94.78-3.51,2-5.55,1.53-2.68-.61-4.59-2.11-5.23-4.77-.77-3.24-.61-6.47,2.22-8.78a5.78,5.78,0,0,1,7.23-.44c.66.42,1,.58,1.67-.1,1.81-1.69,2.75-.56,2.79,1.33.1,5.6,0,11.19,0,16.79,0,1-.3,1.91-1.4,2s-1.73-.82-1.75-2C67.14,118.37,67.16,116.59,67.16,114.58Zm0-5.91c0-2.66-1.7-4.63-4-4.62s-4,2-3.94,4.68c0,2.48,1.71,4.43,3.85,4.5S67.12,111.22,67.13,108.67Z"/><path class="cls-1" d="M87.34,108.52c0,1.7.06,3.4,0,5.1-.07,1.54-1.32,3-2.42,2-1.85-1.68-2.93-.36-4.4.14-2.9,1-5.62-.52-6-3.6a69.59,69.59,0,0,1-.19-8.67,1.89,1.89,0,0,1,2.09-2c1.2,0,1.7,1,1.72,2.08.05,2,0,4,0,6,.07,1.65.81,3,2.63,3s2.59-1.29,2.6-3c0-1.9,0-3.79,0-5.69,0-1.4.62-2.43,2.07-2.38,1.27,0,1.86,1,1.87,2.29C87.35,105.33,87.34,106.92,87.34,108.52Z"/><path class="cls-2" d="M163.91,114.05c-5.07,2.78-9,2.26-11.13-1.32a8.12,8.12,0,0,1,.83-9.45c2.28-2.45,5.45-2.72,9-.76.57.32,1.11,1.13,1.51-.12.16-.48.3-1.05.94-.91s.83.79.82,1.4c-.05,4.48.22,9-.28,13.43-.57,5-8,7.82-12.05,4.85-.34-.26-.64-.47-.5-.93a.76.76,0,0,1,.93-.54c1.08.2,2.12.56,3.2.71C161.39,121,163.81,118.79,163.91,114.05Zm.14-5.54a5.66,5.66,0,0,0-5.46-5.63,5.6,5.6,0,0,0-5.13,5.61c0,3.06,2.47,5.83,5.25,5.84S164.08,111.49,164.05,108.51Z"/><path class="cls-2" d="M34.44,103.61a2.35,2.35,0,0,1-2-.78c-1.92-1.9-3.83-3.8-5.72-5.73-.94-1-1.34-2.07-.16-3.13,1-.92,2-.49,2.94.26,1.7,1.36,2.86,4.25,4.85,4,1.66-.17,3.06-2.63,4.59-4,.91-.85,2-1.14,2.94-.21s.8,2-.1,2.88c-2,2-3.92,4-5.91,6C35.41,103.28,34.94,103.69,34.44,103.61Z"/><path class="cls-2" d="M142.88,109.11c-1.1,0-2.2,0-3.29,0-.83.05-2-.42-2.34.72-.3.91.35,1.72.89,2.44,2,2.64,4.45,2.76,8.09.4.48-.32.92-1,1.52-.39s0,1.06-.34,1.5c-1.66,2-5.25,2.83-8,1.76a7.48,7.48,0,0,1-4.38-7.5,7.23,7.23,0,0,1,5.44-6.73,6.6,6.6,0,0,1,7.34,3.36c1.76,3.21,1.07,4.41-2.56,4.43h-2.4Zm-.41-1.35c1.14-.71,3.66,1.37,4.09-1.33.31-1.9-2.81-3.8-5.13-3.55a4.37,4.37,0,0,0-3.06,1.67c-.6.76-1.49,1.57-1,2.62s1.6.5,2.44.58S141.41,107.76,142.47,107.76Z"/><path class="cls-2" d="M112.25,102V95.41c0-.73.09-1.52,1-1.59s1.09.71,1.07,1.45c-.18,5.07.53,10.18-.4,15.22a6.39,6.39,0,0,1-6.08,5.63,7.13,7.13,0,0,1-7.3-4.12,7.71,7.71,0,0,1-.51-2,.94.94,0,0,1,.65-1.18c.59-.14.9.28,1.1.76s.26,1,.48,1.41a5.1,5.1,0,0,0,5.25,3.21,4.7,4.7,0,0,0,4.54-4.43,74.34,74.34,0,0,0,.06-7.76Z"/><path class="cls-2" d="M177.08,101.33a7.15,7.15,0,0,1,7.24,7.19A7.23,7.23,0,0,1,177,115.9a7,7,0,0,1-7.2-7.18A7.18,7.18,0,0,1,177.08,101.33Zm-.16,1.54a5.76,5.76,0,0,0-5.41,5.67c0,3,2.71,5.91,5.59,5.88a5.76,5.76,0,0,0,5.36-5.74A5.66,5.66,0,0,0,176.92,102.87Z"/><path class="cls-2" d="M131.49,106.76c-.06,1.3,0,2.6-.21,3.88a6.28,6.28,0,0,1-6.15,5.47,6,6,0,0,1-6.2-5,62.72,62.72,0,0,1-.22-8.35c0-.61.16-1.29.94-1.26s.79.79.8,1.36c0,2.1,0,4.19,0,6.28.1,3.14,2,5.27,4.6,5.26s4.39-2.13,4.5-5.33c.06-1.89,0-3.79,0-5.68,0-.78-.12-1.87,1-1.83s.78,1.19.83,1.91c.08,1.09,0,2.19,0,3.29Z"/><path class="cls-1" d="M95.24,108.74c0,1.59,0,3.18,0,4.77,0,1.25-.38,2.19-1.78,2.27-1.63.08-2-1-2-2.34,0-3.28,0-6.56,0-9.84,0-1.25.57-2.22,1.9-2.16s1.89,1,1.89,2.23Z"/><path class="cls-1" d="M93.4,96.29c1.11.13,2,.49,1.95,1.79s-1.07,1.88-2.22,1.78c-1-.08-2-.55-2-1.81C91.17,96.6,92.26,96.36,93.4,96.29Z"/><circle class="cls-3" cx="100.45" cy="101.37" r="95.5"/></svg>