<svg id="Capa_1" data-name="Capa 1" xmlns="http://www.w3.org/2000/svg" xmlns:xlink="http://www.w3.org/1999/xlink" viewBox="0 0 200 200"><defs><style>.cls-1{fill:none;stroke:#cb6339;stroke-miterlimit:10;stroke-width:4px;}.cls-2{fill:#be481e;}.cls-10,.cls-11,.cls-12,.cls-13,.cls-14,.cls-15,.cls-16,.cls-17,.cls-18,.cls-2,.cls-3,.cls-4,.cls-5,.cls-6,.cls-7,.cls-8,.cls-9{fill-rule:evenodd;}.cls-3{fill:url(#Degradado_sin_nombre_52);}.cls-4{fill:url(#Degradado_sin_nombre_51);}.cls-5{fill:url(#Degradado_sin_nombre_49);}.cls-6{fill:url(#Degradado_sin_nombre_48);}.cls-7{fill:url(#Degradado_sin_nombre_47);}.cls-8{fill:url(#Degradado_sin_nombre_45);}.cls-9{fill:url(#Degradado_sin_nombre_44);}.cls-10{fill:url(#Degradado_sin_nombre_42);}.cls-11{fill:url(#Degradado_sin_nombre_41);}.cls-12{fill:url(#Degradado_sin_nombre_40);}.cls-13{fill:url(#Degradado_sin_nombre_39);}.cls-14{fill:url(#Degradado_sin_nombre_38);}.cls-15{fill:url(#Degradado_sin_nombre_37);}.cls-16{fill:url(#Degradado_sin_nombre_36);}.cls-17{fill:url(#Degradado_sin_nombre_35);}.cls-18{fill:url(#Degradado_sin_nombre_34);}</style><radialGradient id="Degradado_sin_nombre_52" cx="781.45" cy="3348.84" r="0.78" gradientTransform="matrix(25.23, 0, 0, -23.22, -19616.19, 77807.79)" gradientUnits="userSpaceOnUse"><stop offset="0" stop-color="#c5a8cc"/><stop offset="1" stop-color="#793e87"/></radialGradient><radialGradient id="Degradado_sin_nombre_51" cx="775.97" cy="3381.19" r="0.88" gradientTransform="matrix(21.25, 0, 0, -18.03, -16387.55, 61027.07)" gradientUnits="userSpaceOnUse"><stop offset="0" stop-color="#d5c2da"/><stop offset="0.47" stop-color="#b188b5"/><stop offset="1" stop-color="#783b86"/></radialGradient><linearGradient id="Degradado_sin_nombre_49" x1="772.57" y1="3677.03" x2="773.59" y2="3675.88" gradientTransform="matrix(19.84, 0, 0, -5.92, -15244.27, 21806.93)" gradientUnits="userSpaceOnUse"><stop offset="0" stop-color="#523378"/><stop offset="1" stop-color="#8c71a9"/></linearGradient><radialGradient id="Degradado_sin_nombre_48" cx="784.61" cy="3352.1" r="0.51" gradientTransform="matrix(29.07, 0, 0, -22.54, -22705.34, 75619.14)" gradientUnits="userSpaceOnUse"><stop offset="0" stop-color="#b3d3ea"/><stop offset="1" stop-color="#6aa0d4"/></radialGradient><linearGradient id="Degradado_sin_nombre_47" x1="725.22" y1="3380.82" x2="726.14" y2="3381.71" gradientTransform="matrix(8.71, 0, 0, -17.96, -6226.9, 60785.18)" gradientUnits="userSpaceOnUse"><stop offset="0" stop-color="#6b78b3"/><stop offset="1" stop-color="#a0b3d6"/></linearGradient><radialGradient id="Degradado_sin_nombre_45" cx="775.06" cy="3380.29" r="0.76" gradientTransform="matrix(21.21, 0, 0, -18.14, -16338.4, 61364.51)" gradientUnits="userSpaceOnUse"><stop offset="0" stop-color="#d2e6f5"/><stop offset="0.5" stop-color="#9bc5e8"/><stop offset="1" stop-color="#6ea4d5"/></radialGradient><radialGradient id="Degradado_sin_nombre_44" cx="781.08" cy="3358.69" r="0.66" gradientTransform="matrix(25.5, 0, 0, -21.25, -19811.22, 71436.15)" gradientUnits="userSpaceOnUse"><stop offset="0" stop-color="#e3b68c"/><stop offset="1" stop-color="#bc3a22"/></radialGradient><radialGradient id="Degradado_sin_nombre_42" cx="773.08" cy="3401.99" r="0.76" gradientTransform="matrix(19.93, 0, 0, -15.7, -15299.65, 53447.86)" gradientUnits="userSpaceOnUse"><stop offset="0" stop-color="#e8c5a8"/><stop offset="0.54" stop-color="#d58833"/><stop offset="1" stop-color="#be3f22"/></radialGradient><linearGradient id="Degradado_sin_nombre_41" x1="727.4" y1="3407.2" x2="728.17" y2="3408" gradientTransform="matrix(8.91, 0, 0, -15.22, -6379, 51898)" gradientUnits="userSpaceOnUse"><stop offset="0" stop-color="#ce6779"/><stop offset="1" stop-color="#bf313b"/></linearGradient><radialGradient id="Degradado_sin_nombre_40" cx="782.27" cy="3373.75" r="0.71" gradientTransform="matrix(26.27, 0, 0, -18.9, -20451.32, 63810.86)" gradientUnits="userSpaceOnUse"><stop offset="0" stop-color="#cddb92"/><stop offset="0.3" stop-color="#b6c536"/><stop offset="1" stop-color="#709b3e"/></radialGradient><radialGradient id="Degradado_sin_nombre_39" cx="760.41" cy="3377.74" r="1.03" gradientTransform="matrix(14.76, 0, 0, -18.38, -11124.74, 62134.73)" gradientUnits="userSpaceOnUse"><stop offset="0" stop-color="#d8e198"/><stop offset="0.24" stop-color="#b6c536"/><stop offset="1" stop-color="#709b3e"/></radialGradient><linearGradient id="Degradado_sin_nombre_38" x1="773.57" y1="3596" x2="774.55" y2="3594.75" gradientTransform="matrix(20.32, 0, 0, -7.25, -15620.44, 26130)" gradientUnits="userSpaceOnUse"><stop offset="0" stop-color="#aebad8"/><stop offset="1" stop-color="#5161a5"/></linearGradient><linearGradient id="Degradado_sin_nombre_37" x1="711.99" y1="3417.06" x2="712.93" y2="3417.96" gradientTransform="matrix(7.51, 0, 0, -14.38, -5248.44, 49192.6)" gradientUnits="userSpaceOnUse"><stop offset="0" stop-color="#babf98"/><stop offset="1" stop-color="#8b934e"/></linearGradient><linearGradient id="Degradado_sin_nombre_36" x1="722.82" y1="3395.03" x2="723.65" y2="3395.98" gradientTransform="matrix(8.47, 0, 0, -16.35, -6027.06, 55574.99)" gradientUnits="userSpaceOnUse"><stop offset="0" stop-color="#a499c3"/><stop offset="1" stop-color="#c6bed9"/></linearGradient><linearGradient id="Degradado_sin_nombre_35" x1="771.48" y1="3666.72" x2="772.52" y2="3665.76" gradientTransform="matrix(19.24, 0, 0, -6.06, -14738.44, 22261.6)" gradientUnits="userSpaceOnUse"><stop offset="0" stop-color="#bbd0e7"/><stop offset="1" stop-color="#80a5cf"/></linearGradient><linearGradient id="Degradado_sin_nombre_34" x1="768.74" y1="3694.73" x2="769.77" y2="3693.7" gradientTransform="matrix(17.98, 0, 0, -5.69, -13736.31, 21062.81)" gradientUnits="userSpaceOnUse"><stop offset="0" stop-color="#b8cb4f"/><stop offset="1" stop-color="#dae299"/></linearGradient></defs><circle class="cls-1" cx="100.51" cy="100.27" r="95.5"/><path class="cls-2" d="M44.52,133.29c-3.72,0-6.35-1.87-7-5a24.78,24.78,0,0,1-.25-4.58l0-18c0-2.83-.06-5.11-.84-6.59l-.48-.9,8.3-2.55.29.71a25.79,25.79,0,0,1,1.21,7.83l-.08,17.89a25.83,25.83,0,0,0,.17,4.49c.13.6.37.71.78.71a1.55,1.55,0,0,0,.41,0l.85-.35,1.62,5.41-.73.28a12.21,12.21,0,0,1-4.27.71Zm24.61.39-.39-.42a10.11,10.11,0,0,1-1.59-2.33,9.61,9.61,0,0,1-6.39,2.41c-4.24,0-7.34-2.14-8.1-5.57a17.87,17.87,0,0,1-.36-4V107.58l8.26-1.48-.06,16.53a16.5,16.5,0,0,0,.21,3.08,1.55,1.55,0,0,0,1.18,1.18c1.58,0,3.22-1.68,3.84-2.93l.06-16.23,8.09-1.6-.06,19.48A7.58,7.58,0,0,0,75.25,130l.78.89-6.9,2.83Zm20.28-.34c-6,0-10.12-3.27-11.38-9s.11-11.74,3.54-15.09a11,11,0,0,1,8.28-3.11,12.31,12.31,0,0,1,7.94,3.08l.59.52-4,5.3-.67-.59a6,6,0,0,0-3.63-1.59A2.46,2.46,0,0,0,87.93,114c-1.16,1.64-1.85,6.29-1,10,.29,1.33,1,2.93,3,2.93,1.4,0,2.79-.68,4.47-2.2l.66-.59,4.14,5.25-.6.53a13.16,13.16,0,0,1-9.18,3.41Zm37.85-.62-10.47-14.51,8.73-11.34H115.11L110,115.42l0-9.63c0-4.44-.44-7.91-1.26-9.51l-.32-.62-8,2.53.41.87c.62,1.31.9,3.25.89,6.29l-.11,27.38h8.32l0-11.88,7.35,11.88h10Zm1.64-25.31-.09,25.31h8.32l.07-26.55-8.3,1.24Zm35.39,20.67A4.74,4.74,0,0,1,162.6,124l0-9.16a45.68,45.68,0,0,1,.32-5.82l.09-.61-.55-.27a21.87,21.87,0,0,0-9.17-1.74c-4.53,0-7.59,1.26-9.93,4.08-2.78,3.34-3.73,8.92-2.49,14.55,1.19,5.39,4.56,8.36,9.51,8.36a8,8,0,0,0,5.95-2.28,6.84,6.84,0,0,0,2.35,2.27l.5.27,5.85-4.93-.76-.64Zm-9.88-4.26a3.76,3.76,0,0,1-3.25,3c-.69,0-1.41-.19-1.91-2.46-.7-3.17-.61-7.66.72-9.68,1.12-1.63,2-1.71,3.53-1.71a5.11,5.11,0,0,1,1,.14l-.12,10.69Zm-21.36-18.76a4.75,4.75,0,1,1,5-4.74,4.85,4.85,0,0,1-5,4.74Z"/><path class="cls-3" d="M100.28,56.77a5.34,5.34,0,0,1,.67,2.39c-.06,4.41-4.5,12.07-9,15.26-5.43,3.81-11.64,1.18-13-2.67-.78-2.17.59-2.25-.82-6.15-1.08-3-3.2-3.31-4-5.29-1.75-4.39,2.77-8.22,6.84-8.93,6-1.05,17.86,1.94,19.39,5.39Z"/><path class="cls-4" d="M91.91,74.42c4.54-3.19,9-10.85,9-15.26a5.29,5.29,0,0,0-.66-2.38L78,65.43a1.3,1.3,0,0,1,.08.17c1.41,3.9,0,4,.82,6.15,1.4,3.85,7.61,6.48,13,2.67Z"/><path class="cls-5" d="M100.34,56.9l-.06-.13c-1.53-3.45-13.4-6.44-19.39-5.39a9.34,9.34,0,0,0-2,.6c5.71,4.08,16.77,7,21.45,4.92Z"/><path class="cls-6" d="M100.31,56.76c3.29-1.37,13.39-.32,20.77,5.72a6.56,6.56,0,0,1-.45,10.09A9.13,9.13,0,0,1,115,74.29a13.4,13.4,0,0,0-4.82,1.23c-2.91,1.23-3.9,2.89-5.27,3.74-5.55,3.47-12.64-.36-13-4.77-.82-9.33,5.54-16.53,8.44-17.73Z"/><path class="cls-7" d="M100.43,56.79l0-.06-.09,0c-2.9,1.2-9.26,8.4-8.44,17.73a4.7,4.7,0,0,0,.47,1.66c4.68-4.29,8.81-11.92,8.88-16.54a6.59,6.59,0,0,0-.79-2.82Z"/><path class="cls-8" d="M120.63,72.57a6.56,6.56,0,0,0,.45-10.09c-7.38-6-17.48-7.09-20.77-5.72h0l9.19,19.07c.22-.11.43-.22.67-.32A13.49,13.49,0,0,1,115,74.29a9.13,9.13,0,0,0,5.65-1.72Z"/><path class="cls-9" d="M100.26,56.72c-2.25-4.59,3.85-13.21,7.46-15.51,1.87-1.19,7.78-3,11.53,1.32,1.29,1.5.5,3.3,2.08,5.72C123.14,51,125,51.38,126,52.68c3.4,4.22-.23,8.9-4.85,9.8-6.9,1.36-19.18-2.22-20.91-5.76Z"/><path class="cls-10" d="M100.29,56.77l9.94-4,9.9-4,1.2-.49h0c-1.58-2.42-.79-4.22-2.08-5.72-3.75-4.33-9.66-2.51-11.53-1.32-3.6,2.29-9.66,10.86-7.48,15.46l0,.06s0,0,0,0Z"/><path class="cls-11" d="M109.41,40.43a8,8,0,0,0-1.69.78c-3.61,2.3-9.71,10.92-7.46,15.51,0,.05.08.11.11.17h0c5.5-2.43,9-11,9-16.45Z"/><path class="cls-12" d="M91.58,40.8a12.14,12.14,0,0,0,3.53-2,8.78,8.78,0,0,1,8-1.63c1.24.33,4,1.68,4.62,4,1,4.14-2.11,13.22-7.37,15.56-4.38,1.94-15.6-1.34-19.56-5.42-2.8-2.89-.56-7,2.21-8.47,1.37-.71,2-1,5.07-1.21a12.7,12.7,0,0,0,3.52-.85Z"/><path class="cls-13" d="M107.71,41.19c-.57-2.32-3.38-3.67-4.62-4a8.75,8.75,0,0,0-8,1.63,11.24,11.24,0,0,1-3.18,1.83l8.37,16.11h0c5.26-2.34,8.39-11.42,7.37-15.56Z"/><path class="cls-14" d="M122.31,64a5.32,5.32,0,0,0-1.23-1.5c-7.36-6-17.44-7.09-20.75-5.74a3.54,3.54,0,0,0,.18.49c1.81,3.71,13.85,7.44,21.8,6.75Z"/><path class="cls-15" d="M107.71,41.21c-3.61,2.32-9.69,10.93-7.45,15.51l0,.05,0,0c5.26-2.33,8.38-11.39,7.37-15.54Z"/><path class="cls-16" d="M101,59.16a5.33,5.33,0,0,0-.66-2.39c-2.91,1.23-9.22,8.4-8.42,17.68l0,0c4.54-3.19,9-10.85,9-15.26Z"/><path class="cls-17" d="M121.09,62.5v0c-7.38-6-17.48-7.09-20.77-5.72h0c1.82,3.51,13.92,7,20.8,5.73Z"/><path class="cls-18" d="M100.28,56.77c-1.54-3.45-13.4-6.44-19.39-5.39h0c4,4,15,7.26,19.44,5.38Z"/></svg>