<svg id="Capa_1" data-name="Capa 1" xmlns="http://www.w3.org/2000/svg" viewBox="0 0 200 200"><defs><style>.cls-1{fill:#001633;}.cls-2{fill:none;stroke:#0d307b;stroke-miterlimit:10;stroke-width:4px;}</style></defs><path class="cls-1" d="M107.36,116.82l-14.52-4.61V48c.7.14,1.36.26,2,.41A172.48,172.48,0,0,1,114.4,54a33.77,33.77,0,0,1,6.52,3.08A17.21,17.21,0,0,1,126.21,62a16.54,16.54,0,0,1,2.53,6.26,32.39,32.39,0,0,1,.42,9.32,15,15,0,0,1-1.39,5.16,9,9,0,0,1-4.5,4.56,9.51,9.51,0,0,1-4.89.66,15.53,15.53,0,0,1-5-1.49l-.23-.14v-.6q0-10.35,0-20.7a10.89,10.89,0,0,0-.35-3.11,3.49,3.49,0,0,0-2.56-2.59,1.85,1.85,0,0,0-2.23.89,5.06,5.06,0,0,0-.63,2.34c0,.3,0,.6,0,.9v53.38Z"/><path class="cls-1" d="M110.14,115.8v-8.39l2-.7,21.22-7.57a11.07,11.07,0,0,0,1.45-.65,2.62,2.62,0,0,0,.67-.52.84.84,0,0,0-.16-1.43,4.21,4.21,0,0,0-1.06-.48,11.09,11.09,0,0,0-3.58-.37,18,18,0,0,0-5.66,1.1c-4.75,1.7-9.52,3.36-14.28,5l-.55.17V93.27c.81-.25,1.61-.52,2.43-.75a53.65,53.65,0,0,1,9.64-1.86,44.7,44.7,0,0,1,8.18,0,44,44,0,0,1,11,2.25c1,.38,2.1.76,3.13,1.19a9.77,9.77,0,0,1,2.5,1.5A5.44,5.44,0,0,1,148.2,97a2.94,2.94,0,0,1,0,3.22,6.26,6.26,0,0,1-1.14,1.32,14.22,14.22,0,0,1-4.28,2.55c-1.85.74-3.74,1.41-5.63,2.08l-26.4,9.49Z"/><path class="cls-1" d="M90,86.82v8.41l-.53.21-14.21,5.09a12.57,12.57,0,0,0-1.41.62,3,3,0,0,0-.76.57.84.84,0,0,0,.12,1.43,2.72,2.72,0,0,0,1,.45,14.41,14.41,0,0,0,2.35.39,15.9,15.9,0,0,0,6.38-.87c2.16-.77,4.3-1.56,6.45-2.33.2-.08.4-.13.64-.21v7.51c-.31.06-.61.13-.92.18a48.66,48.66,0,0,1-8.69.68,46.61,46.61,0,0,1-12.47-1.88,30.75,30.75,0,0,1-4.28-1.44,8.63,8.63,0,0,1-2.89-1.95,5.85,5.85,0,0,1-.93-1.34A3,3,0,0,1,60,99.21a5.1,5.1,0,0,1,1.37-1.33,22.72,22.72,0,0,1,4.88-2.56c2.45-.95,4.91-1.83,7.38-2.71L89.44,87Z"/><path class="cls-1" d="M39.13,138.52v-2.11a4.43,4.43,0,0,1,.48,0h1.87a1.67,1.67,0,0,0,1.67-1,6.17,6.17,0,0,0,.5-1.56,8.51,8.51,0,0,0-.13-3.79,4.19,4.19,0,0,0-.31-.79,1.78,1.78,0,0,0-1.78-1.1c-1.12,0-2.23,0-3.35,0l-.52,0v17.9c-1.2,0-2.34,0-3.52,0V126h8.44a4.34,4.34,0,0,1,4.12,2.59,7.33,7.33,0,0,1,.69,2.72,9,9,0,0,1-.38,3.83,5,5,0,0,1-2.63,3.06,3.55,3.55,0,0,1-1.64.37c-1,0-2,0-3,0Z"/><path class="cls-1" d="M64.6,133c-1.14,0-2.2,0-3.26,0a1.56,1.56,0,0,0-1.42,1,7.7,7.7,0,0,0-.53,1.6,7.88,7.88,0,0,0-.13,1.54c0,1.65,0,3.29,0,4.94a3.71,3.71,0,0,0,.13,1,1.05,1.05,0,0,0,1.09.84c.64,0,1.27,0,1.91,0H63V146l-.55,0c-.87,0-1.74,0-2.61,0A3.91,3.91,0,0,1,55.88,143a5.28,5.28,0,0,1-.21-1.36c0-1.74,0-3.48.09-5.21a6.9,6.9,0,0,1,.69-2.66,4.9,4.9,0,0,1,3.87-2.9,7.28,7.28,0,0,1,1.32-.12h6.12l.31,0c.11.42.13,14.75,0,15.27H64.6V133Z"/><path class="cls-1" d="M75.41,153.52H72.35c.07-.21.12-.38.19-.54.83-2.18,1.66-4.36,2.51-6.54a1.38,1.38,0,0,0,0-1q-2.43-7-4.83-14.12c0-.15-.09-.3-.13-.45a19.72,19.72,0,0,1,3.7-.06c1.11,3.26,2.22,6.54,3.34,9.81h.06l0,0,0,0,.09-.2q1.85-4.75,3.7-9.5l0-.07h3.34Z"/><path class="cls-1" d="M121.45,146H118v-2.59c0-.87,0-1.74,0-2.61V133a3.68,3.68,0,0,0-.43-.06h-2.39a2,2,0,0,0-2.13,1.51,8.4,8.4,0,0,0-.43,2.77c0,1.59,0,3.19,0,4.79a4.17,4.17,0,0,0,.16,1,1.06,1.06,0,0,0,1.09.84h2l.54,0V146l-.55,0c-.88,0-1.77,0-2.66,0a3.82,3.82,0,0,1-3.79-2.69,5.26,5.26,0,0,1-.3-1.51c0-1.66,0-3.33,0-5a8.23,8.23,0,0,1,.62-2.84,5,5,0,0,1,4-3.15,7.84,7.84,0,0,1,1.37-.12h6.06l.31,0C121.55,131.17,121.57,145.46,121.45,146Z"/><path class="cls-1" d="M158.84,146h-3.56V130.79a2,2,0,0,1,.32,0h6.33a6.55,6.55,0,0,1,2.19.38,5,5,0,0,1,3.12,3.26,8.33,8.33,0,0,1,.46,2.61c0,2.89,0,5.78,0,8.67,0,.11,0,.21,0,.35h-3.51v-.65c0-2.52,0-5,0-7.56a19.74,19.74,0,0,0-.19-2.54,5,5,0,0,0-.48-1.39,1.58,1.58,0,0,0-1.2-.89,30.08,30.08,0,0,0-3.45-.09Z"/><path class="cls-1" d="M139.93,137.92a11.49,11.49,0,0,1,.2-2.59,5.42,5.42,0,0,1,4.83-4.48,9.47,9.47,0,0,1,3.23.06,5.47,5.47,0,0,1,4.48,4.36,7.21,7.21,0,0,1,.24,1.79c0,1.29,0,2.59-.12,3.87a5.62,5.62,0,0,1-.47,1.74,5.24,5.24,0,0,1-4.27,3.26,9,9,0,0,1-4.06-.21,5.27,5.27,0,0,1-3.83-4.09A14.72,14.72,0,0,1,139.93,137.92Zm3.51.17c0,1,0,1.76.12,2.47a9.11,9.11,0,0,0,.42,1.86,2.12,2.12,0,0,0,2,1.44,5.67,5.67,0,0,0,1,0,2.09,2.09,0,0,0,1.8-1.23,5.72,5.72,0,0,0,.42-1.35,20.63,20.63,0,0,0,.13-4.3,10.13,10.13,0,0,0-.25-2,2.5,2.5,0,0,0-3-2l-.31,0a2.18,2.18,0,0,0-1.74,1.24,4,4,0,0,0-.39,1.21C143.54,136.41,143.49,137.4,143.44,138.09Z"/><path class="cls-1" d="M86.54,146v-2.13h.6c1.42,0,2.84,0,4.26,0a2.47,2.47,0,0,0,2.66-2.5,14.43,14.43,0,0,0,0-1.86,2.36,2.36,0,0,0-2.17-2.3l-1.74-.16a4.6,4.6,0,0,1-4.19-3.6,6.49,6.49,0,0,1,.24-4.53,4.75,4.75,0,0,1,4.38-3c1.87-.07,3.76,0,5.63,0l.25,0v2.11l-.55,0H92a6.23,6.23,0,0,0-.74,0,2.16,2.16,0,0,0-2,1.81,5.08,5.08,0,0,0,0,2.48,2.18,2.18,0,0,0,2.09,1.73l2.22.2a3.85,3.85,0,0,1,2.54,1.2,5,5,0,0,1,1.41,2.81,9.9,9.9,0,0,1-.09,3.91,6,6,0,0,1-.61,1.52,4.21,4.21,0,0,1-3.75,2.22c-2.13,0-4.26,0-6.38,0A.82.82,0,0,1,86.54,146Z"/><path class="cls-1" d="M131.81,130.75v2.16h-3.75c0,.19-.05.33-.05.46v8.83a2.84,2.84,0,0,0,.05.58,1.24,1.24,0,0,0,1.34,1.11c.47,0,.94,0,1.45,0V146a3,3,0,0,1-.42,0c-.83,0-1.66,0-2.49-.06a3.63,3.63,0,0,1-2.71-1.68,4.49,4.49,0,0,1-.79-2.55q0-6.63,0-13.24a1.81,1.81,0,0,1,0-.25,17.93,17.93,0,0,1,3.54,0v2.49l1.94,0Z"/><path class="cls-1" d="M106.65,143.92V146a2.73,2.73,0,0,1-.38,0h-1.86a4,4,0,0,1-4.06-3.3,3.8,3.8,0,0,1-.11-.89q0-6.65,0-13.29c0-.11,0-.21,0-.39,1.16,0,2.3,0,3.5,0,.11.85,0,1.67.08,2.55h3.75v2.17c-1.23,0-2.47,0-3.74,0a4.6,4.6,0,0,0,0,.49v8.72a4,4,0,0,0,.06.69,1.2,1.2,0,0,0,1.21,1c.36,0,.71,0,1.07,0Z"/><path class="cls-1" d="M49.58,126H53v20.08c-1.14,0-2.28,0-3.46,0Z"/><path class="cls-1" d="M134,146V130.78c1.16-.06,2.31,0,3.5,0V146Z"/><path class="cls-1" d="M143.25,109.89a3.41,3.41,0,1,1-3.41,3.41A3.39,3.39,0,0,1,143.25,109.89Zm0,6.22a2.83,2.83,0,1,0-2.82-2.85A2.82,2.82,0,0,0,143.24,116.11Z"/><path class="cls-1" d="M134,126h3.49v2.94H134Z"/><path class="cls-1" d="M144.48,113.25c.49.52.11,1.24.52,1.82h-.82c0-.31-.06-.6-.08-.9,0-.48-.12-.57-.61-.6h-.69l-.32,0v1.49h-.66v-3.69a1.43,1.43,0,0,1,.35-.06c.53,0,1.06,0,1.59,0a1,1,0,0,1,.78,1.78A.64.64,0,0,0,144.48,113.25Zm-2-.3c.47,0,.88,0,1.27,0a.51.51,0,0,0,0-1c-.41,0-.83,0-1.25,0Z"/><circle class="cls-2" cx="100.87" cy="100.75" r="95.5"/></svg>