<svg id="Capa_1" data-name="Capa 1" xmlns="http://www.w3.org/2000/svg" viewBox="0 0 200 200"><defs><style>.cls-1,.cls-3{fill:#13703b;}.cls-2{fill:none;stroke:#13703b;stroke-miterlimit:10;stroke-width:4px;}.cls-3{font-size:27.45px;font-family:FuturaBT-Medium, Futura Md BT;font-weight:500;}.cls-4{letter-spacing:-0.05em;}</style></defs><polygon class="cls-1" points="138.22 114.3 130.05 103.2 121.89 114.3 118.52 114.3 128.35 100.9 119.38 88.72 122.74 88.72 130.05 98.65 137.36 88.72 140.72 88.72 131.76 100.89 141.58 114.3 138.22 114.3"/><polygon class="cls-1" points="74.55 114.29 64.71 100.89 73.69 88.72 70.32 88.72 63.01 98.65 55.71 88.72 52.35 88.72 61.32 100.89 51.48 114.29 54.85 114.29 63.02 103.2 71.18 114.29 74.55 114.29"/><path class="cls-1" d="M93.24,101.86a7.84,7.84,0,0,0-1.67-1.07,5.77,5.77,0,0,0,3.07-5.12c0-1.63-.6-7-8.31-7H75.94v11H72.48c-.44.59-1.47,2-1.85,2.57h5.31v12H86.33c5.63,0,9.12-2.85,9.12-7.46a6.31,6.31,0,0,0-2.21-5M78.82,91.38h7.51c2,0,5.44.51,5.44,4.07,0,2.69-2,4.29-5.44,4.29H78.82Zm7.51,20.25H78.81v-9.32h7.52c2.85,0,6.26.79,6.26,4.46,0,4.22-3.92,4.86-6.26,4.86"/><path class="cls-1" d="M109,88.13c-7.18,0-12.2,5.49-12.2,13.36s5,13.37,12.2,13.37,12.19-5.49,12.19-13.37-5-13.36-12.19-13.36m0,24c-5.47,0-9.31-4.38-9.31-10.66s3.84-10.66,9.31-10.66,9.28,4.38,9.28,10.66-3.81,10.66-9.28,10.66"/><path class="cls-1" d="M80.63,44.71s0,0,0,0h0A22.66,22.66,0,0,0,78.5,74.59s.08.06.13,0,0-.07,0-.11c-1.73-5.34,7.1-18.29,11.67-23.72a.15.15,0,0,0,0-.07.1.1,0,0,0,0-.07c-7.68-7.64-9.73-5.89-9.7-5.92"/><path class="cls-1" d="M112.43,44.71s0,0,0,0h0a22.66,22.66,0,0,1,2.11,29.85s-.08.06-.12,0,0-.07,0-.11c1.73-5.34-7.09-18.3-11.65-23.73a.1.1,0,0,1,0-.07s0-.05,0-.07c7.67-7.64,9.71-5.88,9.68-5.91"/><path class="cls-1" d="M96.53,38.2a22.37,22.37,0,0,1,11.81,3.31.09.09,0,0,1,0,.11.08.08,0,0,1-.11,0c-4.39-.95-11.06,2.85-11.69,3.22l0,0,0,0c-1.68-1-7.84-4.19-11.73-3.19a.08.08,0,0,1-.1,0,.1.1,0,0,1,0-.12A22.36,22.36,0,0,1,96.53,38.2"/><path class="cls-1" d="M96.53,56.37a.12.12,0,0,1,.08,0c6.78,5.15,18.38,17.9,14.84,21.51h0a22.68,22.68,0,0,1-29.84,0h0c-3.53-3.61,8.07-16.36,14.85-21.51a.1.1,0,0,1,.07,0"/><circle class="cls-2" cx="99.99" cy="100.27" r="95.5"/><text class="cls-3" transform="translate(25.88 143.79)">GAME <tspan class="cls-4" x="86.8" y="0">P</tspan><tspan x="99.9" y="0">ASS</tspan></text></svg>