<svg id="Capa_1" data-name="Capa 1" xmlns="http://www.w3.org/2000/svg" xmlns:xlink="http://www.w3.org/1999/xlink" viewBox="0 0 200 200"><defs><style>.cls-1{fill:url(#Degradado_sin_nombre_50);}.cls-2{fill:url(#Degradado_sin_nombre_50-2);}.cls-3{fill:url(#Degradado_sin_nombre_50-3);}.cls-4{fill:url(#Degradado_sin_nombre_50-4);}.cls-5{fill:url(#Degradado_sin_nombre_50-5);}.cls-6{fill:url(#Degradado_sin_nombre_50-6);}.cls-7{fill:url(#Degradado_sin_nombre_50-7);}.cls-8{fill:none;stroke:#b50a1d;stroke-miterlimit:10;stroke-width:4px;}</style><linearGradient id="Degradado_sin_nombre_50" x1="29.81" y1="134.88" x2="40.07" y2="42.52" gradientUnits="userSpaceOnUse"><stop offset="0" stop-color="#811923"/><stop offset="0.38" stop-color="#9a121c"/><stop offset="1" stop-color="#be0811"/></linearGradient><linearGradient id="Degradado_sin_nombre_50-2" x1="159.77" y1="149.32" x2="170.03" y2="56.96" xlink:href="#Degradado_sin_nombre_50"/><linearGradient id="Degradado_sin_nombre_50-3" x1="55.09" y1="137.69" x2="65.35" y2="45.33" xlink:href="#Degradado_sin_nombre_50"/><linearGradient id="Degradado_sin_nombre_50-4" x1="99.11" y1="142.58" x2="109.37" y2="50.22" xlink:href="#Degradado_sin_nombre_50"/><linearGradient id="Degradado_sin_nombre_50-5" x1="76.26" y1="140.04" x2="86.52" y2="47.68" xlink:href="#Degradado_sin_nombre_50"/><linearGradient id="Degradado_sin_nombre_50-6" x1="122.47" y1="145.17" x2="132.74" y2="52.82" xlink:href="#Degradado_sin_nombre_50"/><linearGradient id="Degradado_sin_nombre_50-7" x1="139.64" y1="147.08" x2="149.91" y2="54.72" xlink:href="#Degradado_sin_nombre_50"/></defs><path class="cls-1" d="M23.38,120.32V79.17h6.08q4.17,11.53,8.35,23.13h.09c0-1.1,0-2.19,0-3.28V79.17h6.36a2,2,0,0,1,0,.24c0,.1,0,.2,0,.3v38.05l-7,.77c-.64-1.76-1.24-3.54-1.86-5.31s-1.23-3.54-1.85-5.31l-1.86-5.35c-.62-1.76-1.23-3.53-1.84-5.29l-.08,0,0,0s0,0,0,0v21.86s0,.06,0,.08v0s0,0,0,0,0,0,0,.09Z"/><path class="cls-2" d="M153.85,79.16h6.94c1.39,3.58,2.77,7.18,4.18,10.76h.1q2.31-5.37,4.64-10.75h7a2.53,2.53,0,0,1-.12.33q-3.29,7.64-6.59,15.28c-.51,1.18-1,2.36-1.53,3.53a.85.85,0,0,0,0,.68q2.15,5.49,4.27,11,1.92,5,3.86,10c0,.1.07.21.11.34a2.66,2.66,0,0,1-1-.07l-5.53-.74c-.76-.1-.76-.09-1-.82l-4.28-11a1.3,1.3,0,0,0-.19-.37c-1.63,3.63-3.18,7.28-4.78,11l-6.73-.7.16-.4,3.9-9c1.33-3.07,2.65-6.15,4-9.21a.78.78,0,0,0,0-.65q-3.56-9.15-7.1-18.29Z"/><path class="cls-3" d="M50.65,79.17H68.44c.08.33.09,6,0,6.38H57.08c-.08.33-.1,8.26,0,8.71l.43,0,7.74,0h.5v6.32H63.54l-2.15,0-2.19,0c-.71,0-1.43,0-2.16,0v9.64l11.37-.78a62.4,62.4,0,0,1,0,6.32l-.91.08-5.8.38c-1.52.1-3,.21-4.55.33s-3.29.28-4.93.42l-1.6.12C50.58,116.83,50.57,79.6,50.65,79.17Z"/><path class="cls-4" d="M103.26,85.54V93.9l.49,0h8.17c.09.31.11,5.74,0,6.3-.71,0-1.44,0-2.16,0h-6.54c0,.52,0,1,0,1.49s0,1,0,1.44V114.9H96.85V79.18h17.88c.09.27.12,5.83,0,6.36Z"/><path class="cls-5" d="M85.86,85.55v29.56l-6.4.19V85.57c-.59,0-1.14,0-1.69,0h-5c-.09-.32-.11-6,0-6.37H92.58c.07.27.09,5.87,0,6.37Z"/><path class="cls-6" d="M136.48,116.09,119,115.2v-36h6.38c0,1,0,2,0,3v27l11.06.63Z"/><path class="cls-7" d="M148.27,79.17V117l-6.3-.52-.05,0s0,0,0,0a1.1,1.1,0,0,1,0-.18q0-18.41,0-36.81a1.15,1.15,0,0,1,0-.19.58.58,0,0,0,.05-.09Z"/><circle class="cls-8" cx="100.06" cy="99.74" r="95.5"/></svg>