<svg id="Capa_1" data-name="Capa 1" xmlns="http://www.w3.org/2000/svg" xmlns:xlink="http://www.w3.org/1999/xlink" viewBox="0 0 200 200"><defs><style>.cls-1{fill:url(#Degradado_sin_nombre_16);}.cls-2{fill:url(#Degradado_sin_nombre_16-2);}.cls-3{fill:url(#Degradado_sin_nombre_16-3);}.cls-4{fill:url(#Degradado_sin_nombre_16-4);}.cls-5{fill:url(#Degradado_sin_nombre_16-5);}.cls-6{fill:url(#Degradado_sin_nombre_16-6);}.cls-7{fill:none;stroke:#c5117e;stroke-miterlimit:10;stroke-width:4px;}</style><linearGradient id="Degradado_sin_nombre_16" x1="42.6" y1="100.31" x2="157.52" y2="100.31" gradientUnits="userSpaceOnUse"><stop offset="0" stop-color="#4d2974"/><stop offset="0.3" stop-color="#742177"/><stop offset="0.77" stop-color="#ae167c"/><stop offset="1" stop-color="#c5117e"/></linearGradient><linearGradient id="Degradado_sin_nombre_16-2" x1="128.44" y1="27.61" x2="72.44" y2="187.61" xlink:href="#Degradado_sin_nombre_16"/><linearGradient id="Degradado_sin_nombre_16-3" x1="156.27" y1="37.35" x2="100.27" y2="197.35" xlink:href="#Degradado_sin_nombre_16"/><linearGradient id="Degradado_sin_nombre_16-4" x1="121.53" y1="25.19" x2="65.53" y2="185.19" xlink:href="#Degradado_sin_nombre_16"/><linearGradient id="Degradado_sin_nombre_16-5" x1="93.9" y1="15.52" x2="37.9" y2="175.52" xlink:href="#Degradado_sin_nombre_16"/><linearGradient id="Degradado_sin_nombre_16-6" x1="83.57" y1="11.9" x2="27.57" y2="171.9" xlink:href="#Degradado_sin_nombre_16"/></defs><path class="cls-1" d="M78.68,61.23c5.4-7.93,12.82-11.94,22.25-12.35a5.74,5.74,0,0,0,2.22-.92A25.49,25.49,0,0,1,116,44.5c14.08.15,23.32,6.64,27.47,20.21A98.48,98.48,0,0,1,146.36,75,16.65,16.65,0,0,1,145,85.5c-.73,1.49-.67,2.22.82,3.12A18.41,18.41,0,0,1,154,99.69c1.52,5.18,3.55,10.25,3.54,15.75,0,11.39-5.22,20-15.17,25.07s-19.94,4.31-29.21-2.32c-.74-.53-1.46-1.11-2.2-1.66a2.4,2.4,0,0,0-.54-.11c-.33,1.62-.58,3.27-1,4.88a19.35,19.35,0,0,1-32.28,9.34c-5-4.83-9.72-9.95-14.24-15.22-5.09-5.94-6-12.81-3.12-20.07.66-1.63.54-2.38-1.06-3.34A17.09,17.09,0,0,1,51,101.75c-1.79-6.16-4.17-12.16-5.07-18.57a12.46,12.46,0,0,0-1.39-3.36c-5-10.47.15-23.24,10.87-27C63.87,49.83,72.05,52.7,78.68,61.23Zm25.45-8.33c-11.52-.23-21.67,10.58-20,21.22a64.35,64.35,0,0,0,4.16,14.67c2.74,6.61,11.42,8.92,16.9,4.32,2.49-2.08,4.27-5.3,7.93-2a.38.38,0,0,0,.3,0c3.44-1.12,7.28-1.53,9.49-4.9,1-1.53,1.85-1.77,3.68-1.18a11.13,11.13,0,0,0,14.34-12.8,58.39,58.39,0,0,0-3.56-12,19.16,19.16,0,0,0-29.19-8.6C106.84,52.65,105.6,53.31,104.13,52.9Zm48,58c-.05-3.9-2-8.77-3.61-13.68a11.49,11.49,0,0,0-20.15-3c-.94,1.28-1.6,1.62-3.18,1-4.45-1.73-8.49-.58-11.82,2.64a11,11,0,0,0-3.16,11.74c1,3.21,1.84,6.46,3,9.6a19.58,19.58,0,0,0,22.2,12.66C144.83,130.25,151.93,121.92,152.12,110.9Zm-71.39-3.68c-5.38.24-9.17,2.1-11.33,6.47-2.24,4.53-2,9,1.43,12.83,4.57,5.1,9.3,10,14,15a11.94,11.94,0,0,0,6.89,3.57c4.79.61,10.84-3.52,12-8.22A132.6,132.6,0,0,0,107.63,114c.32-4.57-2-8.26-6.29-10.38-4-2-8-2.17-11.53.65C86.85,106.67,84.51,110,80.73,107.22ZM55.79,78a8.71,8.71,0,0,0,0,1.71,116.07,116.07,0,0,0,5.36,17.54c1.85,4.45,7.9,7.58,12.28,6.9,5.21-.8,10.48-7.33,9.6-12.93a65.78,65.78,0,0,0-5.91-18.89,10.85,10.85,0,0,1-1.41-4.87,11.62,11.62,0,0,0-20.88-7.14,11.71,11.71,0,0,0-.19,14C55.5,75.55,56.45,76.61,55.79,78Z"/><path class="cls-2" d="M91.56,72.78c0-5.2,2.36-9.08,7.11-11.17A12,12,0,0,1,107,61c1.36.41,2.2.34,3.1-.91,5-6.85,17.4-5.6,20.48,3,1.13,3.16,2.12,6.39,3,9.63.61,2.33,0,4.31-2.57,5.13-2.36.77-4.28-.31-5.18-3-.82-2.41-1.45-4.89-2.23-7.31-.94-2.89-2.88-4.11-5.23-3.39S115,67,115.74,69.85c.67,2.45,1.45,4.87,2.16,7.32s.13,4.5-2.4,5.52c-2.38,1-4.42-.21-5.39-3-.86-2.5-1.56-5-2.38-7.57-.76-2.35-2.37-3.61-4.85-3.11s-3.62,3-2.93,5.55c.61,2.26,1.4,4.46,2.06,6.71,1,3.37.12,5.68-2.32,6.39s-4.51-.57-5.46-3.92C93.2,80.11,91.59,76.64,91.56,72.78Z"/><path class="cls-3" d="M131.77,124.66a12.48,12.48,0,0,1-11.54-8.15c-1-2.77-1.84-5.62-2.59-8.48s.22-5.06,2.53-5.74c2.61-.77,4.43.35,5.46,3.44.74,2.22,1.35,4.49,2.09,6.71,1,3,3,4.29,5.44,3.52s3.42-2.83,2.58-6c-.61-2.26-1.4-4.48-2-6.74-.83-3.08.13-5.13,2.67-5.93s4.23.23,5.27,3.56c.91,2.91,1.85,5.84,2.48,8.82A12.38,12.38,0,0,1,131.77,124.66Z"/><path class="cls-4" d="M90.25,122.73c.46-2.75,1-5.85,1.51-8.93.47-2.64,2.38-4.34,4.57-4,2.6.47,3.94,2.15,3.62,4.8a84.55,84.55,0,0,1-1.67,10.55c-.72,2.81-.6,5.7-1.43,8.47-1,3.47-4.48,4.64-7,2.05-4.38-4.43-8.62-9-12.81-13.6-1.88-2.07-1.73-4.7.18-6.24,2.13-1.72,4.07-1.23,6,.56C85.44,118.6,87.86,120.63,90.25,122.73Z"/><path class="cls-5" d="M71.21,96.24a4.14,4.14,0,0,1-3.62-3c-1.34-4.38-2.75-8.74-4-13.15-.73-2.64.46-4.85,2.7-5.34a4,4,0,0,1,5.17,3c1.32,4.28,2.68,8.55,3.81,12.88C76.12,93.78,74.24,96.29,71.21,96.24Z"/><path class="cls-6" d="M64.09,71.74A4.23,4.23,0,0,1,60,67.35a4.17,4.17,0,0,1,4.11-4.07,4.44,4.44,0,0,1,4.15,4.43A4.19,4.19,0,0,1,64.09,71.74Z"/><circle class="cls-7" cx="100.06" cy="100.31" r="95.5"/></svg>