<?xml version="1.0" encoding="utf-8"?>
<!-- Generator: Adobe Illustrator 24.0.2, SVG Export Plug-In . SVG Version: 6.00 Build 0)  -->
<svg version="1.1" xmlns="http://www.w3.org/2000/svg" xmlns:xlink="http://www.w3.org/1999/xlink" x="0px" y="0px"
	 viewBox="0 0 200 200" style="enable-background:new 0 0 200 200;" xml:space="preserve">
<style type="text/css">
	.st0{fill:#249ECD;}
	.st1{fill:#F58220;}
	.st2{fill:none;stroke:#249ECD;stroke-width:4;stroke-miterlimit:10;}
</style>
<g id="Capa_1">
	<path class="st0" d="M82,112.2c-2,0-4,0.1-6,0c-0.7-0.1-1.4-0.6-1.8-1.2c-2-3.5-4-7-6-10.5c-0.5-0.9-0.3-1.5,0.8-1.6
		c0.8-0.1,1.6-0.1,2.3-0.2c1.8-0.1,3.1-1.5,3.2-3.3c-0.1-1.7-1.4-3.2-3.2-3.3c-0.8-0.1-1.7-0.1-2.5,0c-2.4,0-2.4,0-2.4,2.5
		c0,5.1,0,10.2,0,15.4c0,2.2-0.2,2.4-2.4,2.3h-0.6c-3.9,0-3.6,0.6-3.6-3.7c0-6.4,0-12.8,0-19.2c0-1.9,0.2-2,2.1-2
		c3.8,0,7.6-0.1,11.4,0.1c4,0.1,7.4,3.1,7.9,7.1c0.4,2.6-0.8,5.2-3,6.7c-1.4,1-1.4,1.9-0.6,3.3c1.5,2.4,2.8,4.9,4.2,7.3
		C81.9,112,82,112.1,82,112.2z"/>
	<path class="st0" d="M25.4,114.1c-1.6,0-3.2,0-4.9,0c-1.3-0.1-1.7-0.6-1.2-1.8c1.4-3.4,4.1-4.8,7.6-5c1.6,0,3.2-0.1,4.8-0.4
		c3.3-0.8,5.7-3.8,5.7-7.2c-0.3-3.4-2.9-6.3-6.3-6.9c-1.6-0.2-3.1-0.3-4.7-0.3c-3.3,0-6.2-2.1-7.3-5.2c-0.4-1.1,0.1-1.7,1.1-1.7
		c4.7,0.1,9.4-0.6,14,0.9c6.3,2.1,10.4,7.4,10.4,13.6c-0.1,6.7-5.4,12.6-12.4,13.6c-2.3,0.3-4.6,0.3-6.9,0.5L25.4,114.1z"/>
	<path class="st0" d="M85.5,99.8c0-3.6,0-7.1,0-10.7c0-1.4,0.5-1.9,1.8-1.9c4.4,0,8.8,0,13.2,0c1.3,0,1.7,0.5,1.7,1.8
		c0,3.4,0,3.4-3.4,3.4c-1.7,0-3.4,0-5.2,0c-1.2,0-1.7,0.4-1.7,1.7c0.1,3.8-0.2,3.3,3.2,3.3h1.4c2.8,0,2.8,0,2.8,2.9
		c0,1.2-0.5,1.6-1.6,1.6c-1.4,0-2.8,0-4.2,0c-1.1,0-1.6,0.3-1.5,1.6c0.2,3.5,0.1,3.5,3.7,3.5h4.9c1.2,0,1.7,0.5,1.7,1.7
		c0,3.6,0.1,3.6-3.5,3.6c-3.7,0-7.4,0-11.1,0c-1.8,0-2.1-0.3-2.1-2.1L85.5,99.8z"/>
	<path class="st0" d="M155,87.3c2,0,3.8,0,5.6,0c1.2,0,1.6,0.8,1.9,1.8c1.5,4.1,3,8.3,4.5,12.4c0.3,0.7,0.7,1.4,1.1,2.1
		c0.5-1,0.8-1.7,1.1-2.3c1.5-4.1,3-8.2,4.4-12.4c0.4-1,0.8-1.6,2-1.5c1.8,0.1,3.5,0,5.6,0c-1.7,4.1-3.4,8-5,11.9
		c-1.5,3.7-3.1,7.3-4.5,11c-0.6,1.5-1.4,2.2-3,2c-0.6-0.1-1.2-0.1-1.7,0c-1,0.1-2-0.5-2.3-1.5c-3-7.2-5.9-14.4-8.9-21.6
		C155.4,88.7,155.3,88.1,155,87.3z"/>
	<path class="st0" d="M121.2,112.8c-2.5-0.2-5.1-0.5-7.6-1c-7-1.8-11.3-9.4-9.1-15.7c1.9-5.2,7.7-8.9,13.9-8.9
		c2.3,0,4.6,0.1,6.9,0.1c1.7,0,1.9,0.5,1.2,2c-1.3,2.8-3.7,3.8-6.6,3.9c-1.4,0-2.8,0.1-4.2,0.4c-3,0.6-5.1,3.3-5.1,6.3
		c0.1,3.2,2.5,5.8,5.6,6.3c1.4,0.2,2.8,0.3,4.2,0.3c2.6,0,5,1.6,6.1,4c0.7,1.4,0.4,1.9-1.2,2s-2.8,0-4.2,0L121.2,112.8z"/>
	<path class="st0" d="M141.1,87.2c2.8,0,5.5,0,8.3,0c1.9,0,2.1,0.2,2.1,2c0,3.2,0,3.2-3.2,3.2c-5.1,0-4.2-0.4-4.2,4.2
		c0,4.5,0,9,0,13.5c0,1.8-0.2,2-2.1,2c-0.9,0-1.8,0-2.7,0c-1.4,0.1-1.8-0.6-1.8-1.9c0-5,0-10,0-15.1c0-2.6-0.2-2.8-2.9-2.8
		c-0.9,0-1.8,0-2.7,0c-0.9,0.1-1.6-0.5-1.7-1.4c0-0.1,0-0.3,0-0.4c0-0.4,0-0.8,0-1.2c0-1.8,0.3-2.2,2.1-2.2
		C135.2,87.2,138.1,87.2,141.1,87.2L141.1,87.2z"/>
	<path class="st0" d="M48.2,99.6c0-3.4,0-6.9,0-10.3c0-1.8,0.2-2,2.1-2c0.9,0,1.8,0.1,2.7,0c1.3-0.1,1.9,0.4,1.9,1.8
		c0,7.2,0,14.3,0,21.5c0,1.2-0.4,1.8-1.6,1.7c-1.1-0.1-2.2-0.1-3.3,0c-1.3,0.1-1.7-0.6-1.7-1.8C48.2,106.8,48.2,103.2,48.2,99.6z"/>
	<path class="st1" d="M29.7,95.3c2.6-0.2,4.8,1.7,5,4.3c0.2,2.6-1.7,4.8-4.3,5c-0.2,0-0.4,0-0.6,0c-2.6,0.1-4.9-1.9-5.1-4.6
		C24.6,97.5,27,95.3,29.7,95.3z"/>
	<circle class="st2" cx="100.1" cy="99.8" r="95.5"/>
	
		<image style="display:none;overflow:visible;" width="2560" height="341" xlink:href="../../../../../../../../../../../../../Downloads/DirecTV_Go_Logo.svg.png"  transform="matrix(0.4914 0 0 0.4614 1201.9906 135.6028)">
	</image>
	
		<image style="display:none;overflow:visible;" width="2560" height="341" xlink:href="../../../../../../../../../../../../../Downloads/DirecTV_Go_Logo.svg.png"  transform="matrix(0.5991 0 0 0.5991 823.238 133.3807)">
	</image>
</g>
<g id="Layer_2">
	<g>
		<path class="st1" d="M149.4,132.6c-0.3,0-0.4,0-0.6,0c-1.6,0-3.2,0-4.8,0c-0.6,0-0.9-0.3-0.9-0.9c0-2.4,1.6-4.3,4-4.7
			c0.3,0,0.5-0.1,0.8-0.1c2.3,0,4.5,0,6.8,0c0.3,0,0.5,0.1,0.5,0.4c1.1,5.7-1.7,11.1-6.6,13.6c-1.4,0.7-3,1.1-4.6,1.3
			c-5.5,0.5-10.3-2.8-12.3-7.2c-1-2.1-1.3-4.3-1-6.6c0.5-5.1,4.3-9.5,9.5-10.7c0.9-0.2,1.9-0.3,2.9-0.3c2.3,0,4.7,0,7,0
			c0.7,0,1,0.1,0.9,1c-0.3,2.2-1.8,3.8-3.9,4.3c-0.3,0.1-0.7,0.1-1,0.1c-1.3,0-2.6,0-3.9,0.1c-2.9,0.3-5.2,2.5-5.9,5.2
			c-0.9,3.8,1.4,7.5,5.3,8.4c3,0.7,6.2-0.8,7.6-3.5C149.3,133,149.3,132.8,149.4,132.6z"/>
		<path class="st1" d="M169.5,142.2c-6.7,0-12.4-5.4-12.5-12.3c-0.1-7,5.7-12.5,12.5-12.5c6.9,0,12.5,5.7,12.5,12.4
			C181.9,136.5,176.4,142.2,169.5,142.2z M169.5,122.8c-3.9,0-7,3.1-7,7c0,3.9,3.1,7,7.1,7c3.9,0,6.9-3.1,6.9-7
			C176.5,125.9,173.4,122.8,169.5,122.8z"/>
	</g>
</g>
</svg>
