<svg id="Capa_1" data-name="Capa 1" xmlns="http://www.w3.org/2000/svg" viewBox="0 0 200 200"><defs><style>.cls-1{fill:#1d763d;}.cls-2{fill:none;stroke:#13703b;stroke-miterlimit:10;stroke-width:4px;}</style></defs><polygon class="cls-1" points="159.49 153.64 147.94 137.97 136.41 153.64 131.66 153.64 145.54 134.7 132.86 117.5 137.61 117.5 147.94 131.53 158.27 117.5 163.02 117.5 150.35 134.7 164.24 153.64 159.49 153.64"/><polygon class="cls-1" points="69.52 153.63 55.62 134.7 68.3 117.5 63.55 117.5 53.22 131.53 42.89 117.5 38.15 117.5 50.82 134.7 36.93 153.63 41.69 153.63 53.22 137.97 64.76 153.63 69.52 153.63"/><path class="cls-1" d="M95.93,136.07a9.66,9.66,0,0,0-2.37-1.51,8.17,8.17,0,0,0,4.35-7.24c0-2.31-.85-9.83-11.75-9.83H71.49v15.58H66.6c-.63.83-2.08,2.81-2.62,3.63h7.51v16.93H86.17c8,0,12.89-4,12.89-10.55a8.91,8.91,0,0,0-3.13-7M75.55,121.26H86.17c2.87,0,7.69.72,7.69,5.75,0,3.8-2.81,6.06-7.69,6.06H75.55Zm10.61,28.6H75.54V136.71H86.16c4,0,8.85,1.11,8.85,6.29,0,6-5.54,6.86-8.85,6.86"/><path class="cls-1" d="M118.15,116.66c-10.15,0-17.25,7.76-17.25,18.88s7.1,18.9,17.25,18.9,17.22-7.76,17.22-18.9-7.08-18.88-17.22-18.88m0,34c-7.74,0-13.16-6.2-13.16-15.07s5.42-15.06,13.16-15.06,13.11,6.19,13.11,15.06-5.39,15.07-13.11,15.07"/><path class="cls-1" d="M78.12,55.32s0,0,0,0h0a32,32,0,0,0-3,42.18.16.16,0,0,0,.18,0c.06,0,.06-.1,0-.16-2.45-7.55,10-25.85,16.48-33.52,0,0,0-.06,0-.09a.15.15,0,0,0-.07-.11C80.94,52.91,78,55.38,78.09,55.35"/><path class="cls-1" d="M123.05,55.32l0,0h0a32,32,0,0,1,3,42.18.15.15,0,0,1-.18,0s0-.1,0-.16c2.44-7.55-10-25.86-16.47-33.53,0,0,0-.06,0-.09a.14.14,0,0,1,.06-.11c10.85-10.8,13.73-8.31,13.69-8.34"/><path class="cls-1" d="M100.58,46.11a31.61,31.61,0,0,1,16.68,4.68.13.13,0,0,1,.06.16c0,.06-.09.07-.16.06-6.2-1.34-15.62,4-16.51,4.55a.1.1,0,0,1-.14,0C98.15,54.2,89.44,49.64,84,51a.14.14,0,0,1-.15,0,.16.16,0,0,1,0-.17,31.62,31.62,0,0,1,16.73-4.71"/><path class="cls-1" d="M100.58,71.79a.22.22,0,0,1,.11,0c9.58,7.29,26,25.3,21,30.39h0a32,32,0,0,1-42.16,0h0c-5-5.09,11.4-23.1,21-30.39a.22.22,0,0,1,.11,0"/><circle class="cls-2" cx="100.58" cy="100.27" r="95.5"/></svg>