<svg id="Capa_1" data-name="Capa 1" xmlns="http://www.w3.org/2000/svg" viewBox="0 0 200 200"><defs><style>.cls-1{fill:#c75434;}.cls-2{fill:none;stroke:#c85434;stroke-miterlimit:10;stroke-width:4px;}</style></defs><path class="cls-1" d="M31.46,72.66H46.69c.67,0,.67,0,.83.63q2,7.86,4,15.72,2.35,9.38,4.73,18.74,1.7,6.77,3.4,13.53c.15.59.13.62-.5.62H44.66c-.77,0-.77,0-1-.74q-1.47-5.76-2.93-11.53c-1.06-4.16-2.1-8.33-3.16-12.49L32.93,78.7l-1.32-5.22c0-.16-.1-.32-.15-.48Z"/><path class="cls-1" d="M76.87,64c-.27,1.2-.65,2.38-1,3.57q-2.62,9.3-5.26,18.6Q67.82,96.13,65,106q-2.13,7.56-4.28,15.11a2,2,0,0,1-.25.71c-.21-.09-.19-.27-.22-.41Q58.11,113,56,104.65q-1.53-6.11-3.09-12.2a1.18,1.18,0,0,1,0-.67q3.75-12.44,7.49-24.88C60.7,66,61,65,61.25,64Z"/><path class="cls-1" d="M132.69,83.91H140c.34,0,.52.09.6.44.89,3.61,1.8,7.2,2.7,10.8q1.89,7.55,3.77,15.07a1.26,1.26,0,0,1-.05.79q-2.26,6.18-4.51,12.38-2.1,5.79-4.22,11.59c0,.06,0,.13-.07.2s0,.22-.17.21-.12-.15-.14-.24l-.87-3.34q-1.14-4.43-2.26-8.85-1.31-5.06-2.6-10.12-3.36-13.1-6.73-26.2c-.18-.73-.37-1.46-.55-2.19-.13-.49-.1-.53.43-.53Z"/><path class="cls-1" d="M77.46,64.47l.6,2.17q3.56,13.23,7.11,26.45Q88.08,104,91,114.8l.09.33c.06.23,0,.36-.27.37H75.3c-.66,0-.65,0-.81-.61l-4-15.41c-.46-1.76-.91-3.52-1.38-5.28a1.88,1.88,0,0,1,0-1q3.85-13.5,7.69-27l.49-1.75Z"/><path class="cls-1" d="M160.17,97.58h7.17c.75,0,.76,0,.5.69q-3.47,9.18-6.93,18.36t-7,18.56a.62.62,0,0,1-.68.48h-14c-.5,0-.51,0-.35-.47q4.26-12,8.54-24,2.33-6.53,4.63-13.07a.72.72,0,0,1,.8-.56C155.3,97.59,157.74,97.58,160.17,97.58Z"/><path class="cls-1" d="M102.4,115.51H95.75c-.68,0-.69,0-.46-.63q5.29-14.61,10.59-29.24a.81.81,0,0,1,.89-.63c4.35,0,8.7,0,13,0a2.26,2.26,0,0,0,.26,0c.34,0,.43.12.31.44-.35,1-.68,1.9-1,2.85q-2.28,6.41-4.58,12.82-2.49,6.95-5,13.9a.64.64,0,0,1-.73.48C106.87,115.5,104.64,115.51,102.4,115.51Z"/><path class="cls-1" d="M97.86,128.81h-25c-.68,0-.69,0-.48-.66.84-2.63,1.68-5.26,2.49-7.89a.7.7,0,0,1,.78-.59q25.1,0,50.18,0c.63,0,.64,0,.45.63-.84,2.67-1.7,5.34-2.53,8a.62.62,0,0,1-.71.49H97.86Zm-11.73-6.17c-.14-.16.11-.47-.25-.48s-.32.23-.37.43l0,.13c-.33,1.54-.66,3.08-1,4.63,0,.15-.17.39.14.44s.38-.11.43-.36c.08-.49.19-1,.29-1.46,0-.22.11-.33.31-.1a1.38,1.38,0,0,0,1.4.42,2.52,2.52,0,0,0,2-2.78,1.49,1.49,0,0,0-1.72-1.44A1.91,1.91,0,0,0,86.13,122.64Zm12.25,1.15c0-1.2-.54-1.74-1.75-1.72a2.33,2.33,0,0,0-2.17,2.52,1.63,1.63,0,0,0,2.06,1.7A2.32,2.32,0,0,0,98.38,123.79Zm-20.53-1.71h-.26a1.27,1.27,0,0,0-1.23.94c-.08.56.16.9.86,1.2.3.13.6.25.89.4a.56.56,0,0,1,.38.6.65.65,0,0,1-.5.53,1.26,1.26,0,0,1-1.56-.55A.34.34,0,0,0,76,125c-.2.07-.16.25-.12.4a1,1,0,0,0,.46.64,2.34,2.34,0,0,0,2.32-.09,1,1,0,0,0,.42-.75c0-.55-.17-.86-.81-1.16-.32-.15-.66-.27-1-.43a.54.54,0,0,1-.35-.57c0-.29.28-.39.52-.45a1,1,0,0,1,1.25.46.35.35,0,0,0,.51.15c.19-.12.07-.31,0-.46A1.36,1.36,0,0,0,77.85,122.08Zm43.14,0h-.17a1.3,1.3,0,0,0-1.27.88c-.11.6.13,1,.87,1.27.32.13.63.27.94.42a.53.53,0,0,1,.32.55.59.59,0,0,1-.4.51,1.29,1.29,0,0,1-1.68-.53.31.31,0,0,0-.42-.15c-.19.06-.15.23-.12.36a1,1,0,0,0,.63.76,2.37,2.37,0,0,0,2.06-.11,1,1,0,0,0,.52-.83c0-.55-.19-.86-.86-1.17a5.85,5.85,0,0,1-1-.48.48.48,0,0,1,.08-.88,1.11,1.11,0,0,1,1.46.38c.14.22.32.27.5.16s.07-.31,0-.45A1.4,1.4,0,0,0,121,122.08Zm-8.45,4.18c.14,0,.42.07.48-.23s-.24-.24-.41-.29a.38.38,0,0,1-.28-.52c.12-.6.25-1.2.36-1.8s.16-.88.79-.77c.18,0,.24-.12.26-.28s-.08-.19-.21-.21c-.54-.09-.54-.1-.43-.64,0-.09,0-.17,0-.26s0-.27-.15-.29a.32.32,0,0,0-.37.14,1.38,1.38,0,0,0-.08.29c-.08.4-.09.85-.7.79-.13,0-.2.1-.21.23s.06.23.19.23c.46,0,.4.28.33.58-.15.68-.31,1.36-.43,2S111.81,126.25,112.54,126.26Zm-7.43-3.32c-.11-.16,0-.27,0-.38s.15-.32-.1-.38-.37.06-.42.3c-.24,1.14-.47,2.28-.7,3.42,0,.12-.1.3.13.33s.35,0,.41-.21.07-.27.1-.41c.13-.57.22-1.15.4-1.7a1.56,1.56,0,0,1,1.38-1.22c.29,0,.45-.18.4-.43s-.34-.18-.53-.14A2.12,2.12,0,0,0,105.11,122.94Z"/><path class="cls-1" d="M91.6,114.78c-.14-.5-.27-.94-.39-1.39L86.83,97.12c-.7-2.59-1.39-5.19-2.09-7.78a1.3,1.3,0,0,1,0-.87c.48-1.37,1-2.74,1.42-4.12a.58.58,0,0,1,.65-.45h14.33c.56,0,.59,0,.42.55q-3.2,9.84-6.4,19.67l-3.3,10.14A.77.77,0,0,1,91.6,114.78Z"/><path class="cls-1" d="M124.46,84.73l.73,2.84q2.44,9.68,4.9,19.35c.11.43.18.87.33,1.28a3.3,3.3,0,0,1-.09,2.43c-.54,1.44-1,2.9-1.46,4.37a.63.63,0,0,1-.69.52c-4.55,0-9.1,0-13.65,0-.56,0-.58,0-.4-.56l8.76-26c.42-1.25.84-2.51,1.27-3.76C124.21,85.05,124.21,84.86,124.46,84.73Z"/><path class="cls-1" d="M116.42,76.3h6.66c.57,0,.58,0,.39.54-.61,1.72-1.24,3.42-1.83,5.14a.64.64,0,0,1-.71.51c-4.45,0-8.9,0-13.35,0-.49,0-.52,0-.36-.48.63-1.73,1.27-3.47,1.88-5.21a.63.63,0,0,1,.71-.49C112,76.31,114.22,76.3,116.42,76.3Z"/><path class="cls-1" d="M87.31,122.57a1,1,0,0,1,1.13.9A2.08,2.08,0,0,1,87,125.79a1.07,1.07,0,0,1-1.35-.9,2.3,2.3,0,0,1,1.06-2.17A1.28,1.28,0,0,1,87.31,122.57Z"/><path class="cls-1" d="M97.82,123.8a2.24,2.24,0,0,1-.8,1.73,1.24,1.24,0,0,1-1.4.15,1.07,1.07,0,0,1-.58-1.1,2.16,2.16,0,0,1,.8-1.72,1.26,1.26,0,0,1,1.4-.16A1.12,1.12,0,0,1,97.82,123.8Z"/><circle class="cls-2" cx="99.73" cy="99.85" r="95.5"/></svg>