<svg id="Capa_1" data-name="Capa 1" xmlns="http://www.w3.org/2000/svg" viewBox="0 0 200 200"><defs><style>.cls-1{fill:none;stroke:#3b1285;stroke-miterlimit:10;stroke-width:4px;}.cls-2{fill:#3b1285;}</style></defs><circle class="cls-1" cx="101.07" cy="100.92" r="95.5"/><path class="cls-2" d="M59.37,105.6c0-7.9,0-15.79,0-23.69,0-2-.18-4.27,2.29-4.93,3.38-.9,6.93-2,10.32-.33,1.53.75,1.15,2.74,1,4.29-1.07,13.65-2.2,27.3-3.19,41-.23,3.14-1.37,4.82-4.73,5.3C55,128.64,55,128.75,51.5,119.28A36.67,36.67,0,0,0,48,111.6c-.42,4.15-.92,8.29-1.26,12.45-.29,3.6-1.76,5.43-5.7,5.89-9.58,1.12-9.58,1.34-12.45-7.72C25,110.76,21.39,99.31,17.88,87.82c-1.63-5.33-.94-6.24,4.46-6.77,7.59-.74,7.56-.73,9.51,6.86,1.62,6.35,3.33,12.68,5.11,19.41,1.56-1.82,1.08-3.44,1.16-4.92.35-6.34.68-12.69.89-19,.1-3.19,1.7-4.64,4.72-4.76s6.36-1.11,7.55,3.29c2.14,7.91,4.44,15.77,6.67,23.65Z"/><path class="cls-2" d="M130.76,92.23c-1.89,7.29-1.34,14.63-1.57,22-.07,2.08.39,4.71-2.08,5.52-3.3,1.09-6.81,2.21-10.31.84-1.54-.61-1.46-2.33-1.35-3.74q1.67-21.73,3.41-43.47a3.28,3.28,0,0,1,2.78-3.27,44.21,44.21,0,0,1,9.67-1c2.49,0,3.29,1.79,4,3.74A63.24,63.24,0,0,0,140.44,85c.44-4.14,1-8.26,1.26-12.4.21-3.38,1.69-5.24,5.09-5.57,11.81-1.16,9.88-2.18,13.07,7.75,3.73,11.56,7.27,23.17,10.86,34.77,1.4,4.52.78,5.49-3.84,6.26-7.69,1.28-8.36.84-10.26-6.61-1.73-6.83-3.48-13.65-5.9-20.43-.38,7.48-.82,15-1.11,22.46-.24,6-3.31,8.5-9.26,7.32-2.48-.48-2.91-2.41-3.45-4.31C134.83,106.9,132.81,99.56,130.76,92.23Z"/><path class="cls-2" d="M113.06,88.62c-.49,5.32-.85,12.38-1.82,19.35-1.77,12.81-15.93,21.11-28.18,16.77-5.69-2-8.71-7.5-8.12-14.77q.75-9.06,1.5-18.11c1-13.07,10.55-21.36,23.65-20.61C109.16,71.77,113.28,76.74,113.06,88.62Zm-13.64,6c0-2.42.07-4,0-5.53-.22-3.86-2.41-5.15-6-3.71a5.44,5.44,0,0,0-3.42,5c-.58,5.75-1.19,11.51-1.4,17.28-.14,3.86,2.2,5.17,5.89,3.94,2.74-.91,3.54-3.11,3.83-5.57C98.78,102,99.11,97.87,99.42,94.65Z"/></svg>