<svg id="Capa_1" data-name="Capa 1" xmlns="http://www.w3.org/2000/svg" viewBox="0 0 200 200"><defs><style>.cls-1,.cls-2{fill:none;}.cls-1{stroke:#bd5336;stroke-miterlimit:10;stroke-width:4px;}.cls-3{fill:#c74c29;}.cls-4{fill:#0b153d;}</style></defs><title>iyo</title><circle class="cls-1" cx="100" cy="100.61" r="95.5" transform="translate(-0.13 0.13) rotate(-0.07)"/><rect class="cls-2" y="0.61" width="200" height="200"/><path class="cls-3" d="M105.77,93.17c-.18,4,.47,9-.43,13.83-1.41,7.69-6,12.65-13.45,15-1.28.39-1.75.88-1.72,2.24.09,4.63,0,9.26.06,13.89,0,1.13-.23,1.63-1.48,1.6-3-.07-6-.05-9,0-1,0-1.4-.34-1.39-1.4,0-4.68,0-9.36,0-14a1.85,1.85,0,0,0-1.61-2.18c-6.86-2-11.52-6.36-13.48-13.36a21.5,21.5,0,0,1-.67-5.82c0-7.8,0-15.6-.07-23.4,0-1.22.35-1.66,1.64-1.62,3,.1,5.93.08,8.9,0,1.13,0,1.44.3,1.43,1.44,0,7.85,0,15.7,0,23.55a9.74,9.74,0,0,0,7,9.68,9.64,9.64,0,0,0,12.32-9c.09-7.9.06-15.8,0-23.7,0-1.46.27-2,1.89-2,2.91.15,5.83.07,8.75,0,1.06,0,1.4.34,1.39,1.39C105.74,83.58,105.77,87.91,105.77,93.17Z"/><path class="cls-4" d="M138.11,76.91c12,0,21.29,7.49,23.48,19.06a22.89,22.89,0,0,1-20.24,26.91c-9.42.93-17.37-1.83-22.93-9.73-9.8-13.91-1.32-33.4,15.48-35.93A33,33,0,0,1,138.11,76.91Zm-11.73,23a14.15,14.15,0,0,0,.68,4.76,11.51,11.51,0,0,0,22,.26,16.49,16.49,0,0,0,.6-7.45c-1.09-8.45-9.93-13.12-17.27-9C128,90.94,126.54,95.1,126.38,99.88Z"/><path class="cls-4" d="M39.48,99.91c0-6.9,0-13.8,0-20.69,0-1.06.27-1.36,1.34-1.34,3.17.07,6.34.06,9.51,0,.91,0,1.2.21,1.2,1.16q0,20.92,0,41.83c0,.94-.27,1.2-1.19,1.18-3.17,0-6.34-.06-9.51,0-1,0-1.36-.25-1.35-1.33C39.5,113.8,39.48,106.85,39.48,99.91Z"/><path class="cls-4" d="M45.53,72.4A7.43,7.43,0,1,1,53,65,7.6,7.6,0,0,1,45.53,72.4Z"/><path class="cls-4" d="M131.24,140.33V142c0,1.37-.74,1.87-2,1.46-.52-.16-.37-.53-.37-.83,0-1.36,0-2.72,0-4.08s-.75-2.21-2-2.14-1.78.93-1.78,2.15-.07,2.52,0,3.77c.08,1-.34,1.19-1.21,1.15s-1.36,0-1.29-1.08c.1-1.3,0-2.62,0-3.92s-.53-2.08-1.86-2.06-1.87.81-1.87,2.06-.08,2.72,0,4.07c.07,1.12-.63.9-1.25.91s-1.3.14-1.22-.94c.1-1.3,0-2.62,0-3.93a4.23,4.23,0,0,1,6.61-3.65,1.2,1.2,0,0,0,1.51,0c3.28-1.94,6.64,0,6.66,3.85Z"/><path class="cls-4" d="M137.9,134.3a4.67,4.67,0,0,1,4.77,4.76,4.76,4.76,0,0,1-4.94,4.62,4.69,4.69,0,1,1,.17-9.38Zm-.09,2.09a2.32,2.32,0,0,0-2.35,2.54,2.38,2.38,0,1,0,4.72,0A2.35,2.35,0,0,0,137.81,136.39Z"/><path class="cls-4" d="M148.36,141.54c.69-2.11,1.28-3.95,1.88-5.78a1.86,1.86,0,0,1,2.47-1.3c.56.19.33.56.24.85-.77,2.28-1.53,4.56-2.34,6.82a2.27,2.27,0,0,1-2.36,1.54A2.31,2.31,0,0,1,146,142c-.7-2-1.39-4.07-2.05-6.13-.14-.44-.76-1.22,0-1.34s2-.73,2.41.69c.53,1.68,1,3.35,1.56,5C148,140.6,148.12,140.91,148.36,141.54Z"/><path class="cls-4" d="M159.18,136.91c0-1.76.07-3.52,0-5.27-.07-1.14.6-1,1.31-1s1.23,0,1.21,1c-.06,3.61-.07,7.22,0,10.83,0,1.12-.59,1-1.32,1s-1.25,0-1.2-1C159.23,140.62,159.18,138.76,159.18,136.91Z"/><path class="cls-4" d="M154.51,139c0-1.05,0-2.1,0-3.15s0-1.44,1.22-1.44,1.25.49,1.23,1.42c0,2.2-.07,4.41,0,6.61,0,.95-.39,1-1.15,1s-1.42.2-1.32-1S154.51,140.17,154.51,139Z"/><path class="cls-4" d="M157.24,131.78a1.47,1.47,0,0,1-1.5,1.58,1.4,1.4,0,0,1-1.51-1.52,1.36,1.36,0,0,1,1.4-1.46A1.43,1.43,0,0,1,157.24,131.78Z"/><path class="cls-4" d="M140.28,131.15c-.69,1.64-1.55,2.71-3.41,2.11C137.8,131.07,137.86,131,140.28,131.15Z"/></svg>