<svg id="Layer_1" data-name="Layer 1" xmlns="http://www.w3.org/2000/svg" viewBox="0 0 195 195"><defs><style>.cls-1{fill:none;stroke:#00529b;stroke-miterlimit:10;stroke-width:4px;}.cls-2,.cls-3,.cls-4{fill:#00519b;}.cls-10,.cls-11,.cls-12,.cls-13,.cls-14,.cls-15,.cls-16,.cls-17,.cls-18,.cls-19,.cls-2,.cls-20,.cls-21,.cls-22,.cls-23,.cls-24,.cls-25,.cls-26,.cls-27,.cls-28,.cls-29,.cls-3,.cls-30,.cls-31,.cls-32,.cls-33,.cls-34,.cls-35,.cls-4,.cls-5,.cls-6,.cls-7,.cls-8,.cls-9{fill-rule:evenodd;}.cls-2{opacity:0.95;}.cls-10,.cls-11,.cls-12,.cls-13,.cls-14,.cls-15,.cls-17,.cls-19,.cls-2,.cls-20,.cls-21,.cls-22,.cls-23,.cls-24,.cls-25,.cls-26,.cls-27,.cls-28,.cls-29,.cls-3,.cls-30,.cls-31,.cls-32,.cls-33,.cls-34,.cls-35,.cls-4,.cls-5,.cls-6,.cls-7,.cls-8,.cls-9{isolation:isolate;}.cls-3{opacity:0.97;}.cls-4{opacity:0.98;}.cls-5{fill:#01529a;opacity:0.97;}.cls-6{fill:#01519b;opacity:0.96;}.cls-7{fill:#02519b;opacity:0.98;}.cls-19,.cls-20,.cls-22,.cls-23,.cls-24,.cls-26,.cls-28,.cls-29,.cls-31,.cls-33,.cls-34,.cls-8{fill:#ecbe12;}.cls-8{opacity:0.96;}.cls-9{fill:#e9bd17;}.cls-11,.cls-9{opacity:0.97;}.cls-10{fill:#eabd14;}.cls-10,.cls-14{opacity:0.97;}.cls-11{fill:#ebbe16;}.cls-12{fill:#ecbe13;opacity:0.98;}.cls-13{fill:#ebbe13;opacity:0.97;}.cls-14{fill:#e4bb1f;}.cls-15{fill:#ecbf14;opacity:0.99;}.cls-16{fill:#013fb1;}.cls-17{fill:#ecc015;opacity:0.94;}.cls-18{fill:#39519b;}.cls-19{opacity:0.8;}.cls-20{opacity:0.79;}.cls-21,.cls-25,.cls-27,.cls-30,.cls-35{fill:#ebbd13;}.cls-21{opacity:0.87;}.cls-22{opacity:0.79;}.cls-23{opacity:0.82;}.cls-24{opacity:0.84;}.cls-25,.cls-33{opacity:0.84;}.cls-26{opacity:0.83;}.cls-27{opacity:0.83;}.cls-28{opacity:0.88;}.cls-29{opacity:0.82;}.cls-30{opacity:0.86;}.cls-31{opacity:0.82;}.cls-32{fill:#ebbe12;opacity:0.88;}.cls-34{opacity:0.79;}.cls-35{opacity:0.82;}</style></defs><title>recargas-legon2</title><g id="Layer_1-2" data-name="Layer 1"><g id="Capa_1" data-name="Capa 1"><circle class="cls-1" cx="97.5" cy="97.5" r="95.5"/></g></g><path class="cls-2" d="M125.27,78.61h7.42a.85.85,0,0,1,.11.88q-3.72,3.23-7.31,6.54a20.69,20.69,0,0,1-3-.11,1.07,1.07,0,0,1-.22-.54C123.18,83.09,124.2,80.84,125.27,78.61Z" transform="translate(-3.1 -3)"/><path class="cls-3" d="M86,96.72A2,2,0,0,0,85.24,98a16.44,16.44,0,0,0,0,3.71.75.75,0,0,0,.33.44,7.78,7.78,0,0,0,7,4.69,14,14,0,0,0,5.24-.44,6.5,6.5,0,0,0,.21-2.29,30.72,30.72,0,0,1-3.71-.11,3.48,3.48,0,0,1-.21-1.64.46.46,0,0,0,.32-.21,23.92,23.92,0,0,0,.11-3.28c3.75.08,7.46,0,11.13-.21a14.35,14.35,0,0,1,.22,3.49,43.61,43.61,0,0,1,.11,7.41,13,13,0,0,1-5.78,3A22.28,22.28,0,0,1,83,110.36a12.75,12.75,0,0,1-5.67-8.18,43.09,43.09,0,0,1,.22-5.68,11.68,11.68,0,0,1,5.23-7.3A20.91,20.91,0,0,1,94.08,86a28.88,28.88,0,0,1,11.12,2.29,22.34,22.34,0,0,1,0,6.22l-.43.22a23.77,23.77,0,0,0-12.66-2.07A7.6,7.6,0,0,0,86,96.72Z" transform="translate(-3.1 -3)"/><path class="cls-4" d="M125.49,86a16.65,16.65,0,0,1,14.29,7.2,16.27,16.27,0,0,1,1.42,3.27,43.76,43.76,0,0,1,.22,5.68q-3.24,9.75-13.53,11a19.11,19.11,0,0,1-14.62-3.92,13.15,13.15,0,0,1-4.14-7.09,43.09,43.09,0,0,1,.22-5.68,14.43,14.43,0,0,1,11.34-9.92C122.32,86.37,123.92,86.18,125.49,86Zm7.42,10.69a18.78,18.78,0,0,0-4.8-.11A31.33,31.33,0,0,1,125.27,98c-1-.52-2-1-3-1.42a17.11,17.11,0,0,0-4.58.11,7.74,7.74,0,0,1,7.52-4.14A7.85,7.85,0,0,1,132.91,96.72Zm.22,5.46a6.71,6.71,0,0,1-4.37,4.25,10,10,0,0,1-10.36-2.29,6.33,6.33,0,0,1-1-2c1.75,0,3.49,0,5.24-.11a19.14,19.14,0,0,1,2.61-1.2,19.26,19.26,0,0,1,2.62,1.2C129.64,102.18,131.38,102.21,133.13,102.18Z" transform="translate(-3.1 -3)"/><path class="cls-5" d="M37.57,96.5a19.31,19.31,0,0,0,0,5.68v5q6.88,0,13.75.11a8.72,8.72,0,0,1,.43,2.73,17.54,17.54,0,0,1-.21,2.73q-10.8.21-21.6,0-.33-5.26-.22-10.58V96.72q.27,2.67.33,5.46a38.46,38.46,0,0,0,0-5.68.5.5,0,0,0-.33-.21q-.06-4.8.11-9.6a32.7,32.7,0,0,1,7.53,0C37.57,90,37.65,93.23,37.57,96.5Z" transform="translate(-3.1 -3)"/><path class="cls-6" d="M73.79,96.5a19.31,19.31,0,0,1,0,5.68c-4.15-.08-8.29,0-12.44.21a12.75,12.75,0,0,1,0,4.69l13.31.22.33.33a20.45,20.45,0,0,1-.11,5.13q-10.59.21-21.16,0-.33-5.26-.22-10.58a18.65,18.65,0,0,0,0-5.68q-.06-4.8.11-9.6l.33-.32q10.25-.22,20.5,0a22.16,22.16,0,0,1,.11,5.34l-13.2.44a9.44,9.44,0,0,1,0,4Q67.58,96.56,73.79,96.5Z" transform="translate(-3.1 -3)"/><path class="cls-7" d="M161.05,96.5q2.16,2.55,4.47,5c.11-1.67.15-3.34.11-5,0-3.27,0-6.54.11-9.81a32.7,32.7,0,0,1,7.53,0q.33,4.91.22,9.81a18.65,18.65,0,0,0,0,5.68c0,3.49,0,7-.11,10.47a34.43,34.43,0,0,1-6.66.11q-4.84-5.36-9.81-10.58-2.29-2.36-4.48-4.8c-.1,1.59-.14,3.19-.1,4.8,0,3.49,0,7-.11,10.47a33.65,33.65,0,0,1-7.64,0c-.11-3.49-.14-7-.11-10.47a18.65,18.65,0,0,0,0-5.68q-.1-4.91.22-9.81a35.49,35.49,0,0,1,6.76-.11Q156.21,91.61,161.05,96.5Z" transform="translate(-3.1 -3)"/><path class="cls-8" d="M23.39,96.5h6.33v5.68H23.39Z" transform="translate(-3.1 -3)"/><path class="cls-9" d="M173.49,96.5h5.23v5.68h-5.23A18.65,18.65,0,0,1,173.49,96.5Z" transform="translate(-3.1 -3)"/><path class="cls-10" d="M37.57,96.5H53.5a18.65,18.65,0,0,1,0,5.68H37.57A19.31,19.31,0,0,1,37.57,96.5Z" transform="translate(-3.1 -3)"/><path class="cls-11" d="M73.79,96.5H77.5a43.09,43.09,0,0,0-.22,5.68H73.79A19.31,19.31,0,0,0,73.79,96.5Z" transform="translate(-3.1 -3)"/><path class="cls-12" d="M109.35,96.5a43.09,43.09,0,0,0-.22,5.68h-3.27a14.35,14.35,0,0,0-.22-3.49,97.52,97.52,0,0,0-11.35-.11,15.43,15.43,0,0,0-.21,3.6H85.57a.75.75,0,0,1-.33-.44,16.44,16.44,0,0,1,0-3.71A2,2,0,0,1,86,96.72Q97.66,96.41,109.35,96.5Z" transform="translate(-3.1 -3)"/><path class="cls-13" d="M132.91,96.72a1.37,1.37,0,0,1,.54,1.09c0,.62.08,1.24.11,1.86a5.55,5.55,0,0,1-.43,2.51c-1.75,0-3.49,0-5.24-.11a19.26,19.26,0,0,0-2.62-1.2,19.14,19.14,0,0,0-2.61,1.2c-1.75.11-3.49.14-5.24.11a.75.75,0,0,1-.33-.44,20.56,20.56,0,0,1,0-4.15,1.12,1.12,0,0,1,.55-.87,17.11,17.11,0,0,1,4.58-.11c1,.43,2.06.9,3,1.42a31.33,31.33,0,0,0,2.84-1.42A18.78,18.78,0,0,1,132.91,96.72Z" transform="translate(-3.1 -3)"/><path class="cls-14" d="M141.2,96.5h3.27a18.65,18.65,0,0,1,0,5.68h-3.05A43.76,43.76,0,0,0,141.2,96.5Z" transform="translate(-3.1 -3)"/><path class="cls-15" d="M161.05,96.5h4.58c0,1.68,0,3.35-.11,5Q163.21,99,161.05,96.5Z" transform="translate(-3.1 -3)"/><path class="cls-16" d="M29.72,96.29a.5.5,0,0,1,.33.21,38.46,38.46,0,0,1,0,5.68q-.06-2.79-.33-5.46v-.43Z" transform="translate(-3.1 -3)"/><path class="cls-17" d="M156.91,102.18h-4.58c0-1.61,0-3.21.1-4.8Q154.62,99.83,156.91,102.18Z" transform="translate(-3.1 -3)"/><path class="cls-18" d="M105.64,98.69c-3.67.21-7.38.29-11.13.21a23.92,23.92,0,0,1-.11,3.28.46.46,0,0,1-.32.21v-.21a15.43,15.43,0,0,1,.21-3.6A97.52,97.52,0,0,1,105.64,98.69Z" transform="translate(-3.1 -3)"/><path class="cls-19" d="M48.48,122.25H47.17v-4.8a7.25,7.25,0,0,1-1.74-.11.83.83,0,0,1-.22-1.09,22.16,22.16,0,0,1,5.34.11.9.9,0,0,1-.11,1l-2,.22A12.75,12.75,0,0,1,48.48,122.25Z" transform="translate(-3.1 -3)"/><path class="cls-20" d="M56.34,122.25H52.19a27.59,27.59,0,0,1-.11-5.89,14.13,14.13,0,0,1,4.26-.11c.23.47.09.84-.44,1.09a13.78,13.78,0,0,1-2.4.11v1.09a8.57,8.57,0,0,1,2,.11c.44.26.52.58.22,1a5.74,5.74,0,0,1-2.18.22v1.09a15.32,15.32,0,0,1,2.62.11A.78.78,0,0,1,56.34,122.25Z" transform="translate(-3.1 -3)"/><path class="cls-21" d="M62.23,122.25H57.86c0-1.9,0-3.79.11-5.68a1.27,1.27,0,0,1,1.2-.43v5a9.2,9.2,0,0,0,2.62-.22C62.44,121.22,62.59,121.66,62.23,122.25Z" transform="translate(-3.1 -3)"/><path class="cls-22" d="M67.9,122.25H63.75a27.59,27.59,0,0,1-.11-5.89,14.13,14.13,0,0,1,4.26-.11c.23.47.09.84-.44,1.09a13.78,13.78,0,0,1-2.4.11v1.09a10.59,10.59,0,0,1,2.18.11.79.79,0,0,1,0,1.09,11.34,11.34,0,0,1-2.18.11v1.09a15.28,15.28,0,0,1,2.62.11A.73.73,0,0,1,67.9,122.25Z" transform="translate(-3.1 -3)"/><path class="cls-23" d="M73.57,122.25H71a3.57,3.57,0,0,1-1.2-5,3.49,3.49,0,0,1,4-.76,1.25,1.25,0,0,1,.43,1.2,7.63,7.63,0,0,0-2.61-.11,2,2,0,0,0,.21,3.49,6.13,6.13,0,0,0,2.4-.33A1.32,1.32,0,0,1,73.57,122.25Z" transform="translate(-3.1 -3)"/><path class="cls-24" d="M79.68,122.25H77.06a3.55,3.55,0,0,1-1.64-3.93,2.74,2.74,0,0,1,3.06-2.18,2.81,2.81,0,0,1,2.83,2A3.46,3.46,0,0,1,79.68,122.25Zm-2.18-4.8c2.14-.22,2.91.73,2.29,2.83a1.56,1.56,0,0,1-2.62.22A2.78,2.78,0,0,1,77.5,117.45Z" transform="translate(-3.1 -3)"/><path class="cls-25" d="M89.71,122.25H88.4a.93.93,0,0,0-.32-.44c-.08-.87-.15-1.75-.22-2.62A4.3,4.3,0,0,1,86,120.94a4.52,4.52,0,0,1-1.63-1.75,20.88,20.88,0,0,0-.11,3.06H83a27.59,27.59,0,0,1-.11-5.89,1.14,1.14,0,0,1,1.53.21A10.11,10.11,0,0,0,86,119.19a10,10,0,0,0,2-2.83,1,1,0,0,1,1.09-.11c.14,1.62.29,3.26.44,4.91.35-.28.57-.17.65.32A2.45,2.45,0,0,1,89.71,122.25Z" transform="translate(-3.1 -3)"/><path class="cls-26" d="M95.17,122.25h-2.4a4.06,4.06,0,0,1-1.53-3.93c-.39-1.43.12-2.16,1.53-2.18a38.16,38.16,0,0,0,.11,4.14c.64,1,1.37,1,2.18.22a38.08,38.08,0,0,1,.33-4.14,1,1,0,0,1,1.2,0,22.68,22.68,0,0,1,0,4.36A2.17,2.17,0,0,1,95.17,122.25Z" transform="translate(-3.1 -3)"/><path class="cls-27" d="M103.89,122.25h-1.31a11.71,11.71,0,0,0-2.72-3.93,34.39,34.39,0,0,0-.11,3.93H98.44q-.06-3,.11-5.89a1.19,1.19,0,0,1,1.42.11,12.16,12.16,0,0,1,2.51,2.94l.21-2.84a1.6,1.6,0,0,1,1.42-.43A42.89,42.89,0,0,1,103.89,122.25Z" transform="translate(-3.1 -3)"/><path class="cls-28" d="M107.38,122.25h-1.3a23.16,23.16,0,0,1-.11-5.46,1.31,1.31,0,0,1,1.41-.65Z" transform="translate(-3.1 -3)"/><path class="cls-29" d="M113.49,122.25h-2.62a3.56,3.56,0,0,1-1.19-5,3.62,3.62,0,0,1,4.25-.66,1.58,1.58,0,0,1,.22,1.1,7.69,7.69,0,0,0-2.62-.11,1,1,0,0,0-.76.76c-.31,2.56.75,3.36,3.16,2.4A1,1,0,0,1,113.49,122.25Z" transform="translate(-3.1 -3)"/><path class="cls-30" d="M121.13,122.25h-1.31a15.12,15.12,0,0,1-.65-1.42,10.73,10.73,0,0,0-2.19-.11,2.44,2.44,0,0,1-.43,1.53H115a17.53,17.53,0,0,1,3.16-6.11,8.57,8.57,0,0,1,1.53,2.18A15,15,0,0,1,121.13,122.25Zm-3.06-4.15c.22.42.44.85.66,1.31a.79.79,0,0,1-1.09,0A2.38,2.38,0,0,0,118.07,118.1Z" transform="translate(-3.1 -3)"/><path class="cls-31" d="M126.58,122.25H124a3.57,3.57,0,0,1-1.2-5,3.64,3.64,0,0,1,4.26-.66,1.58,1.58,0,0,1,.22,1.1,7.69,7.69,0,0,0-2.62-.11,1,1,0,0,0-.76.76c-.31,2.56.75,3.36,3.16,2.4A1,1,0,0,1,126.58,122.25Z" transform="translate(-3.1 -3)"/><path class="cls-32" d="M130.29,122.25H129c0-1.9,0-3.79.11-5.68a1.27,1.27,0,0,1,1.2-.43Z" transform="translate(-3.1 -3)"/><path class="cls-33" d="M136.4,122.25H134q-3.15-2.09-1.09-5.35,3-1.91,5.13,1A3.46,3.46,0,0,1,136.4,122.25Zm-2-4.8a1.81,1.81,0,0,1,2.4,1.85,1.77,1.77,0,0,1-1.75,1.86,1.89,1.89,0,0,1-1.42-2.62A1.24,1.24,0,0,1,134.44,117.45Z" transform="translate(-3.1 -3)"/><path class="cls-25" d="M145.13,122.25h-1.31a10.41,10.41,0,0,0-2.73-3.93,34.39,34.39,0,0,0-.11,3.93h-1.31c0-2,0-3.93.11-5.89a1.28,1.28,0,0,1,1.2-.11,14.18,14.18,0,0,1,2.73,3.16c.07-.94.14-1.89.22-2.84a1.94,1.94,0,0,1,1.41-.43A44.41,44.41,0,0,1,145.13,122.25Z" transform="translate(-3.1 -3)"/><path class="cls-34" d="M151.23,122.25h-4.14a27,27,0,0,1-.11-5.89,14.07,14.07,0,0,1,4.25-.11c.22.45.08.82-.43,1.09l-2.62.22a1.39,1.39,0,0,1,.22,1,8.57,8.57,0,0,1,2,.11c.44.26.52.58.22,1a5.74,5.74,0,0,1-2.18.22v1.09a15.32,15.32,0,0,1,2.62.11A.77.77,0,0,1,151.23,122.25Z" transform="translate(-3.1 -3)"/><path class="cls-35" d="M156,122.25h-2.61a1.06,1.06,0,0,1-.55-1.75,2.91,2.91,0,0,0,2.73.44.59.59,0,0,0-.22-1,10.18,10.18,0,0,1-2.4-.77,1.63,1.63,0,0,1,0-2.51,3.8,3.8,0,0,1,3.71-.11c.55.47.55.91,0,1.31a7.21,7.21,0,0,0-1.86-.65,1.17,1.17,0,0,0-1,.76c1,.47,2,1,3.06,1.42A1.86,1.86,0,0,1,156,122.25Z" transform="translate(-3.1 -3)"/></svg>