<svg id="Capa_1" data-name="Capa 1" xmlns="http://www.w3.org/2000/svg" viewBox="0 0 200 200"><defs><style>.cls-1{fill:#be0811;fill-rule:evenodd;}.cls-2{fill:none;stroke:#b50a1d;stroke-miterlimit:10;stroke-width:4px;}</style></defs><path class="cls-1" d="M151.41,101.2a15.49,15.49,0,0,0-11.32-4.7,15,15,0,0,0-11.16,4.7,15.52,15.52,0,0,0-4.7,11.38,15.26,15.26,0,0,0,4.7,11.32,15.09,15.09,0,0,0,11.16,4.77A16,16,0,0,0,156,112.58a15.78,15.78,0,0,0-4.63-11.38ZM146,118.53a8.24,8.24,0,0,1-11.82,0,8.38,8.38,0,0,1-2.5-6,8.19,8.19,0,0,1,2.5-6,7.47,7.47,0,0,1,5.87-2.42,7.81,7.81,0,0,1,6,2.42,8.51,8.51,0,0,1-.08,12Z"/><path class="cls-1" d="M39.52,88.63a18.05,18.05,0,0,0-13.88,5.81,19,19,0,0,0-5.81,14,19.26,19.26,0,0,0,5.81,14.1,18.78,18.78,0,0,0,13.88,5.73,19.17,19.17,0,0,0,12-4,19.91,19.91,0,0,0,6.9-10.5h-8a13.74,13.74,0,0,1-4.34,5.07,12.32,12.32,0,0,1-6.54,1.91,11.75,11.75,0,0,1-8.59-3.6,12.41,12.41,0,0,1,0-17.34,11.94,11.94,0,0,1,15.13-1.62,13.29,13.29,0,0,1,4.34,5.07h8a19.64,19.64,0,0,0-6.9-10.5,18.45,18.45,0,0,0-12-4.12Z"/><path class="cls-1" d="M88,96.42c-5.14-.07-8.74,1.32-10.8,4a12.1,12.1,0,0,0-2.2,6.69h7.64a4.8,4.8,0,0,1,1.1-2.79,4.56,4.56,0,0,1,4-1.47,6.78,6.78,0,0,1,3.74.73,2.74,2.74,0,0,1,1.33,2.57,2.52,2.52,0,0,1-1.77,2.35l-5.87,1a18.59,18.59,0,0,0-6.61,2c-2.87,1.69-4.27,4.41-4.19,8.3A8.17,8.17,0,0,0,77,126.32a9.81,9.81,0,0,0,6.24,2.13c4.19-.07,7.5-1.1,9.85-3.16v3.16h7.64V106c0-3.67-1.32-6.24-3.82-7.56a17.83,17.83,0,0,0-8.89-2Zm3.23,17.27,1.47-.81V116c0,2.65-.73,4.48-2.13,5.51A8.05,8.05,0,0,1,85.8,123a4.13,4.13,0,0,1-2.71-.89,3.75,3.75,0,0,1-1.11-3,3.79,3.79,0,0,1,1.84-3.45,10.14,10.14,0,0,1,3.6-1l3.82-1Z"/><polygon class="cls-1" points="69.94 88.64 62.3 88.64 62.3 128.45 69.94 128.45 69.94 88.64 69.94 88.64"/><path class="cls-1" d="M118.57,97.52a12.19,12.19,0,0,0-5.44,4.34V98l-7.27-.07v30.56h7.57V113.83c0-2.5.29-4.26.95-5.36a7.21,7.21,0,0,1,2.65-2.94,7.41,7.41,0,0,1,4.18-1.32l2.35.15-.07-7.79-2,.15-2.94.8Z"/><polygon class="cls-1" points="157.36 97.67 175.8 79.23 170.95 74.38 152.51 92.82 157.36 97.67 157.36 97.67"/><polygon class="cls-1" points="144.43 90.32 144.43 70.56 137.6 70.56 137.6 90.32 144.43 90.32 144.43 90.32"/><polygon class="cls-1" points="160.74 105.31 160.74 112.14 180.94 112.14 180.94 105.31 160.74 105.31 160.74 105.31"/><circle class="cls-2" cx="100.39" cy="99.62" r="95.5"/></svg>