<svg id="Capa_1" data-name="Capa 1" xmlns="http://www.w3.org/2000/svg" viewBox="0 0 200 200"><defs><style>.cls-1{fill:none;stroke:#66a7d3;stroke-miterlimit:10;stroke-width:4px;}.cls-2,.cls-3,.cls-4{fill:#66a7d3;}.cls-3{font-size:21.5px;letter-spacing:0.2em;}.cls-3,.cls-4{font-family:FuturaBT-Medium, Futura Md BT;font-weight:500;}.cls-4{font-size:14.24px;letter-spacing:0.3em;}</style></defs><circle class="cls-1" cx="100.25" cy="99.92" r="95.5"/><path class="cls-2" d="M96.52,79.21A37.31,37.31,0,0,1,104,74.48a27.78,27.78,0,0,1,7.83-2.91l3-8.21L120,62l5.12-3.73,1.14,7.27-.89,2.21-2.59,1-1.2,4.1L125,71.25l3.79-4.8-1.45-10.93-1.64-1.07h-1.77L125.33,53l7.14,3.09,2.08,2.53-.19,2.59,2.78,2.72.13-3.48L134.05,54l-9.79-4.68-6.51,4.36L113,49l-2.28-6.06-7.26-4.11,2-1.77,7.83-.44,2-4.17-9.35-1.83-2.15-2.08-1.51-.07,3.54-13.2-6.7,13.14-.82-.06L94.5,26.09l.82,2.78-3.47-.13,1,2L90,33.35s.7.44-.82,3.1L87.62,39.1l2.27,3.79s-1,.19-2.09,2l-1.07,1.83-1.58.82,3.16.64a3.44,3.44,0,0,1-.38.94,5.32,5.32,0,0,0-.5,2.09c-.07.82-1.84,2.08-1.84,2.08l3.67.32,1.89-1.52.7,6.07L93,55.71,93.81,57l1.64.06-5.31,6.25a20.15,20.15,0,0,1-2.21,2.47,76.8,76.8,0,0,1-6.63,4.61l-.89.44-2,5.06-4.93-1-1.77-6.63L74,62.79,81.55,52.3l.7-7.2L80,38.78l-3.35-2.71-7.77,1-4.67,3.47-1,8.09L66,42.89l1.45,3.41-2.52,6.44L67.84,49,67,53.12l-3.6,3.54,4.55-3,.88-1.64.32,3.28.44-1.83,2.65-3L73,45.61l-1.89-4.68,1.39-2.53,3.85-.25L78.58,40l1.64,5.25L79,51.48,71.7,61.34,69,68.41,71.51,77l7.07,2.59,1.58,5.12,5.43,3.22.7,5.81-2,2.15,10.48,15,.51,2.08,5.75,1.08.57-1L99.11,110l-2.78-.76-6.76-12,3-3.35,2.28,1.9,15.1-.57,1.89.88,4-2.65-2.15-1.14-2.84.44-13.39-.12L102,86l.19-3.54Z"/><text class="cls-3" transform="translate(33.81 138.81)">UNICORN</text><text class="cls-4" transform="translate(77.02 157.27) scale(0.57 1)">MOBILE</text></svg>